%TF.GenerationSoftware,KiCad,Pcbnew,5.1.10*%
%TF.CreationDate,2021-07-27T11:18:45+02:00*%
%TF.ProjectId,lxbmc,6c78626d-632e-46b6-9963-61645f706362,rev?*%
%TF.SameCoordinates,Original*%
%TF.FileFunction,Paste,Top*%
%TF.FilePolarity,Positive*%
%FSLAX45Y45*%
G04 Gerber Fmt 4.5, Leading zero omitted, Abs format (unit mm)*
G04 Created by KiCad (PCBNEW 5.1.10) date 2021-07-27 11:18:45*
%MOMM*%
%LPD*%
G01*
G04 APERTURE LIST*
%TA.AperFunction,Profile*%
%ADD10C,0.200000*%
%TD*%
%ADD11R,0.200000X0.700000*%
%ADD12R,1.397000X1.701800*%
%ADD13C,2.700000*%
G04 APERTURE END LIST*
D10*
X300000Y-6950000D02*
G75*
G02*
X0Y-6650000I0J300000D01*
G01*
X0Y-300000D02*
G75*
G02*
X300000Y0I300000J0D01*
G01*
X10000000Y-6650000D02*
G75*
G02*
X9700000Y-6950000I-300000J0D01*
G01*
X9700000Y0D02*
G75*
G02*
X10000000Y-300000I0J-300000D01*
G01*
X300000Y0D02*
X9700000Y0D01*
X0Y-6650000D02*
X0Y-300000D01*
X10000000Y-300000D02*
X10000000Y-6650000D01*
X9700000Y-6950000D02*
X300000Y-6950000D01*
D11*
X1569000Y-1958000D03*
X1569000Y-1650000D03*
X1609000Y-1958000D03*
X1609000Y-1650000D03*
X1649000Y-1958000D03*
X1649000Y-1650000D03*
X1689000Y-1958000D03*
X1689000Y-1650000D03*
X1729000Y-1958000D03*
X1729000Y-1650000D03*
X1769000Y-1958000D03*
X1769000Y-1650000D03*
X1809000Y-1958000D03*
X1809000Y-1650000D03*
X1849000Y-1958000D03*
X1849000Y-1650000D03*
X1889000Y-1958000D03*
X1889000Y-1650000D03*
X1929000Y-1958000D03*
X1929000Y-1650000D03*
X1969000Y-1958000D03*
X1969000Y-1650000D03*
X2009000Y-1958000D03*
X2009000Y-1650000D03*
X2049000Y-1958000D03*
X2049000Y-1650000D03*
X2089000Y-1958000D03*
X2089000Y-1650000D03*
X2129000Y-1958000D03*
X2129000Y-1650000D03*
X2169000Y-1958000D03*
X2169000Y-1650000D03*
X2209000Y-1958000D03*
X2209000Y-1650000D03*
X2249000Y-1958000D03*
X2249000Y-1650000D03*
X2289000Y-1958000D03*
X2289000Y-1650000D03*
X2329000Y-1958000D03*
X2329000Y-1650000D03*
X2369000Y-1958000D03*
X2369000Y-1650000D03*
X2409000Y-1958000D03*
X2409000Y-1650000D03*
X2449000Y-1958000D03*
X2449000Y-1650000D03*
X2489000Y-1958000D03*
X2489000Y-1650000D03*
X2529000Y-1958000D03*
X2529000Y-1650000D03*
X2569000Y-1958000D03*
X2569000Y-1650000D03*
X2609000Y-1958000D03*
X2609000Y-1650000D03*
X2649000Y-1958000D03*
X2649000Y-1650000D03*
X2689000Y-1958000D03*
X2689000Y-1650000D03*
X2729000Y-1958000D03*
X2729000Y-1650000D03*
X2769000Y-1958000D03*
X2769000Y-1650000D03*
X2809000Y-1958000D03*
X2809000Y-1650000D03*
X2849000Y-1958000D03*
X2849000Y-1650000D03*
X2889000Y-1958000D03*
X2889000Y-1650000D03*
X2929000Y-1958000D03*
X2929000Y-1650000D03*
X2969000Y-1958000D03*
X2969000Y-1650000D03*
X3009000Y-1958000D03*
X3009000Y-1650000D03*
X3049000Y-1958000D03*
X3049000Y-1650000D03*
X3089000Y-1958000D03*
X3089000Y-1650000D03*
X3129000Y-1958000D03*
X3129000Y-1650000D03*
X3169000Y-1958000D03*
X3169000Y-1650000D03*
X3209000Y-1958000D03*
X3209000Y-1650000D03*
X3249000Y-1958000D03*
X3249000Y-1650000D03*
X3289000Y-1958000D03*
X3289000Y-1650000D03*
X3329000Y-1958000D03*
X3329000Y-1650000D03*
X3369000Y-1958000D03*
X3369000Y-1650000D03*
X3409000Y-1958000D03*
X3409000Y-1650000D03*
X3449000Y-1958000D03*
X3449000Y-1650000D03*
X3489000Y-1958000D03*
X3489000Y-1650000D03*
X3529000Y-1958000D03*
X3529000Y-1650000D03*
X1569000Y-5350000D03*
X1569000Y-5042000D03*
X1609000Y-5350000D03*
X1609000Y-5042000D03*
X1649000Y-5350000D03*
X1649000Y-5042000D03*
X1689000Y-5350000D03*
X1689000Y-5042000D03*
X1729000Y-5350000D03*
X1729000Y-5042000D03*
X1769000Y-5350000D03*
X1769000Y-5042000D03*
X1809000Y-5350000D03*
X1809000Y-5042000D03*
X1849000Y-5350000D03*
X1849000Y-5042000D03*
X1889000Y-5350000D03*
X1889000Y-5042000D03*
X1929000Y-5350000D03*
X1929000Y-5042000D03*
X1969000Y-5350000D03*
X1969000Y-5042000D03*
X2009000Y-5350000D03*
X2009000Y-5042000D03*
X2049000Y-5350000D03*
X2049000Y-5042000D03*
X2089000Y-5350000D03*
X2089000Y-5042000D03*
X2129000Y-5350000D03*
X2129000Y-5042000D03*
X2169000Y-5350000D03*
X2169000Y-5042000D03*
X2209000Y-5350000D03*
X2209000Y-5042000D03*
X2249000Y-5350000D03*
X2249000Y-5042000D03*
X2289000Y-5350000D03*
X2289000Y-5042000D03*
X2329000Y-5350000D03*
X2329000Y-5042000D03*
X2369000Y-5350000D03*
X2369000Y-5042000D03*
X2409000Y-5350000D03*
X2409000Y-5042000D03*
X2449000Y-5350000D03*
X2449000Y-5042000D03*
X2489000Y-5350000D03*
X2489000Y-5042000D03*
X2529000Y-5350000D03*
X2529000Y-5042000D03*
X2569000Y-5350000D03*
X2569000Y-5042000D03*
X2609000Y-5350000D03*
X2609000Y-5042000D03*
X2649000Y-5350000D03*
X2649000Y-5042000D03*
X2689000Y-5350000D03*
X2689000Y-5042000D03*
X2729000Y-5350000D03*
X2729000Y-5042000D03*
X2769000Y-5350000D03*
X2769000Y-5042000D03*
X2809000Y-5350000D03*
X2809000Y-5042000D03*
X2849000Y-5350000D03*
X2849000Y-5042000D03*
X2889000Y-5350000D03*
X2889000Y-5042000D03*
X2929000Y-5350000D03*
X2929000Y-5042000D03*
X2969000Y-5350000D03*
X2969000Y-5042000D03*
X3009000Y-5350000D03*
X3009000Y-5042000D03*
X3049000Y-5350000D03*
X3049000Y-5042000D03*
X3089000Y-5350000D03*
X3089000Y-5042000D03*
X3129000Y-5350000D03*
X3129000Y-5042000D03*
X3169000Y-5350000D03*
X3169000Y-5042000D03*
X3209000Y-5350000D03*
X3209000Y-5042000D03*
X3249000Y-5350000D03*
X3249000Y-5042000D03*
X3289000Y-5350000D03*
X3289000Y-5042000D03*
X3329000Y-5350000D03*
X3329000Y-5042000D03*
X3369000Y-5350000D03*
X3369000Y-5042000D03*
X3409000Y-5350000D03*
X3409000Y-5042000D03*
X3449000Y-5350000D03*
X3449000Y-5042000D03*
X3489000Y-5350000D03*
X3489000Y-5042000D03*
X3529000Y-5350000D03*
X3529000Y-5042000D03*
D12*
X6048000Y-1824850D03*
X6302000Y-1824850D03*
X6302000Y-923150D03*
X6048000Y-923150D03*
D11*
X3529000Y-5042000D03*
X1569000Y-5350000D03*
X1609000Y-5350000D03*
X1649000Y-5350000D03*
X1689000Y-5350000D03*
X1729000Y-5350000D03*
X1769000Y-5350000D03*
X1809000Y-5350000D03*
X1849000Y-5350000D03*
X1889000Y-5350000D03*
X1929000Y-5350000D03*
X1969000Y-5350000D03*
X2009000Y-5350000D03*
X2049000Y-5350000D03*
X2089000Y-5350000D03*
X2129000Y-5350000D03*
X2169000Y-5350000D03*
X2209000Y-5350000D03*
X2249000Y-5350000D03*
X2289000Y-5350000D03*
X2329000Y-5350000D03*
X2369000Y-5350000D03*
X2409000Y-5350000D03*
X2449000Y-5350000D03*
X2489000Y-5350000D03*
X2529000Y-5350000D03*
X2569000Y-5350000D03*
X2609000Y-5350000D03*
X2649000Y-5350000D03*
X2689000Y-5350000D03*
X2729000Y-5350000D03*
X2769000Y-5350000D03*
X2809000Y-5350000D03*
X2849000Y-5350000D03*
X2889000Y-5350000D03*
X2929000Y-5350000D03*
X2969000Y-5350000D03*
X3009000Y-5350000D03*
X3049000Y-5350000D03*
X3089000Y-5350000D03*
X3129000Y-5350000D03*
X3169000Y-5350000D03*
X3209000Y-5350000D03*
X3249000Y-5350000D03*
X3289000Y-5350000D03*
X3329000Y-5350000D03*
X3369000Y-5350000D03*
X3409000Y-5350000D03*
X3449000Y-5350000D03*
X3489000Y-5350000D03*
X3529000Y-5350000D03*
D13*
X400000Y-1850000D03*
X400000Y-5150000D03*
X5200000Y-1850000D03*
X5200000Y-5150000D03*
D11*
X3489000Y-5042000D03*
X3449000Y-5042000D03*
X3409000Y-5042000D03*
X3369000Y-5042000D03*
X3329000Y-5042000D03*
X3289000Y-5042000D03*
X3249000Y-5042000D03*
X3209000Y-5042000D03*
X3169000Y-5042000D03*
X3129000Y-5042000D03*
X3089000Y-5042000D03*
X3049000Y-5042000D03*
X3009000Y-5042000D03*
X2969000Y-5042000D03*
X2929000Y-5042000D03*
X2889000Y-5042000D03*
X2849000Y-5042000D03*
X2809000Y-5042000D03*
X2769000Y-5042000D03*
X2729000Y-5042000D03*
X2689000Y-5042000D03*
X2649000Y-5042000D03*
X2609000Y-5042000D03*
X2569000Y-5042000D03*
X2529000Y-5042000D03*
X2489000Y-5042000D03*
X2449000Y-5042000D03*
X2409000Y-5042000D03*
X2369000Y-5042000D03*
X2329000Y-5042000D03*
X2289000Y-5042000D03*
X2249000Y-5042000D03*
X2209000Y-5042000D03*
X2169000Y-5042000D03*
X2129000Y-5042000D03*
X2089000Y-5042000D03*
X2049000Y-5042000D03*
X2009000Y-5042000D03*
X1969000Y-5042000D03*
X1929000Y-5042000D03*
X1889000Y-5042000D03*
X1849000Y-5042000D03*
X1809000Y-5042000D03*
X1769000Y-5042000D03*
X1729000Y-5042000D03*
X1689000Y-5042000D03*
X1649000Y-5042000D03*
X1609000Y-5042000D03*
X1569000Y-5042000D03*
X3529000Y-1650000D03*
X3529000Y-1958000D03*
X3489000Y-1650000D03*
X3489000Y-1958000D03*
X3449000Y-1650000D03*
X3449000Y-1958000D03*
X3409000Y-1650000D03*
X3409000Y-1958000D03*
X3369000Y-1650000D03*
X3369000Y-1958000D03*
X3329000Y-1650000D03*
X3329000Y-1958000D03*
X3289000Y-1650000D03*
X3289000Y-1958000D03*
X3249000Y-1650000D03*
X3249000Y-1958000D03*
X3209000Y-1650000D03*
X3209000Y-1958000D03*
X3169000Y-1650000D03*
X3169000Y-1958000D03*
X3129000Y-1650000D03*
X3129000Y-1958000D03*
X3089000Y-1650000D03*
X3089000Y-1958000D03*
X3049000Y-1650000D03*
X3049000Y-1958000D03*
X3009000Y-1650000D03*
X3009000Y-1958000D03*
X2969000Y-1650000D03*
X2969000Y-1958000D03*
X2929000Y-1650000D03*
X2929000Y-1958000D03*
X2889000Y-1650000D03*
X2889000Y-1958000D03*
X2849000Y-1650000D03*
X2849000Y-1958000D03*
X2809000Y-1650000D03*
X2809000Y-1958000D03*
X2769000Y-1650000D03*
X2769000Y-1958000D03*
X2729000Y-1650000D03*
X2729000Y-1958000D03*
X2689000Y-1650000D03*
X2689000Y-1958000D03*
X2649000Y-1650000D03*
X2649000Y-1958000D03*
X2609000Y-1650000D03*
X2609000Y-1958000D03*
X2569000Y-1650000D03*
X2569000Y-1958000D03*
X2529000Y-1650000D03*
X2529000Y-1958000D03*
X2489000Y-1650000D03*
X2489000Y-1958000D03*
X2449000Y-1650000D03*
X2449000Y-1958000D03*
X2409000Y-1650000D03*
X2409000Y-1958000D03*
X2369000Y-1650000D03*
X2369000Y-1958000D03*
X2329000Y-1650000D03*
X2329000Y-1958000D03*
X2289000Y-1650000D03*
X2289000Y-1958000D03*
X2249000Y-1650000D03*
X2249000Y-1958000D03*
X2209000Y-1650000D03*
X2209000Y-1958000D03*
X2169000Y-1650000D03*
X2169000Y-1958000D03*
X2129000Y-1650000D03*
X2129000Y-1958000D03*
X2089000Y-1650000D03*
X2089000Y-1958000D03*
X2049000Y-1650000D03*
X2049000Y-1958000D03*
X2009000Y-1650000D03*
X2009000Y-1958000D03*
X1969000Y-1650000D03*
X1969000Y-1958000D03*
X1929000Y-1650000D03*
X1929000Y-1958000D03*
X1889000Y-1650000D03*
X1889000Y-1958000D03*
X1849000Y-1650000D03*
X1849000Y-1958000D03*
X1809000Y-1650000D03*
X1809000Y-1958000D03*
X1769000Y-1650000D03*
X1769000Y-1958000D03*
X1729000Y-1650000D03*
X1729000Y-1958000D03*
X1689000Y-1650000D03*
X1689000Y-1958000D03*
X1649000Y-1650000D03*
X1649000Y-1958000D03*
X1609000Y-1650000D03*
X1609000Y-1958000D03*
X1569000Y-1650000D03*
X1569000Y-1958000D03*
G36*
G01*
X4107500Y-5812500D02*
X4052500Y-5812500D01*
G75*
G02*
X4032500Y-5792500I0J20000D01*
G01*
X4032500Y-5752500D01*
G75*
G02*
X4052500Y-5732500I20000J0D01*
G01*
X4107500Y-5732500D01*
G75*
G02*
X4127500Y-5752500I0J-20000D01*
G01*
X4127500Y-5792500D01*
G75*
G02*
X4107500Y-5812500I-20000J0D01*
G01*
G37*
G36*
G01*
X4107500Y-5647500D02*
X4052500Y-5647500D01*
G75*
G02*
X4032500Y-5627500I0J20000D01*
G01*
X4032500Y-5587500D01*
G75*
G02*
X4052500Y-5567500I20000J0D01*
G01*
X4107500Y-5567500D01*
G75*
G02*
X4127500Y-5587500I0J-20000D01*
G01*
X4127500Y-5627500D01*
G75*
G02*
X4107500Y-5647500I-20000J0D01*
G01*
G37*
G36*
G01*
X9662500Y-2032500D02*
X9662500Y-2087500D01*
G75*
G02*
X9642500Y-2107500I-20000J0D01*
G01*
X9602500Y-2107500D01*
G75*
G02*
X9582500Y-2087500I0J20000D01*
G01*
X9582500Y-2032500D01*
G75*
G02*
X9602500Y-2012500I20000J0D01*
G01*
X9642500Y-2012500D01*
G75*
G02*
X9662500Y-2032500I0J-20000D01*
G01*
G37*
G36*
G01*
X9497500Y-2032500D02*
X9497500Y-2087500D01*
G75*
G02*
X9477500Y-2107500I-20000J0D01*
G01*
X9437500Y-2107500D01*
G75*
G02*
X9417500Y-2087500I0J20000D01*
G01*
X9417500Y-2032500D01*
G75*
G02*
X9437500Y-2012500I20000J0D01*
G01*
X9477500Y-2012500D01*
G75*
G02*
X9497500Y-2032500I0J-20000D01*
G01*
G37*
G36*
G01*
X6252500Y-2077500D02*
X6252500Y-2022500D01*
G75*
G02*
X6272500Y-2002500I20000J0D01*
G01*
X6312500Y-2002500D01*
G75*
G02*
X6332500Y-2022500I0J-20000D01*
G01*
X6332500Y-2077500D01*
G75*
G02*
X6312500Y-2097500I-20000J0D01*
G01*
X6272500Y-2097500D01*
G75*
G02*
X6252500Y-2077500I0J20000D01*
G01*
G37*
G36*
G01*
X6087500Y-2077500D02*
X6087500Y-2022500D01*
G75*
G02*
X6107500Y-2002500I20000J0D01*
G01*
X6147500Y-2002500D01*
G75*
G02*
X6167500Y-2022500I0J-20000D01*
G01*
X6167500Y-2077500D01*
G75*
G02*
X6147500Y-2097500I-20000J0D01*
G01*
X6107500Y-2097500D01*
G75*
G02*
X6087500Y-2077500I0J20000D01*
G01*
G37*
G36*
G01*
X6447500Y-3857500D02*
X6447500Y-3802500D01*
G75*
G02*
X6467500Y-3782500I20000J0D01*
G01*
X6507500Y-3782500D01*
G75*
G02*
X6527500Y-3802500I0J-20000D01*
G01*
X6527500Y-3857500D01*
G75*
G02*
X6507500Y-3877500I-20000J0D01*
G01*
X6467500Y-3877500D01*
G75*
G02*
X6447500Y-3857500I0J20000D01*
G01*
G37*
G36*
G01*
X6612500Y-3857500D02*
X6612500Y-3802500D01*
G75*
G02*
X6632500Y-3782500I20000J0D01*
G01*
X6672500Y-3782500D01*
G75*
G02*
X6692500Y-3802500I0J-20000D01*
G01*
X6692500Y-3857500D01*
G75*
G02*
X6672500Y-3877500I-20000J0D01*
G01*
X6632500Y-3877500D01*
G75*
G02*
X6612500Y-3857500I0J20000D01*
G01*
G37*
G36*
G01*
X6317500Y-2777500D02*
X6317500Y-2722500D01*
G75*
G02*
X6337500Y-2702500I20000J0D01*
G01*
X6377500Y-2702500D01*
G75*
G02*
X6397500Y-2722500I0J-20000D01*
G01*
X6397500Y-2777500D01*
G75*
G02*
X6377500Y-2797500I-20000J0D01*
G01*
X6337500Y-2797500D01*
G75*
G02*
X6317500Y-2777500I0J20000D01*
G01*
G37*
G36*
G01*
X6482500Y-2777500D02*
X6482500Y-2722500D01*
G75*
G02*
X6502500Y-2702500I20000J0D01*
G01*
X6542500Y-2702500D01*
G75*
G02*
X6562500Y-2722500I0J-20000D01*
G01*
X6562500Y-2777500D01*
G75*
G02*
X6542500Y-2797500I-20000J0D01*
G01*
X6502500Y-2797500D01*
G75*
G02*
X6482500Y-2777500I0J20000D01*
G01*
G37*
G36*
G01*
X9662500Y-2214375D02*
X9662500Y-2265625D01*
G75*
G02*
X9640625Y-2287500I-21875J0D01*
G01*
X9596875Y-2287500D01*
G75*
G02*
X9575000Y-2265625I0J21875D01*
G01*
X9575000Y-2214375D01*
G75*
G02*
X9596875Y-2192500I21875J0D01*
G01*
X9640625Y-2192500D01*
G75*
G02*
X9662500Y-2214375I0J-21875D01*
G01*
G37*
G36*
G01*
X9505000Y-2214375D02*
X9505000Y-2265625D01*
G75*
G02*
X9483125Y-2287500I-21875J0D01*
G01*
X9439375Y-2287500D01*
G75*
G02*
X9417500Y-2265625I0J21875D01*
G01*
X9417500Y-2214375D01*
G75*
G02*
X9439375Y-2192500I21875J0D01*
G01*
X9483125Y-2192500D01*
G75*
G02*
X9505000Y-2214375I0J-21875D01*
G01*
G37*
G36*
G01*
X7912500Y-4505000D02*
X7912500Y-4555000D01*
G75*
G02*
X7890000Y-4577500I-22500J0D01*
G01*
X7845000Y-4577500D01*
G75*
G02*
X7822500Y-4555000I0J22500D01*
G01*
X7822500Y-4505000D01*
G75*
G02*
X7845000Y-4482500I22500J0D01*
G01*
X7890000Y-4482500D01*
G75*
G02*
X7912500Y-4505000I0J-22500D01*
G01*
G37*
G36*
G01*
X7757500Y-4505000D02*
X7757500Y-4555000D01*
G75*
G02*
X7735000Y-4577500I-22500J0D01*
G01*
X7690000Y-4577500D01*
G75*
G02*
X7667500Y-4555000I0J22500D01*
G01*
X7667500Y-4505000D01*
G75*
G02*
X7690000Y-4482500I22500J0D01*
G01*
X7735000Y-4482500D01*
G75*
G02*
X7757500Y-4505000I0J-22500D01*
G01*
G37*
G36*
G01*
X2375000Y-1425000D02*
X2280000Y-1425000D01*
G75*
G02*
X2255000Y-1400000I0J25000D01*
G01*
X2255000Y-1350000D01*
G75*
G02*
X2280000Y-1325000I25000J0D01*
G01*
X2375000Y-1325000D01*
G75*
G02*
X2400000Y-1350000I0J-25000D01*
G01*
X2400000Y-1400000D01*
G75*
G02*
X2375000Y-1425000I-25000J0D01*
G01*
G37*
G36*
G01*
X2375000Y-1235000D02*
X2280000Y-1235000D01*
G75*
G02*
X2255000Y-1210000I0J25000D01*
G01*
X2255000Y-1160000D01*
G75*
G02*
X2280000Y-1135000I25000J0D01*
G01*
X2375000Y-1135000D01*
G75*
G02*
X2400000Y-1160000I0J-25000D01*
G01*
X2400000Y-1210000D01*
G75*
G02*
X2375000Y-1235000I-25000J0D01*
G01*
G37*
G36*
G01*
X2126400Y-1404100D02*
X2076400Y-1404100D01*
G75*
G02*
X2053900Y-1381600I0J22500D01*
G01*
X2053900Y-1336600D01*
G75*
G02*
X2076400Y-1314100I22500J0D01*
G01*
X2126400Y-1314100D01*
G75*
G02*
X2148900Y-1336600I0J-22500D01*
G01*
X2148900Y-1381600D01*
G75*
G02*
X2126400Y-1404100I-22500J0D01*
G01*
G37*
G36*
G01*
X2126400Y-1249100D02*
X2076400Y-1249100D01*
G75*
G02*
X2053900Y-1226600I0J22500D01*
G01*
X2053900Y-1181600D01*
G75*
G02*
X2076400Y-1159100I22500J0D01*
G01*
X2126400Y-1159100D01*
G75*
G02*
X2148900Y-1181600I0J-22500D01*
G01*
X2148900Y-1226600D01*
G75*
G02*
X2126400Y-1249100I-22500J0D01*
G01*
G37*
M02*
