M48
; DRILL file {KiCad 5.1.10} date Tue Jul 27 11:18:45 2021
; FORMAT={-:-/ absolute / metric / decimal}
; #@! TF.CreationDate,2021-07-27T11:18:45+02:00
; #@! TF.GenerationSoftware,Kicad,Pcbnew,5.1.10
FMAT,2
METRIC
T1C0.300
T2C0.400
T3C1.000
T4C1.016
T5C1.143
T6C1.200
T7C1.575
T8C1.950
T9C2.700
T10C3.200
T11C3.251
%
G90
G05
T1
X16.093Y-51.108
X16.1Y-52.8
X16.2Y-18.8
X17.3Y-51.2
X17.3Y-52.8
X18.4Y-51.2
X18.5Y-52.8
X19.622Y-52.764
X19.7Y-51.2
X20.8Y-51.3
X20.892Y-52.813
X20.9Y-18.8
X21.0Y-10.2
X21.3Y-17.3
X22.092Y-52.813
X22.1Y-10.2
X22.1Y-51.2
X22.5Y-17.3
X22.5Y-18.75
X23.292Y-52.813
X23.3Y-10.3
X23.3Y-51.3
X23.7Y-17.3
X23.7Y-18.8
X24.336Y-17.779
X24.492Y-52.813
X24.5Y-51.2
X25.0Y-15.6
X25.2Y-18.8
X25.7Y-52.8
X25.8Y-18.0
X26.9Y-17.2
X26.9Y-52.8
X27.3Y-18.8
X28.1Y-51.3
X28.1Y-52.8
X28.9Y-17.2
X29.3Y-18.7
X29.3Y-51.3
X29.3Y-52.8
X30.4Y-18.0
X30.5Y-51.3
X30.5Y-52.7
X30.9Y-17.2
X31.0Y-15.6
X31.2Y-18.7
X31.7Y-51.3
X31.7Y-52.8
X32.4Y-15.6
X32.4Y-20.6
X32.6Y-17.6
X32.8Y-18.8
X32.8Y-51.3
X32.9Y-52.8
X34.0Y-18.805
X34.0Y-51.4
X34.1Y-15.5
X34.1Y-52.8
X35.3Y-15.7
X36.1Y-19.8
X40.8Y-58.8
X59.8Y-20.6
X62.0Y-27.6
X63.6Y-38.0
X93.0Y-20.6
T2
X19.4Y-21.8
X55.3Y-22.7
T3
X26.0Y-59.96
X26.0Y-62.5
X28.54Y-59.96
X28.54Y-62.5
X31.08Y-59.96
X31.08Y-62.5
X33.62Y-59.96
X33.62Y-62.5
X36.16Y-59.96
X36.16Y-62.5
T4
X72.22Y-28.654
X72.22Y-30.686
X72.22Y-32.718
X72.22Y-36.782
X72.22Y-38.814
X72.22Y-40.846
X74.76Y-29.67
X74.76Y-31.702
X74.76Y-33.734
X74.76Y-35.766
X74.76Y-37.798
X74.76Y-39.83
X81.872Y-29.162
X81.872Y-40.338
X83.396Y-29.162
X83.396Y-40.338
T5
X69.68Y-28.654
X69.68Y-31.194
X69.68Y-38.306
X69.68Y-40.846
T6
X27.5Y-9.0
X31.0Y-9.0
X34.5Y-9.0
X43.5Y-9.0
X44.5Y-60.5
X47.0Y-9.0
X48.0Y-60.5
X50.5Y-9.0
X51.5Y-60.5
X54.0Y-9.0
X55.0Y-60.5
T7
X93.175Y-26.685
X93.175Y-42.814
T8
X10.25Y-5.5
X10.25Y-10.5
X10.25Y-59.0
X10.25Y-64.0
X17.75Y-5.5
X17.75Y-10.5
X17.75Y-59.0
X17.75Y-64.0
X86.85Y-5.5
X86.85Y-10.5
X86.85Y-59.0
X86.85Y-64.0
X94.35Y-5.5
X94.35Y-10.5
X94.35Y-59.0
X94.35Y-64.0
T9
X4.0Y-18.5
X4.0Y-51.5
X52.0Y-18.5
X52.0Y-51.5
T10
X14.0Y-3.0
X14.0Y-66.5
X90.6Y-3.0
X90.6Y-66.5
T11
X90.0Y-28.4
X90.0Y-41.1
T0
M30
