%TF.GenerationSoftware,KiCad,Pcbnew,5.1.10*%
%TF.CreationDate,2021-07-27T11:18:45+02:00*%
%TF.ProjectId,lxbmc,6c78626d-632e-46b6-9963-61645f706362,rev?*%
%TF.SameCoordinates,Original*%
%TF.FileFunction,Copper,L4,Bot*%
%TF.FilePolarity,Positive*%
%FSLAX45Y45*%
G04 Gerber Fmt 4.5, Leading zero omitted, Abs format (unit mm)*
G04 Created by KiCad (PCBNEW 5.1.10) date 2021-07-27 11:18:45*
%MOMM*%
%LPD*%
G01*
G04 APERTURE LIST*
%TA.AperFunction,Profile*%
%ADD10C,0.200000*%
%TD*%
%TA.AperFunction,ComponentPad*%
%ADD11C,2.925000*%
%TD*%
%TA.AperFunction,ComponentPad*%
%ADD12C,2.362200*%
%TD*%
%TA.AperFunction,ComponentPad*%
%ADD13C,1.524000*%
%TD*%
%TA.AperFunction,ComponentPad*%
%ADD14C,1.714500*%
%TD*%
%TA.AperFunction,ComponentPad*%
%ADD15C,1.371600*%
%TD*%
%TA.AperFunction,ComponentPad*%
%ADD16R,1.524000X1.524000*%
%TD*%
%TA.AperFunction,ComponentPad*%
%ADD17C,2.300000*%
%TD*%
%TA.AperFunction,ComponentPad*%
%ADD18R,2.300000X2.300000*%
%TD*%
%TA.AperFunction,ComponentPad*%
%ADD19R,1.700000X1.700000*%
%TD*%
%TA.AperFunction,ComponentPad*%
%ADD20O,1.700000X1.700000*%
%TD*%
%TA.AperFunction,ViaPad*%
%ADD21C,0.500000*%
%TD*%
%TA.AperFunction,ViaPad*%
%ADD22C,0.800000*%
%TD*%
%TA.AperFunction,Conductor*%
%ADD23C,0.200000*%
%TD*%
%TA.AperFunction,Conductor*%
%ADD24C,0.500000*%
%TD*%
G04 APERTURE END LIST*
D10*
X300000Y-6950000D02*
G75*
G02*
X0Y-6650000I0J300000D01*
G01*
X0Y-300000D02*
G75*
G02*
X300000Y0I300000J0D01*
G01*
X10000000Y-6650000D02*
G75*
G02*
X9700000Y-6950000I-300000J0D01*
G01*
X9700000Y0D02*
G75*
G02*
X10000000Y-300000I0J-300000D01*
G01*
X300000Y0D02*
X9700000Y0D01*
X0Y-6650000D02*
X0Y-300000D01*
X10000000Y-300000D02*
X10000000Y-6650000D01*
X9700000Y-6950000D02*
X300000Y-6950000D01*
D11*
X8685000Y-6400000D03*
X9435000Y-6400000D03*
X8685000Y-5900000D03*
X9435000Y-5900000D03*
X9435000Y-550000D03*
X8685000Y-550000D03*
X9435000Y-1050000D03*
X8685000Y-1050000D03*
X1025000Y-6400000D03*
X1775000Y-6400000D03*
X1025000Y-5900000D03*
X1775000Y-5900000D03*
X1775000Y-550000D03*
X1025000Y-550000D03*
X1775000Y-1050000D03*
X1025000Y-1050000D03*
D12*
X9317500Y-2668550D03*
X9317500Y-4281450D03*
D13*
X7476000Y-3576600D03*
X7476000Y-3779800D03*
X7476000Y-3983000D03*
X7222000Y-3678200D03*
X7222000Y-3881400D03*
X7222000Y-4084600D03*
D14*
X6968000Y-2865400D03*
X6968000Y-3119400D03*
X6968000Y-4084600D03*
X6968000Y-3830600D03*
D15*
X8187200Y-2916200D03*
X8187200Y-4033800D03*
X8339600Y-2916200D03*
X8339600Y-4033800D03*
D16*
X7476000Y-2967000D03*
D13*
X7476000Y-3170200D03*
X7476000Y-3373400D03*
X7222000Y-2865400D03*
X7222000Y-3068600D03*
X7222000Y-3271800D03*
D17*
X5500000Y-6050000D03*
X5150000Y-6050000D03*
X4800000Y-6050000D03*
D18*
X4450000Y-6050000D03*
D17*
X4350000Y-900000D03*
X4700000Y-900000D03*
X5050000Y-900000D03*
D18*
X5400000Y-900000D03*
D17*
X2750000Y-900000D03*
X3100000Y-900000D03*
D18*
X3450000Y-900000D03*
D19*
X2600000Y-6250000D03*
D20*
X2600000Y-5996000D03*
X2854000Y-6250000D03*
X2854000Y-5996000D03*
X3108000Y-6250000D03*
X3108000Y-5996000D03*
X3362000Y-6250000D03*
X3362000Y-5996000D03*
X3616000Y-6250000D03*
X3616000Y-5996000D03*
D21*
X2090000Y-1880000D03*
X1620000Y-1880000D03*
X2370000Y-1880000D03*
X2520000Y-1880000D03*
X2730000Y-1880000D03*
X2930000Y-1870000D03*
X3120000Y-1870000D03*
X3280000Y-1880000D03*
X3400000Y-1880476D03*
X3610000Y-1980000D03*
X3410000Y-1550000D03*
X3530000Y-1570000D03*
X3090000Y-1720000D03*
X2890000Y-1720000D03*
X2690000Y-1720000D03*
X2370000Y-1730000D03*
X2250000Y-1730000D03*
X2130000Y-1730000D03*
X1609295Y-5110803D03*
X1730000Y-5120000D03*
X1840000Y-5120000D03*
X1970000Y-5120000D03*
X2080000Y-5130000D03*
X2210000Y-5120000D03*
X2330000Y-5130000D03*
X2450000Y-5120000D03*
X2810000Y-5130000D03*
X2930000Y-5130000D03*
X3050000Y-5130000D03*
X3170000Y-5130000D03*
X3280000Y-5130000D03*
X3400000Y-5140000D03*
X3410000Y-5280000D03*
X3290000Y-5280000D03*
X3170000Y-5280000D03*
X3050000Y-5270000D03*
X2930000Y-5280000D03*
X2810000Y-5280000D03*
X2690000Y-5280000D03*
X2570000Y-5280000D03*
X2449196Y-5281284D03*
X2329196Y-5281284D03*
X2209189Y-5281291D03*
X2089196Y-5281284D03*
X1962152Y-5276413D03*
X1850000Y-5280000D03*
X1730000Y-5280000D03*
X1610000Y-5280000D03*
X2100000Y-1020000D03*
X2330000Y-1030000D03*
X2210000Y-1020000D03*
X3260000Y-1760000D03*
X4080000Y-5880000D03*
X2500000Y-1560000D03*
X2250000Y-1875000D03*
X2580000Y-1800000D03*
X2433591Y-1777864D03*
D22*
X5530000Y-2270000D03*
X1940000Y-2180000D03*
D21*
X6200000Y-2760000D03*
X3040000Y-1800000D03*
X3240000Y-1560000D03*
X6360000Y-3800000D03*
X3240000Y-2060000D03*
X5980000Y-2060000D03*
X3100000Y-1560000D03*
X9300000Y-2060000D03*
D23*
X2750000Y-900000D02*
X2750000Y-1270000D01*
X2580000Y-1440000D02*
X2580000Y-1800000D01*
X2750000Y-1270000D02*
X2580000Y-1440000D01*
X2493600Y-1935000D02*
X2433591Y-1874991D01*
X3450000Y-1050000D02*
X2565000Y-1935000D01*
X2565000Y-1935000D02*
X2493600Y-1935000D01*
X3450000Y-900000D02*
X3450000Y-1050000D01*
X2433591Y-1874991D02*
X2433591Y-1777864D01*
D24*
X5530000Y-2270000D02*
X6372600Y-2270000D01*
X6372600Y-2270000D02*
X6968000Y-2865400D01*
X7098725Y-3953875D02*
X6968000Y-4084600D01*
X7098725Y-2996125D02*
X7098725Y-3953875D01*
X6968000Y-2865400D02*
X7098725Y-2996125D01*
X1940000Y-2200000D02*
X1940000Y-2180000D01*
X3824600Y-4084600D02*
X1940000Y-2200000D01*
X6968000Y-4084600D02*
X3824600Y-4084600D01*
D23*
X3040000Y-1800000D02*
X3040000Y-2100000D01*
X3040000Y-2100000D02*
X3700000Y-2760000D01*
X3700000Y-2760000D02*
X6180000Y-2760000D01*
X6180000Y-2760000D02*
X6200000Y-2760000D01*
X3240000Y-1560000D02*
X3180000Y-1620000D01*
X3180000Y-1620000D02*
X3180000Y-2160000D01*
X3180000Y-2160000D02*
X3220000Y-2200000D01*
X3220000Y-2200000D02*
X3560000Y-2540000D01*
X3560000Y-2540000D02*
X3720000Y-2700000D01*
X3720000Y-2700000D02*
X6260000Y-2700000D01*
X6260000Y-2700000D02*
X6360000Y-2800000D01*
X6360000Y-2800000D02*
X6360000Y-3800000D01*
X3345000Y-2165000D02*
X5415000Y-2165000D01*
X3240000Y-2060000D02*
X3345000Y-2165000D01*
X5520000Y-2060000D02*
X5980000Y-2060000D01*
X5415000Y-2165000D02*
X5520000Y-2060000D01*
X3100000Y-1560000D02*
X3100000Y-1520000D01*
X3100000Y-1520000D02*
X3240000Y-1380000D01*
X3240000Y-1380000D02*
X8500000Y-1380000D01*
X9180000Y-2060000D02*
X9300000Y-2060000D01*
X8500000Y-1380000D02*
X9180000Y-2060000D01*
M02*
