%TF.GenerationSoftware,KiCad,Pcbnew,5.1.10*%
%TF.CreationDate,2021-07-27T11:18:45+02:00*%
%TF.ProjectId,lxbmc,6c78626d-632e-46b6-9963-61645f706362,rev?*%
%TF.SameCoordinates,Original*%
%TF.FileFunction,Other,Fab,Top*%
%FSLAX45Y45*%
G04 Gerber Fmt 4.5, Leading zero omitted, Abs format (unit mm)*
G04 Created by KiCad (PCBNEW 5.1.10) date 2021-07-27 11:18:45*
%MOMM*%
%LPD*%
G01*
G04 APERTURE LIST*
%TA.AperFunction,Profile*%
%ADD10C,0.200000*%
%TD*%
%ADD11C,0.200000*%
%ADD12C,0.127000*%
%ADD13C,0.100000*%
%ADD14C,0.015000*%
%ADD15C,0.150000*%
%ADD16C,0.060000*%
%ADD17C,0.080000*%
G04 APERTURE END LIST*
D10*
X300000Y-6950000D02*
G75*
G02*
X0Y-6650000I0J300000D01*
G01*
X0Y-300000D02*
G75*
G02*
X300000Y0I300000J0D01*
G01*
X10000000Y-6650000D02*
G75*
G02*
X9700000Y-6950000I-300000J0D01*
G01*
X9700000Y0D02*
G75*
G02*
X10000000Y-300000I0J-300000D01*
G01*
X300000Y0D02*
X9700000Y0D01*
X0Y-6650000D02*
X0Y-300000D01*
X10000000Y-300000D02*
X10000000Y-6650000D01*
X9700000Y-6950000D02*
X300000Y-6950000D01*
D11*
X7480000Y-2605000D02*
G75*
G03*
X7480000Y-2605000I-10000J0D01*
G01*
D12*
X10092200Y-2659660D02*
X6815600Y-2659660D01*
X6815600Y-2659660D02*
X6815600Y-4290340D01*
X6815600Y-4290340D02*
X10092200Y-4290340D01*
X10092200Y-4290340D02*
X10092200Y-2659660D01*
X10092200Y-4290340D02*
G75*
G02*
X9317500Y-4430040I-648034J1375760D01*
G01*
X10092200Y-2659660D02*
G75*
G03*
X9317500Y-2519960I-648034J-1375760D01*
G01*
X3679000Y-1951000D02*
X1419000Y-1951000D01*
X1419000Y-1657000D02*
X3679000Y-1657000D01*
X3679000Y-5343000D02*
X1419000Y-5343000D01*
X1419000Y-5049000D02*
X3679000Y-5049000D01*
D13*
X5933700Y-1706740D02*
X6416300Y-1706740D01*
X5933700Y-1041260D02*
X5933700Y-1706740D01*
X6416300Y-1041260D02*
X5933700Y-1041260D01*
X6416300Y-1706740D02*
X6416300Y-1041260D01*
X5980690Y-873620D02*
X5980690Y-1041260D01*
X6115310Y-873620D02*
X5980690Y-873620D01*
X6115310Y-1041260D02*
X6115310Y-873620D01*
X5980690Y-1041260D02*
X6115310Y-1041260D01*
X6234690Y-873620D02*
X6234690Y-1041260D01*
X6369310Y-873620D02*
X6234690Y-873620D01*
X6369310Y-1041260D02*
X6369310Y-873620D01*
X6234690Y-1041260D02*
X6369310Y-1041260D01*
X6369310Y-1874380D02*
X6369310Y-1706740D01*
X6234690Y-1874380D02*
X6369310Y-1874380D01*
X6234690Y-1706740D02*
X6234690Y-1874380D01*
X6369310Y-1706740D02*
X6234690Y-1706740D01*
X6115310Y-1874380D02*
X6115310Y-1706740D01*
X5980690Y-1874380D02*
X6115310Y-1874380D01*
X5980690Y-1706740D02*
X5980690Y-1874380D01*
X6115310Y-1706740D02*
X5980690Y-1706740D01*
X5933700Y-1343520D02*
G75*
G02*
X5933700Y-1404480I0J-30480D01*
G01*
X5587600Y-5945700D02*
X5395800Y-6137500D01*
X5604300Y-5962500D02*
X5412500Y-6154300D01*
X5237600Y-5945700D02*
X5045800Y-6137500D01*
X5254300Y-5962500D02*
X5062500Y-6154300D01*
X4887600Y-5945700D02*
X4695800Y-6137500D01*
X4904300Y-5962500D02*
X4712500Y-6154300D01*
X4537600Y-5945700D02*
X4345700Y-6137500D01*
X4554300Y-5962500D02*
X4362400Y-6154300D01*
X4275000Y-6270000D02*
X5675000Y-6270000D01*
X4275000Y-6270000D02*
X4275000Y-5770000D01*
X4425000Y-6420000D02*
X4275000Y-6270000D01*
X5675000Y-6420000D02*
X4425000Y-6420000D01*
X5675000Y-5770000D02*
X5675000Y-6420000D01*
X4275000Y-5770000D02*
X5675000Y-5770000D01*
X5637500Y-6050000D02*
G75*
G03*
X5637500Y-6050000I-137500J0D01*
G01*
X5287500Y-6050000D02*
G75*
G03*
X5287500Y-6050000I-137500J0D01*
G01*
X4937500Y-6050000D02*
G75*
G03*
X4937500Y-6050000I-137500J0D01*
G01*
X4587500Y-6050000D02*
G75*
G03*
X4587500Y-6050000I-137500J0D01*
G01*
X4262400Y-1004300D02*
X4454200Y-812500D01*
X4245700Y-987500D02*
X4437500Y-795700D01*
X4612400Y-1004300D02*
X4804200Y-812500D01*
X4595700Y-987500D02*
X4787500Y-795700D01*
X4962400Y-1004300D02*
X5154200Y-812500D01*
X4945700Y-987500D02*
X5137500Y-795700D01*
X5312400Y-1004300D02*
X5504300Y-812500D01*
X5295700Y-987500D02*
X5487600Y-795700D01*
X5575000Y-680000D02*
X4175000Y-680000D01*
X5575000Y-680000D02*
X5575000Y-1180000D01*
X5425000Y-530000D02*
X5575000Y-680000D01*
X4175000Y-530000D02*
X5425000Y-530000D01*
X4175000Y-1180000D02*
X4175000Y-530000D01*
X5575000Y-1180000D02*
X4175000Y-1180000D01*
X4487500Y-900000D02*
G75*
G03*
X4487500Y-900000I-137500J0D01*
G01*
X4837500Y-900000D02*
G75*
G03*
X4837500Y-900000I-137500J0D01*
G01*
X5187500Y-900000D02*
G75*
G03*
X5187500Y-900000I-137500J0D01*
G01*
X5537500Y-900000D02*
G75*
G03*
X5537500Y-900000I-137500J0D01*
G01*
X2662400Y-1004300D02*
X2854200Y-812500D01*
X2645700Y-987500D02*
X2837500Y-795700D01*
X3012400Y-1004300D02*
X3204200Y-812500D01*
X2995700Y-987500D02*
X3187500Y-795700D01*
X3362400Y-1004300D02*
X3554300Y-812500D01*
X3345700Y-987500D02*
X3537600Y-795700D01*
X3625000Y-680000D02*
X2575000Y-680000D01*
X3625000Y-680000D02*
X3625000Y-1180000D01*
X3475000Y-530000D02*
X3625000Y-680000D01*
X2575000Y-530000D02*
X3475000Y-530000D01*
X2575000Y-1180000D02*
X2575000Y-530000D01*
X3625000Y-1180000D02*
X2575000Y-1180000D01*
X2887500Y-900000D02*
G75*
G03*
X2887500Y-900000I-137500J0D01*
G01*
X3237500Y-900000D02*
G75*
G03*
X3237500Y-900000I-137500J0D01*
G01*
X3587500Y-900000D02*
G75*
G03*
X3587500Y-900000I-137500J0D01*
G01*
X2473000Y-6250000D02*
X2473000Y-5869000D01*
X3743000Y-5869000D02*
X3743000Y-6377000D01*
X3743000Y-6377000D02*
X2600000Y-6377000D01*
X2600000Y-6377000D02*
X2473000Y-6250000D01*
X4121250Y-5770000D02*
X4038750Y-5770000D01*
X4038750Y-5770000D02*
X4038750Y-5610000D01*
X4038750Y-5610000D02*
X4121250Y-5610000D01*
X4121250Y-5610000D02*
X4121250Y-5770000D01*
X9620000Y-2018750D02*
X9620000Y-2101250D01*
X9620000Y-2101250D02*
X9460000Y-2101250D01*
X9460000Y-2101250D02*
X9460000Y-2018750D01*
X9460000Y-2018750D02*
X9620000Y-2018750D01*
X6290000Y-2091250D02*
X6130000Y-2091250D01*
X6290000Y-2008750D02*
X6290000Y-2091250D01*
X6130000Y-2008750D02*
X6290000Y-2008750D01*
X6130000Y-2091250D02*
X6130000Y-2008750D01*
X6490000Y-3871250D02*
X6490000Y-3788750D01*
X6490000Y-3788750D02*
X6650000Y-3788750D01*
X6650000Y-3788750D02*
X6650000Y-3871250D01*
X6650000Y-3871250D02*
X6490000Y-3871250D01*
X6360000Y-2791250D02*
X6360000Y-2708750D01*
X6360000Y-2708750D02*
X6520000Y-2708750D01*
X6520000Y-2708750D02*
X6520000Y-2791250D01*
X6520000Y-2791250D02*
X6360000Y-2791250D01*
X9460000Y-2280000D02*
X9590000Y-2280000D01*
X9590000Y-2280000D02*
X9620000Y-2250000D01*
X9620000Y-2250000D02*
X9620000Y-2200000D01*
X9620000Y-2200000D02*
X9460000Y-2200000D01*
X9460000Y-2200000D02*
X9460000Y-2280000D01*
X7870000Y-4490000D02*
X7870000Y-4570000D01*
X7870000Y-4570000D02*
X7710000Y-4570000D01*
X7710000Y-4570000D02*
X7710000Y-4490000D01*
X7710000Y-4490000D02*
X7870000Y-4490000D01*
X2390000Y-1380000D02*
X2265000Y-1380000D01*
X2265000Y-1380000D02*
X2265000Y-1180000D01*
X2265000Y-1180000D02*
X2390000Y-1180000D01*
X2390000Y-1180000D02*
X2390000Y-1380000D01*
X2141400Y-1361600D02*
X2061400Y-1361600D01*
X2061400Y-1361600D02*
X2061400Y-1201600D01*
X2061400Y-1201600D02*
X2141400Y-1201600D01*
X2141400Y-1201600D02*
X2141400Y-1361600D01*
D14*
X6481738Y-4467524D02*
X6481738Y-4458000D01*
X6486500Y-4448476D01*
X6491262Y-4443714D01*
X6500786Y-4438952D01*
X6519833Y-4434190D01*
X6543643Y-4434190D01*
X6562690Y-4438952D01*
X6572214Y-4443714D01*
X6576976Y-4448476D01*
X6581738Y-4458000D01*
X6581738Y-4467524D01*
X6576976Y-4477048D01*
X6572214Y-4481810D01*
X6562690Y-4486571D01*
X6543643Y-4491333D01*
X6519833Y-4491333D01*
X6500786Y-4486571D01*
X6491262Y-4481810D01*
X6486500Y-4477048D01*
X6481738Y-4467524D01*
X6524595Y-4377048D02*
X6519833Y-4386571D01*
X6515071Y-4391333D01*
X6505548Y-4396095D01*
X6500786Y-4396095D01*
X6491262Y-4391333D01*
X6486500Y-4386571D01*
X6481738Y-4377048D01*
X6481738Y-4358000D01*
X6486500Y-4348476D01*
X6491262Y-4343714D01*
X6500786Y-4338952D01*
X6505548Y-4338952D01*
X6515071Y-4343714D01*
X6519833Y-4348476D01*
X6524595Y-4358000D01*
X6524595Y-4377048D01*
X6529357Y-4386571D01*
X6534119Y-4391333D01*
X6543643Y-4396095D01*
X6562690Y-4396095D01*
X6572214Y-4391333D01*
X6576976Y-4386571D01*
X6581738Y-4377048D01*
X6581738Y-4358000D01*
X6576976Y-4348476D01*
X6572214Y-4343714D01*
X6562690Y-4338952D01*
X6543643Y-4338952D01*
X6534119Y-4343714D01*
X6529357Y-4348476D01*
X6524595Y-4358000D01*
X6491262Y-4300857D02*
X6486500Y-4296095D01*
X6481738Y-4286571D01*
X6481738Y-4262762D01*
X6486500Y-4253238D01*
X6491262Y-4248476D01*
X6500786Y-4243714D01*
X6510309Y-4243714D01*
X6524595Y-4248476D01*
X6581738Y-4305619D01*
X6581738Y-4243714D01*
X6481738Y-4158000D02*
X6481738Y-4177048D01*
X6486500Y-4186571D01*
X6491262Y-4191333D01*
X6505548Y-4200857D01*
X6524595Y-4205619D01*
X6562690Y-4205619D01*
X6572214Y-4200857D01*
X6576976Y-4196095D01*
X6581738Y-4186571D01*
X6581738Y-4167524D01*
X6576976Y-4158000D01*
X6572214Y-4153238D01*
X6562690Y-4148476D01*
X6538881Y-4148476D01*
X6529357Y-4153238D01*
X6524595Y-4158000D01*
X6519833Y-4167524D01*
X6519833Y-4186571D01*
X6524595Y-4196095D01*
X6529357Y-4200857D01*
X6538881Y-4205619D01*
X6543643Y-4105619D02*
X6543643Y-4029428D01*
X6581738Y-3929428D02*
X6581738Y-3986571D01*
X6581738Y-3958000D02*
X6481738Y-3958000D01*
X6496024Y-3967524D01*
X6505548Y-3977048D01*
X6510309Y-3986571D01*
X6481738Y-3896095D02*
X6581738Y-3829428D01*
X6481738Y-3829428D02*
X6581738Y-3896095D01*
X6581738Y-3738952D02*
X6581738Y-3796095D01*
X6581738Y-3767524D02*
X6481738Y-3767524D01*
X6496024Y-3777048D01*
X6505548Y-3786571D01*
X6510309Y-3796095D01*
X6481738Y-3710381D02*
X6481738Y-3653238D01*
X6581738Y-3681809D02*
X6481738Y-3681809D01*
X6543643Y-3619905D02*
X6543643Y-3543714D01*
X6486500Y-3443714D02*
X6481738Y-3453238D01*
X6481738Y-3467524D01*
X6486500Y-3481809D01*
X6496024Y-3491333D01*
X6505548Y-3496095D01*
X6524595Y-3500857D01*
X6538881Y-3500857D01*
X6557928Y-3496095D01*
X6567452Y-3491333D01*
X6576976Y-3481809D01*
X6581738Y-3467524D01*
X6581738Y-3458000D01*
X6576976Y-3443714D01*
X6572214Y-3438952D01*
X6538881Y-3438952D01*
X6538881Y-3458000D01*
X6581738Y-3396095D02*
X6481738Y-3396095D01*
X6529357Y-3396095D02*
X6529357Y-3338952D01*
X6581738Y-3338952D02*
X6481738Y-3338952D01*
X6543643Y-3291333D02*
X6543643Y-3215143D01*
X6529357Y-3134190D02*
X6529357Y-3167524D01*
X6581738Y-3167524D02*
X6481738Y-3167524D01*
X6481738Y-3119905D01*
X1484285Y-2089828D02*
X1484285Y-2041745D01*
X1495733Y-2041745D01*
X1502602Y-2044035D01*
X1507182Y-2048614D01*
X1509471Y-2053193D01*
X1511761Y-2062352D01*
X1511761Y-2069221D01*
X1509471Y-2078380D01*
X1507182Y-2082959D01*
X1502602Y-2087538D01*
X1495733Y-2089828D01*
X1484285Y-2089828D01*
X1548396Y-2064642D02*
X1532368Y-2064642D01*
X1532368Y-2089828D02*
X1532368Y-2041745D01*
X1555265Y-2041745D01*
X1594189Y-2057773D02*
X1594189Y-2089828D01*
X1582741Y-2039455D02*
X1571292Y-2073800D01*
X1601058Y-2073800D01*
X1628534Y-2041745D02*
X1633113Y-2041745D01*
X1637693Y-2044035D01*
X1639982Y-2046324D01*
X1642272Y-2050904D01*
X1644562Y-2060062D01*
X1644562Y-2071511D01*
X1642272Y-2080669D01*
X1639982Y-2085249D01*
X1637693Y-2087538D01*
X1633113Y-2089828D01*
X1628534Y-2089828D01*
X1623955Y-2087538D01*
X1621665Y-2085249D01*
X1619375Y-2080669D01*
X1617086Y-2071511D01*
X1617086Y-2060062D01*
X1619375Y-2050904D01*
X1621665Y-2046324D01*
X1623955Y-2044035D01*
X1628534Y-2041745D01*
X1665169Y-2089828D02*
X1665169Y-2041745D01*
X1665169Y-2064642D02*
X1692645Y-2064642D01*
X1692645Y-2089828D02*
X1692645Y-2041745D01*
X1743017Y-2085249D02*
X1740728Y-2087538D01*
X1733859Y-2089828D01*
X1729279Y-2089828D01*
X1722410Y-2087538D01*
X1717831Y-2082959D01*
X1715541Y-2078380D01*
X1713252Y-2069221D01*
X1713252Y-2062352D01*
X1715541Y-2053193D01*
X1717831Y-2048614D01*
X1722410Y-2044035D01*
X1729279Y-2041745D01*
X1733859Y-2041745D01*
X1740728Y-2044035D01*
X1743017Y-2046324D01*
X1752176Y-2094407D02*
X1788811Y-2094407D01*
X1795680Y-2041745D02*
X1825445Y-2041745D01*
X1809418Y-2060062D01*
X1816287Y-2060062D01*
X1820866Y-2062352D01*
X1823156Y-2064642D01*
X1825445Y-2069221D01*
X1825445Y-2080669D01*
X1823156Y-2085249D01*
X1820866Y-2087538D01*
X1816287Y-2089828D01*
X1802549Y-2089828D01*
X1797969Y-2087538D01*
X1795680Y-2085249D01*
X1846052Y-2085249D02*
X1848342Y-2087538D01*
X1846052Y-2089828D01*
X1843763Y-2087538D01*
X1846052Y-2085249D01*
X1846052Y-2089828D01*
X1878108Y-2041745D02*
X1882687Y-2041745D01*
X1887266Y-2044035D01*
X1889556Y-2046324D01*
X1891846Y-2050904D01*
X1894135Y-2060062D01*
X1894135Y-2071511D01*
X1891846Y-2080669D01*
X1889556Y-2085249D01*
X1887266Y-2087538D01*
X1882687Y-2089828D01*
X1878108Y-2089828D01*
X1873528Y-2087538D01*
X1871239Y-2085249D01*
X1868949Y-2080669D01*
X1866659Y-2071511D01*
X1866659Y-2060062D01*
X1868949Y-2050904D01*
X1871239Y-2046324D01*
X1873528Y-2044035D01*
X1878108Y-2041745D01*
X1903294Y-2094407D02*
X1939929Y-2094407D01*
X1951377Y-2071511D02*
X1988012Y-2071511D01*
X2036095Y-2089828D02*
X2008619Y-2089828D01*
X2022357Y-2089828D02*
X2022357Y-2041745D01*
X2017777Y-2048614D01*
X2013198Y-2053193D01*
X2008619Y-2055483D01*
X2065860Y-2041745D02*
X2070440Y-2041745D01*
X2075019Y-2044035D01*
X2077309Y-2046324D01*
X2079598Y-2050904D01*
X2081888Y-2060062D01*
X2081888Y-2071511D01*
X2079598Y-2080669D01*
X2077309Y-2085249D01*
X2075019Y-2087538D01*
X2070440Y-2089828D01*
X2065860Y-2089828D01*
X2061281Y-2087538D01*
X2058991Y-2085249D01*
X2056702Y-2080669D01*
X2054412Y-2071511D01*
X2054412Y-2060062D01*
X2056702Y-2050904D01*
X2058991Y-2046324D01*
X2061281Y-2044035D01*
X2065860Y-2041745D01*
X2111654Y-2041745D02*
X2116233Y-2041745D01*
X2120812Y-2044035D01*
X2123102Y-2046324D01*
X2125392Y-2050904D01*
X2127681Y-2060062D01*
X2127681Y-2071511D01*
X2125392Y-2080669D01*
X2123102Y-2085249D01*
X2120812Y-2087538D01*
X2116233Y-2089828D01*
X2111654Y-2089828D01*
X2107074Y-2087538D01*
X2104785Y-2085249D01*
X2102495Y-2080669D01*
X2100205Y-2071511D01*
X2100205Y-2060062D01*
X2102495Y-2050904D01*
X2104785Y-2046324D01*
X2107074Y-2044035D01*
X2111654Y-2041745D01*
X2148288Y-2089828D02*
X2148288Y-2041745D01*
X2159737Y-2041745D01*
X2166606Y-2044035D01*
X2171185Y-2048614D01*
X2173475Y-2053193D01*
X2175764Y-2062352D01*
X2175764Y-2069221D01*
X2173475Y-2078380D01*
X2171185Y-2082959D01*
X2166606Y-2087538D01*
X2159737Y-2089828D01*
X2148288Y-2089828D01*
X2194082Y-2087538D02*
X2200951Y-2089828D01*
X2212399Y-2089828D01*
X2216978Y-2087538D01*
X2219268Y-2085249D01*
X2221558Y-2080669D01*
X2221558Y-2076090D01*
X2219268Y-2071511D01*
X2216978Y-2069221D01*
X2212399Y-2066931D01*
X2203240Y-2064642D01*
X2198661Y-2062352D01*
X2196371Y-2060062D01*
X2194082Y-2055483D01*
X2194082Y-2050904D01*
X2196371Y-2046324D01*
X2198661Y-2044035D01*
X2203240Y-2041745D01*
X2214689Y-2041745D01*
X2221558Y-2044035D01*
X2242165Y-2071511D02*
X2278799Y-2071511D01*
X2310855Y-2041745D02*
X2315434Y-2041745D01*
X2320013Y-2044035D01*
X2322303Y-2046324D01*
X2324593Y-2050904D01*
X2326882Y-2060062D01*
X2326882Y-2071511D01*
X2324593Y-2080669D01*
X2322303Y-2085249D01*
X2320013Y-2087538D01*
X2315434Y-2089828D01*
X2310855Y-2089828D01*
X2306275Y-2087538D01*
X2303986Y-2085249D01*
X2301696Y-2080669D01*
X2299406Y-2071511D01*
X2299406Y-2060062D01*
X2301696Y-2050904D01*
X2303986Y-2046324D01*
X2306275Y-2044035D01*
X2310855Y-2041745D01*
X2347489Y-2085249D02*
X2349779Y-2087538D01*
X2347489Y-2089828D01*
X2345200Y-2087538D01*
X2347489Y-2085249D01*
X2347489Y-2089828D01*
X2390993Y-2057773D02*
X2390993Y-2089828D01*
X2379545Y-2039455D02*
X2368096Y-2073800D01*
X2397862Y-2073800D01*
X2409310Y-2041745D02*
X2425338Y-2089828D01*
X2441366Y-2041745D01*
X2445945Y-2094407D02*
X2482580Y-2094407D01*
X2516925Y-2041745D02*
X2494028Y-2041745D01*
X2491738Y-2064642D01*
X2494028Y-2062352D01*
X2498607Y-2060062D01*
X2510056Y-2060062D01*
X2514635Y-2062352D01*
X2516925Y-2064642D01*
X2519214Y-2069221D01*
X2519214Y-2080669D01*
X2516925Y-2085249D01*
X2514635Y-2087538D01*
X2510056Y-2089828D01*
X2498607Y-2089828D01*
X2494028Y-2087538D01*
X2491738Y-2085249D01*
X2565008Y-2089828D02*
X2537532Y-2089828D01*
X2551270Y-2089828D02*
X2551270Y-2041745D01*
X2546690Y-2048614D01*
X2542111Y-2053193D01*
X2537532Y-2055483D01*
X2574166Y-2094407D02*
X2610801Y-2094407D01*
X2622249Y-2089828D02*
X2622249Y-2041745D01*
X2640567Y-2041745D01*
X2645146Y-2044035D01*
X2647436Y-2046324D01*
X2649725Y-2050904D01*
X2649725Y-2057773D01*
X2647436Y-2062352D01*
X2645146Y-2064642D01*
X2640567Y-2066931D01*
X2622249Y-2066931D01*
X2670332Y-2089828D02*
X2670332Y-2041745D01*
X2697808Y-2089828D01*
X2697808Y-2041745D01*
X2720705Y-2089828D02*
X2720705Y-2041745D01*
X2739022Y-2041745D01*
X2743602Y-2044035D01*
X2745891Y-2046324D01*
X2748181Y-2050904D01*
X2748181Y-2057773D01*
X2745891Y-2062352D01*
X2743602Y-2064642D01*
X2739022Y-2066931D01*
X2720705Y-2066931D01*
X2757340Y-2094407D02*
X2793974Y-2094407D01*
X2814581Y-2041745D02*
X2823740Y-2041745D01*
X2828319Y-2044035D01*
X2832899Y-2048614D01*
X2835188Y-2057773D01*
X2835188Y-2073800D01*
X2832899Y-2082959D01*
X2828319Y-2087538D01*
X2823740Y-2089828D01*
X2814581Y-2089828D01*
X2810002Y-2087538D01*
X2805423Y-2082959D01*
X2803133Y-2073800D01*
X2803133Y-2057773D01*
X2805423Y-2048614D01*
X2810002Y-2044035D01*
X2814581Y-2041745D01*
X2848926Y-2041745D02*
X2864954Y-2089828D01*
X2880982Y-2041745D01*
X2897009Y-2064642D02*
X2913037Y-2064642D01*
X2919906Y-2089828D02*
X2897009Y-2089828D01*
X2897009Y-2041745D01*
X2919906Y-2041745D01*
X2967989Y-2089828D02*
X2951961Y-2066931D01*
X2940513Y-2089828D02*
X2940513Y-2041745D01*
X2958830Y-2041745D01*
X2963410Y-2044035D01*
X2965699Y-2046324D01*
X2967989Y-2050904D01*
X2967989Y-2057773D01*
X2965699Y-2062352D01*
X2963410Y-2064642D01*
X2958830Y-2066931D01*
X2940513Y-2066931D01*
X3011493Y-2089828D02*
X2988596Y-2089828D01*
X2988596Y-2041745D01*
X3025231Y-2076090D02*
X3048127Y-2076090D01*
X3020651Y-2089828D02*
X3036679Y-2041745D01*
X3052707Y-2089828D01*
X3077893Y-2066931D02*
X3077893Y-2089828D01*
X3061865Y-2041745D02*
X3077893Y-2066931D01*
X3093921Y-2041745D01*
X1484285Y-5481828D02*
X1484285Y-5433745D01*
X1495733Y-5433745D01*
X1502602Y-5436035D01*
X1507182Y-5440614D01*
X1509471Y-5445193D01*
X1511761Y-5454352D01*
X1511761Y-5461221D01*
X1509471Y-5470380D01*
X1507182Y-5474959D01*
X1502602Y-5479538D01*
X1495733Y-5481828D01*
X1484285Y-5481828D01*
X1548396Y-5456642D02*
X1532368Y-5456642D01*
X1532368Y-5481828D02*
X1532368Y-5433745D01*
X1555265Y-5433745D01*
X1594189Y-5449773D02*
X1594189Y-5481828D01*
X1582741Y-5431455D02*
X1571292Y-5465800D01*
X1601058Y-5465800D01*
X1628534Y-5433745D02*
X1633113Y-5433745D01*
X1637693Y-5436035D01*
X1639982Y-5438324D01*
X1642272Y-5442904D01*
X1644562Y-5452062D01*
X1644562Y-5463511D01*
X1642272Y-5472669D01*
X1639982Y-5477249D01*
X1637693Y-5479538D01*
X1633113Y-5481828D01*
X1628534Y-5481828D01*
X1623955Y-5479538D01*
X1621665Y-5477249D01*
X1619375Y-5472669D01*
X1617086Y-5463511D01*
X1617086Y-5452062D01*
X1619375Y-5442904D01*
X1621665Y-5438324D01*
X1623955Y-5436035D01*
X1628534Y-5433745D01*
X1665169Y-5481828D02*
X1665169Y-5433745D01*
X1665169Y-5456642D02*
X1692645Y-5456642D01*
X1692645Y-5481828D02*
X1692645Y-5433745D01*
X1743017Y-5477249D02*
X1740728Y-5479538D01*
X1733859Y-5481828D01*
X1729279Y-5481828D01*
X1722410Y-5479538D01*
X1717831Y-5474959D01*
X1715541Y-5470380D01*
X1713252Y-5461221D01*
X1713252Y-5454352D01*
X1715541Y-5445193D01*
X1717831Y-5440614D01*
X1722410Y-5436035D01*
X1729279Y-5433745D01*
X1733859Y-5433745D01*
X1740728Y-5436035D01*
X1743017Y-5438324D01*
X1752176Y-5486407D02*
X1788811Y-5486407D01*
X1795680Y-5433745D02*
X1825445Y-5433745D01*
X1809418Y-5452062D01*
X1816287Y-5452062D01*
X1820866Y-5454352D01*
X1823156Y-5456642D01*
X1825445Y-5461221D01*
X1825445Y-5472669D01*
X1823156Y-5477249D01*
X1820866Y-5479538D01*
X1816287Y-5481828D01*
X1802549Y-5481828D01*
X1797969Y-5479538D01*
X1795680Y-5477249D01*
X1846052Y-5477249D02*
X1848342Y-5479538D01*
X1846052Y-5481828D01*
X1843763Y-5479538D01*
X1846052Y-5477249D01*
X1846052Y-5481828D01*
X1878108Y-5433745D02*
X1882687Y-5433745D01*
X1887266Y-5436035D01*
X1889556Y-5438324D01*
X1891846Y-5442904D01*
X1894135Y-5452062D01*
X1894135Y-5463511D01*
X1891846Y-5472669D01*
X1889556Y-5477249D01*
X1887266Y-5479538D01*
X1882687Y-5481828D01*
X1878108Y-5481828D01*
X1873528Y-5479538D01*
X1871239Y-5477249D01*
X1868949Y-5472669D01*
X1866659Y-5463511D01*
X1866659Y-5452062D01*
X1868949Y-5442904D01*
X1871239Y-5438324D01*
X1873528Y-5436035D01*
X1878108Y-5433745D01*
X1903294Y-5486407D02*
X1939929Y-5486407D01*
X1951377Y-5463511D02*
X1988012Y-5463511D01*
X2036095Y-5481828D02*
X2008619Y-5481828D01*
X2022357Y-5481828D02*
X2022357Y-5433745D01*
X2017777Y-5440614D01*
X2013198Y-5445193D01*
X2008619Y-5447483D01*
X2065860Y-5433745D02*
X2070440Y-5433745D01*
X2075019Y-5436035D01*
X2077309Y-5438324D01*
X2079598Y-5442904D01*
X2081888Y-5452062D01*
X2081888Y-5463511D01*
X2079598Y-5472669D01*
X2077309Y-5477249D01*
X2075019Y-5479538D01*
X2070440Y-5481828D01*
X2065860Y-5481828D01*
X2061281Y-5479538D01*
X2058991Y-5477249D01*
X2056702Y-5472669D01*
X2054412Y-5463511D01*
X2054412Y-5452062D01*
X2056702Y-5442904D01*
X2058991Y-5438324D01*
X2061281Y-5436035D01*
X2065860Y-5433745D01*
X2111654Y-5433745D02*
X2116233Y-5433745D01*
X2120812Y-5436035D01*
X2123102Y-5438324D01*
X2125392Y-5442904D01*
X2127681Y-5452062D01*
X2127681Y-5463511D01*
X2125392Y-5472669D01*
X2123102Y-5477249D01*
X2120812Y-5479538D01*
X2116233Y-5481828D01*
X2111654Y-5481828D01*
X2107074Y-5479538D01*
X2104785Y-5477249D01*
X2102495Y-5472669D01*
X2100205Y-5463511D01*
X2100205Y-5452062D01*
X2102495Y-5442904D01*
X2104785Y-5438324D01*
X2107074Y-5436035D01*
X2111654Y-5433745D01*
X2148288Y-5481828D02*
X2148288Y-5433745D01*
X2159737Y-5433745D01*
X2166606Y-5436035D01*
X2171185Y-5440614D01*
X2173475Y-5445193D01*
X2175764Y-5454352D01*
X2175764Y-5461221D01*
X2173475Y-5470380D01*
X2171185Y-5474959D01*
X2166606Y-5479538D01*
X2159737Y-5481828D01*
X2148288Y-5481828D01*
X2194082Y-5479538D02*
X2200951Y-5481828D01*
X2212399Y-5481828D01*
X2216978Y-5479538D01*
X2219268Y-5477249D01*
X2221558Y-5472669D01*
X2221558Y-5468090D01*
X2219268Y-5463511D01*
X2216978Y-5461221D01*
X2212399Y-5458931D01*
X2203240Y-5456642D01*
X2198661Y-5454352D01*
X2196371Y-5452062D01*
X2194082Y-5447483D01*
X2194082Y-5442904D01*
X2196371Y-5438324D01*
X2198661Y-5436035D01*
X2203240Y-5433745D01*
X2214689Y-5433745D01*
X2221558Y-5436035D01*
X2242165Y-5463511D02*
X2278799Y-5463511D01*
X2310855Y-5433745D02*
X2315434Y-5433745D01*
X2320013Y-5436035D01*
X2322303Y-5438324D01*
X2324593Y-5442904D01*
X2326882Y-5452062D01*
X2326882Y-5463511D01*
X2324593Y-5472669D01*
X2322303Y-5477249D01*
X2320013Y-5479538D01*
X2315434Y-5481828D01*
X2310855Y-5481828D01*
X2306275Y-5479538D01*
X2303986Y-5477249D01*
X2301696Y-5472669D01*
X2299406Y-5463511D01*
X2299406Y-5452062D01*
X2301696Y-5442904D01*
X2303986Y-5438324D01*
X2306275Y-5436035D01*
X2310855Y-5433745D01*
X2347489Y-5477249D02*
X2349779Y-5479538D01*
X2347489Y-5481828D01*
X2345200Y-5479538D01*
X2347489Y-5477249D01*
X2347489Y-5481828D01*
X2390993Y-5449773D02*
X2390993Y-5481828D01*
X2379545Y-5431455D02*
X2368096Y-5465800D01*
X2397862Y-5465800D01*
X2409310Y-5433745D02*
X2425338Y-5481828D01*
X2441366Y-5433745D01*
X2445945Y-5486407D02*
X2482580Y-5486407D01*
X2516925Y-5433745D02*
X2494028Y-5433745D01*
X2491738Y-5456642D01*
X2494028Y-5454352D01*
X2498607Y-5452062D01*
X2510056Y-5452062D01*
X2514635Y-5454352D01*
X2516925Y-5456642D01*
X2519214Y-5461221D01*
X2519214Y-5472669D01*
X2516925Y-5477249D01*
X2514635Y-5479538D01*
X2510056Y-5481828D01*
X2498607Y-5481828D01*
X2494028Y-5479538D01*
X2491738Y-5477249D01*
X2565008Y-5481828D02*
X2537532Y-5481828D01*
X2551270Y-5481828D02*
X2551270Y-5433745D01*
X2546690Y-5440614D01*
X2542111Y-5445193D01*
X2537532Y-5447483D01*
X2574166Y-5486407D02*
X2610801Y-5486407D01*
X2622249Y-5481828D02*
X2622249Y-5433745D01*
X2640567Y-5433745D01*
X2645146Y-5436035D01*
X2647436Y-5438324D01*
X2649725Y-5442904D01*
X2649725Y-5449773D01*
X2647436Y-5454352D01*
X2645146Y-5456642D01*
X2640567Y-5458931D01*
X2622249Y-5458931D01*
X2670332Y-5481828D02*
X2670332Y-5433745D01*
X2697808Y-5481828D01*
X2697808Y-5433745D01*
X2720705Y-5481828D02*
X2720705Y-5433745D01*
X2739022Y-5433745D01*
X2743602Y-5436035D01*
X2745891Y-5438324D01*
X2748181Y-5442904D01*
X2748181Y-5449773D01*
X2745891Y-5454352D01*
X2743602Y-5456642D01*
X2739022Y-5458931D01*
X2720705Y-5458931D01*
X2757340Y-5486407D02*
X2793974Y-5486407D01*
X2814581Y-5433745D02*
X2823740Y-5433745D01*
X2828319Y-5436035D01*
X2832899Y-5440614D01*
X2835188Y-5449773D01*
X2835188Y-5465800D01*
X2832899Y-5474959D01*
X2828319Y-5479538D01*
X2823740Y-5481828D01*
X2814581Y-5481828D01*
X2810002Y-5479538D01*
X2805423Y-5474959D01*
X2803133Y-5465800D01*
X2803133Y-5449773D01*
X2805423Y-5440614D01*
X2810002Y-5436035D01*
X2814581Y-5433745D01*
X2848926Y-5433745D02*
X2864954Y-5481828D01*
X2880982Y-5433745D01*
X2897009Y-5456642D02*
X2913037Y-5456642D01*
X2919906Y-5481828D02*
X2897009Y-5481828D01*
X2897009Y-5433745D01*
X2919906Y-5433745D01*
X2967989Y-5481828D02*
X2951961Y-5458931D01*
X2940513Y-5481828D02*
X2940513Y-5433745D01*
X2958830Y-5433745D01*
X2963410Y-5436035D01*
X2965699Y-5438324D01*
X2967989Y-5442904D01*
X2967989Y-5449773D01*
X2965699Y-5454352D01*
X2963410Y-5456642D01*
X2958830Y-5458931D01*
X2940513Y-5458931D01*
X3011493Y-5481828D02*
X2988596Y-5481828D01*
X2988596Y-5433745D01*
X3025231Y-5468090D02*
X3048127Y-5468090D01*
X3020651Y-5481828D02*
X3036679Y-5433745D01*
X3052707Y-5481828D01*
X3077893Y-5458931D02*
X3077893Y-5481828D01*
X3061865Y-5433745D02*
X3077893Y-5458931D01*
X3093921Y-5433745D01*
D15*
X5886558Y-1668640D02*
X5910368Y-1668640D01*
X5900844Y-1692449D02*
X5910368Y-1668640D01*
X5900844Y-1644830D01*
X5929415Y-1682926D02*
X5910368Y-1668640D01*
X5929415Y-1654354D01*
X5886558Y-1668640D02*
X5910368Y-1668640D01*
X5900844Y-1692449D02*
X5910368Y-1668640D01*
X5900844Y-1644830D01*
X5929415Y-1682926D02*
X5910368Y-1668640D01*
X5929415Y-1654354D01*
X2600381Y-3668238D02*
X2567048Y-3620619D01*
X2543238Y-3668238D02*
X2543238Y-3568238D01*
X2581333Y-3568238D01*
X2590857Y-3573000D01*
X2595619Y-3577762D01*
X2600381Y-3587286D01*
X2600381Y-3601571D01*
X2595619Y-3611095D01*
X2590857Y-3615857D01*
X2581333Y-3620619D01*
X2543238Y-3620619D01*
X2643238Y-3668238D02*
X2643238Y-3568238D01*
X2681333Y-3568238D01*
X2690857Y-3573000D01*
X2695619Y-3577762D01*
X2700381Y-3587286D01*
X2700381Y-3601571D01*
X2695619Y-3611095D01*
X2690857Y-3615857D01*
X2681333Y-3620619D01*
X2643238Y-3620619D01*
X2743238Y-3668238D02*
X2743238Y-3568238D01*
X2833714Y-3601571D02*
X2833714Y-3668238D01*
X2809905Y-3563476D02*
X2786095Y-3634905D01*
X2848000Y-3634905D01*
X2943238Y-3658714D02*
X2938476Y-3663476D01*
X2924190Y-3668238D01*
X2914667Y-3668238D01*
X2900381Y-3663476D01*
X2890857Y-3653952D01*
X2886095Y-3644428D01*
X2881333Y-3625381D01*
X2881333Y-3611095D01*
X2886095Y-3592048D01*
X2890857Y-3582524D01*
X2900381Y-3573000D01*
X2914667Y-3568238D01*
X2924190Y-3568238D01*
X2938476Y-3573000D01*
X2943238Y-3577762D01*
X2986095Y-3668238D02*
X2986095Y-3568238D01*
X3019428Y-3639667D01*
X3052762Y-3568238D01*
X3052762Y-3668238D01*
X4151190Y-6566476D02*
X4165476Y-6571238D01*
X4189286Y-6571238D01*
X4198810Y-6566476D01*
X4203571Y-6561714D01*
X4208333Y-6552190D01*
X4208333Y-6542667D01*
X4203571Y-6533143D01*
X4198810Y-6528381D01*
X4189286Y-6523619D01*
X4170238Y-6518857D01*
X4160714Y-6514095D01*
X4155952Y-6509333D01*
X4151190Y-6499809D01*
X4151190Y-6490286D01*
X4155952Y-6480762D01*
X4160714Y-6476000D01*
X4170238Y-6471238D01*
X4194048Y-6471238D01*
X4208333Y-6476000D01*
X4294048Y-6566476D02*
X4284524Y-6571238D01*
X4265476Y-6571238D01*
X4255952Y-6566476D01*
X4251190Y-6561714D01*
X4246429Y-6552190D01*
X4246429Y-6523619D01*
X4251190Y-6514095D01*
X4255952Y-6509333D01*
X4265476Y-6504571D01*
X4284524Y-6504571D01*
X4294048Y-6509333D01*
X4336905Y-6571238D02*
X4336905Y-6504571D01*
X4336905Y-6523619D02*
X4341667Y-6514095D01*
X4346429Y-6509333D01*
X4355952Y-6504571D01*
X4365476Y-6504571D01*
X4436905Y-6566476D02*
X4427381Y-6571238D01*
X4408333Y-6571238D01*
X4398810Y-6566476D01*
X4394048Y-6556952D01*
X4394048Y-6518857D01*
X4398810Y-6509333D01*
X4408333Y-6504571D01*
X4427381Y-6504571D01*
X4436905Y-6509333D01*
X4441667Y-6518857D01*
X4441667Y-6528381D01*
X4394048Y-6537905D01*
X4475000Y-6504571D02*
X4494048Y-6571238D01*
X4513095Y-6523619D01*
X4532143Y-6571238D01*
X4551190Y-6504571D01*
X4565476Y-6580762D02*
X4641667Y-6580762D01*
X4651190Y-6471238D02*
X4708333Y-6471238D01*
X4679762Y-6571238D02*
X4679762Y-6471238D01*
X4779762Y-6566476D02*
X4770238Y-6571238D01*
X4751190Y-6571238D01*
X4741667Y-6566476D01*
X4736905Y-6556952D01*
X4736905Y-6518857D01*
X4741667Y-6509333D01*
X4751190Y-6504571D01*
X4770238Y-6504571D01*
X4779762Y-6509333D01*
X4784524Y-6518857D01*
X4784524Y-6528381D01*
X4736905Y-6537905D01*
X4827381Y-6571238D02*
X4827381Y-6504571D01*
X4827381Y-6523619D02*
X4832143Y-6514095D01*
X4836905Y-6509333D01*
X4846429Y-6504571D01*
X4855952Y-6504571D01*
X4889286Y-6571238D02*
X4889286Y-6504571D01*
X4889286Y-6514095D02*
X4894048Y-6509333D01*
X4903571Y-6504571D01*
X4917857Y-6504571D01*
X4927381Y-6509333D01*
X4932143Y-6518857D01*
X4932143Y-6571238D01*
X4932143Y-6518857D02*
X4936905Y-6509333D01*
X4946429Y-6504571D01*
X4960714Y-6504571D01*
X4970238Y-6509333D01*
X4975000Y-6518857D01*
X4975000Y-6571238D01*
X5022619Y-6571238D02*
X5022619Y-6504571D01*
X5022619Y-6471238D02*
X5017857Y-6476000D01*
X5022619Y-6480762D01*
X5027381Y-6476000D01*
X5022619Y-6471238D01*
X5022619Y-6480762D01*
X5070238Y-6504571D02*
X5070238Y-6571238D01*
X5070238Y-6514095D02*
X5075000Y-6509333D01*
X5084524Y-6504571D01*
X5098810Y-6504571D01*
X5108333Y-6509333D01*
X5113095Y-6518857D01*
X5113095Y-6571238D01*
X5203571Y-6571238D02*
X5203571Y-6518857D01*
X5198810Y-6509333D01*
X5189286Y-6504571D01*
X5170238Y-6504571D01*
X5160714Y-6509333D01*
X5203571Y-6566476D02*
X5194048Y-6571238D01*
X5170238Y-6571238D01*
X5160714Y-6566476D01*
X5155952Y-6556952D01*
X5155952Y-6547428D01*
X5160714Y-6537905D01*
X5170238Y-6533143D01*
X5194048Y-6533143D01*
X5203571Y-6528381D01*
X5265476Y-6571238D02*
X5255952Y-6566476D01*
X5251190Y-6556952D01*
X5251190Y-6471238D01*
X5279762Y-6580762D02*
X5355952Y-6580762D01*
X5398810Y-6471238D02*
X5408333Y-6471238D01*
X5417857Y-6476000D01*
X5422619Y-6480762D01*
X5427381Y-6490286D01*
X5432143Y-6509333D01*
X5432143Y-6533143D01*
X5427381Y-6552190D01*
X5422619Y-6561714D01*
X5417857Y-6566476D01*
X5408333Y-6571238D01*
X5398810Y-6571238D01*
X5389286Y-6566476D01*
X5384524Y-6561714D01*
X5379762Y-6552190D01*
X5375000Y-6533143D01*
X5375000Y-6509333D01*
X5379762Y-6490286D01*
X5384524Y-6480762D01*
X5389286Y-6476000D01*
X5398810Y-6471238D01*
X5527381Y-6571238D02*
X5470238Y-6571238D01*
X5498810Y-6571238D02*
X5498810Y-6471238D01*
X5489286Y-6485524D01*
X5479762Y-6495048D01*
X5470238Y-6499809D01*
X5560714Y-6571238D02*
X5613095Y-6504571D01*
X5560714Y-6504571D02*
X5613095Y-6571238D01*
X5670238Y-6471238D02*
X5679762Y-6471238D01*
X5689286Y-6476000D01*
X5694048Y-6480762D01*
X5698809Y-6490286D01*
X5703571Y-6509333D01*
X5703571Y-6533143D01*
X5698809Y-6552190D01*
X5694048Y-6561714D01*
X5689286Y-6566476D01*
X5679762Y-6571238D01*
X5670238Y-6571238D01*
X5660714Y-6566476D01*
X5655952Y-6561714D01*
X5651190Y-6552190D01*
X5646428Y-6533143D01*
X5646428Y-6509333D01*
X5651190Y-6490286D01*
X5655952Y-6480762D01*
X5660714Y-6476000D01*
X5670238Y-6471238D01*
X5789286Y-6504571D02*
X5789286Y-6571238D01*
X5765476Y-6466476D02*
X5741667Y-6537905D01*
X5803571Y-6537905D01*
X4941667Y-6290238D02*
X4941667Y-6361667D01*
X4936905Y-6375952D01*
X4927381Y-6385476D01*
X4913095Y-6390238D01*
X4903571Y-6390238D01*
X4994048Y-6390238D02*
X5013095Y-6390238D01*
X5022619Y-6385476D01*
X5027381Y-6380714D01*
X5036905Y-6366428D01*
X5041667Y-6347381D01*
X5041667Y-6309286D01*
X5036905Y-6299762D01*
X5032143Y-6295000D01*
X5022619Y-6290238D01*
X5003571Y-6290238D01*
X4994048Y-6295000D01*
X4989286Y-6299762D01*
X4984524Y-6309286D01*
X4984524Y-6333095D01*
X4989286Y-6342619D01*
X4994048Y-6347381D01*
X5003571Y-6352143D01*
X5022619Y-6352143D01*
X5032143Y-6347381D01*
X5036905Y-6342619D01*
X5041667Y-6333095D01*
X4051190Y-464476D02*
X4065476Y-469238D01*
X4089286Y-469238D01*
X4098809Y-464476D01*
X4103571Y-459714D01*
X4108333Y-450190D01*
X4108333Y-440667D01*
X4103571Y-431143D01*
X4098809Y-426381D01*
X4089286Y-421619D01*
X4070238Y-416857D01*
X4060714Y-412095D01*
X4055952Y-407333D01*
X4051190Y-397809D01*
X4051190Y-388286D01*
X4055952Y-378762D01*
X4060714Y-374000D01*
X4070238Y-369238D01*
X4094048Y-369238D01*
X4108333Y-374000D01*
X4194048Y-464476D02*
X4184524Y-469238D01*
X4165476Y-469238D01*
X4155952Y-464476D01*
X4151190Y-459714D01*
X4146428Y-450190D01*
X4146428Y-421619D01*
X4151190Y-412095D01*
X4155952Y-407333D01*
X4165476Y-402571D01*
X4184524Y-402571D01*
X4194048Y-407333D01*
X4236905Y-469238D02*
X4236905Y-402571D01*
X4236905Y-421619D02*
X4241667Y-412095D01*
X4246429Y-407333D01*
X4255952Y-402571D01*
X4265476Y-402571D01*
X4336905Y-464476D02*
X4327381Y-469238D01*
X4308333Y-469238D01*
X4298810Y-464476D01*
X4294048Y-454952D01*
X4294048Y-416857D01*
X4298810Y-407333D01*
X4308333Y-402571D01*
X4327381Y-402571D01*
X4336905Y-407333D01*
X4341667Y-416857D01*
X4341667Y-426381D01*
X4294048Y-435905D01*
X4375000Y-402571D02*
X4394048Y-469238D01*
X4413095Y-421619D01*
X4432143Y-469238D01*
X4451190Y-402571D01*
X4465476Y-478762D02*
X4541667Y-478762D01*
X4551190Y-369238D02*
X4608333Y-369238D01*
X4579762Y-469238D02*
X4579762Y-369238D01*
X4679762Y-464476D02*
X4670238Y-469238D01*
X4651190Y-469238D01*
X4641667Y-464476D01*
X4636905Y-454952D01*
X4636905Y-416857D01*
X4641667Y-407333D01*
X4651190Y-402571D01*
X4670238Y-402571D01*
X4679762Y-407333D01*
X4684524Y-416857D01*
X4684524Y-426381D01*
X4636905Y-435905D01*
X4727381Y-469238D02*
X4727381Y-402571D01*
X4727381Y-421619D02*
X4732143Y-412095D01*
X4736905Y-407333D01*
X4746429Y-402571D01*
X4755952Y-402571D01*
X4789286Y-469238D02*
X4789286Y-402571D01*
X4789286Y-412095D02*
X4794048Y-407333D01*
X4803571Y-402571D01*
X4817857Y-402571D01*
X4827381Y-407333D01*
X4832143Y-416857D01*
X4832143Y-469238D01*
X4832143Y-416857D02*
X4836905Y-407333D01*
X4846429Y-402571D01*
X4860714Y-402571D01*
X4870238Y-407333D01*
X4875000Y-416857D01*
X4875000Y-469238D01*
X4922619Y-469238D02*
X4922619Y-402571D01*
X4922619Y-369238D02*
X4917857Y-374000D01*
X4922619Y-378762D01*
X4927381Y-374000D01*
X4922619Y-369238D01*
X4922619Y-378762D01*
X4970238Y-402571D02*
X4970238Y-469238D01*
X4970238Y-412095D02*
X4975000Y-407333D01*
X4984524Y-402571D01*
X4998810Y-402571D01*
X5008333Y-407333D01*
X5013095Y-416857D01*
X5013095Y-469238D01*
X5103571Y-469238D02*
X5103571Y-416857D01*
X5098810Y-407333D01*
X5089286Y-402571D01*
X5070238Y-402571D01*
X5060714Y-407333D01*
X5103571Y-464476D02*
X5094048Y-469238D01*
X5070238Y-469238D01*
X5060714Y-464476D01*
X5055952Y-454952D01*
X5055952Y-445428D01*
X5060714Y-435905D01*
X5070238Y-431143D01*
X5094048Y-431143D01*
X5103571Y-426381D01*
X5165476Y-469238D02*
X5155952Y-464476D01*
X5151190Y-454952D01*
X5151190Y-369238D01*
X5179762Y-478762D02*
X5255952Y-478762D01*
X5298810Y-369238D02*
X5308333Y-369238D01*
X5317857Y-374000D01*
X5322619Y-378762D01*
X5327381Y-388286D01*
X5332143Y-407333D01*
X5332143Y-431143D01*
X5327381Y-450190D01*
X5322619Y-459714D01*
X5317857Y-464476D01*
X5308333Y-469238D01*
X5298810Y-469238D01*
X5289286Y-464476D01*
X5284524Y-459714D01*
X5279762Y-450190D01*
X5275000Y-431143D01*
X5275000Y-407333D01*
X5279762Y-388286D01*
X5284524Y-378762D01*
X5289286Y-374000D01*
X5298810Y-369238D01*
X5427381Y-469238D02*
X5370238Y-469238D01*
X5398810Y-469238D02*
X5398810Y-369238D01*
X5389286Y-383524D01*
X5379762Y-393048D01*
X5370238Y-397809D01*
X5460714Y-469238D02*
X5513095Y-402571D01*
X5460714Y-402571D02*
X5513095Y-469238D01*
X5570238Y-369238D02*
X5579762Y-369238D01*
X5589286Y-374000D01*
X5594048Y-378762D01*
X5598809Y-388286D01*
X5603571Y-407333D01*
X5603571Y-431143D01*
X5598809Y-450190D01*
X5594048Y-459714D01*
X5589286Y-464476D01*
X5579762Y-469238D01*
X5570238Y-469238D01*
X5560714Y-464476D01*
X5555952Y-459714D01*
X5551190Y-450190D01*
X5546429Y-431143D01*
X5546429Y-407333D01*
X5551190Y-388286D01*
X5555952Y-378762D01*
X5560714Y-374000D01*
X5570238Y-369238D01*
X5689286Y-402571D02*
X5689286Y-469238D01*
X5665476Y-364476D02*
X5641667Y-435905D01*
X5703571Y-435905D01*
X4841667Y-550238D02*
X4841667Y-621667D01*
X4836905Y-635952D01*
X4827381Y-645476D01*
X4813095Y-650238D01*
X4803571Y-650238D01*
X4884524Y-559762D02*
X4889286Y-555000D01*
X4898810Y-550238D01*
X4922619Y-550238D01*
X4932143Y-555000D01*
X4936905Y-559762D01*
X4941667Y-569286D01*
X4941667Y-578810D01*
X4936905Y-593095D01*
X4879762Y-650238D01*
X4941667Y-650238D01*
X2276190Y-464476D02*
X2290476Y-469238D01*
X2314286Y-469238D01*
X2323810Y-464476D01*
X2328571Y-459714D01*
X2333333Y-450190D01*
X2333333Y-440667D01*
X2328571Y-431143D01*
X2323810Y-426381D01*
X2314286Y-421619D01*
X2295238Y-416857D01*
X2285714Y-412095D01*
X2280952Y-407333D01*
X2276190Y-397809D01*
X2276190Y-388286D01*
X2280952Y-378762D01*
X2285714Y-374000D01*
X2295238Y-369238D01*
X2319048Y-369238D01*
X2333333Y-374000D01*
X2419048Y-464476D02*
X2409524Y-469238D01*
X2390476Y-469238D01*
X2380952Y-464476D01*
X2376190Y-459714D01*
X2371429Y-450190D01*
X2371429Y-421619D01*
X2376190Y-412095D01*
X2380952Y-407333D01*
X2390476Y-402571D01*
X2409524Y-402571D01*
X2419048Y-407333D01*
X2461905Y-469238D02*
X2461905Y-402571D01*
X2461905Y-421619D02*
X2466667Y-412095D01*
X2471429Y-407333D01*
X2480952Y-402571D01*
X2490476Y-402571D01*
X2561905Y-464476D02*
X2552381Y-469238D01*
X2533333Y-469238D01*
X2523810Y-464476D01*
X2519048Y-454952D01*
X2519048Y-416857D01*
X2523810Y-407333D01*
X2533333Y-402571D01*
X2552381Y-402571D01*
X2561905Y-407333D01*
X2566667Y-416857D01*
X2566667Y-426381D01*
X2519048Y-435905D01*
X2600000Y-402571D02*
X2619048Y-469238D01*
X2638095Y-421619D01*
X2657143Y-469238D01*
X2676190Y-402571D01*
X2690476Y-478762D02*
X2766667Y-478762D01*
X2776190Y-369238D02*
X2833333Y-369238D01*
X2804762Y-469238D02*
X2804762Y-369238D01*
X2904762Y-464476D02*
X2895238Y-469238D01*
X2876190Y-469238D01*
X2866667Y-464476D01*
X2861905Y-454952D01*
X2861905Y-416857D01*
X2866667Y-407333D01*
X2876190Y-402571D01*
X2895238Y-402571D01*
X2904762Y-407333D01*
X2909524Y-416857D01*
X2909524Y-426381D01*
X2861905Y-435905D01*
X2952381Y-469238D02*
X2952381Y-402571D01*
X2952381Y-421619D02*
X2957143Y-412095D01*
X2961905Y-407333D01*
X2971428Y-402571D01*
X2980952Y-402571D01*
X3014286Y-469238D02*
X3014286Y-402571D01*
X3014286Y-412095D02*
X3019048Y-407333D01*
X3028571Y-402571D01*
X3042857Y-402571D01*
X3052381Y-407333D01*
X3057143Y-416857D01*
X3057143Y-469238D01*
X3057143Y-416857D02*
X3061905Y-407333D01*
X3071428Y-402571D01*
X3085714Y-402571D01*
X3095238Y-407333D01*
X3100000Y-416857D01*
X3100000Y-469238D01*
X3147619Y-469238D02*
X3147619Y-402571D01*
X3147619Y-369238D02*
X3142857Y-374000D01*
X3147619Y-378762D01*
X3152381Y-374000D01*
X3147619Y-369238D01*
X3147619Y-378762D01*
X3195238Y-402571D02*
X3195238Y-469238D01*
X3195238Y-412095D02*
X3200000Y-407333D01*
X3209524Y-402571D01*
X3223809Y-402571D01*
X3233333Y-407333D01*
X3238095Y-416857D01*
X3238095Y-469238D01*
X3328571Y-469238D02*
X3328571Y-416857D01*
X3323809Y-407333D01*
X3314286Y-402571D01*
X3295238Y-402571D01*
X3285714Y-407333D01*
X3328571Y-464476D02*
X3319048Y-469238D01*
X3295238Y-469238D01*
X3285714Y-464476D01*
X3280952Y-454952D01*
X3280952Y-445428D01*
X3285714Y-435905D01*
X3295238Y-431143D01*
X3319048Y-431143D01*
X3328571Y-426381D01*
X3390476Y-469238D02*
X3380952Y-464476D01*
X3376190Y-454952D01*
X3376190Y-369238D01*
X3404762Y-478762D02*
X3480952Y-478762D01*
X3523809Y-369238D02*
X3533333Y-369238D01*
X3542857Y-374000D01*
X3547619Y-378762D01*
X3552381Y-388286D01*
X3557143Y-407333D01*
X3557143Y-431143D01*
X3552381Y-450190D01*
X3547619Y-459714D01*
X3542857Y-464476D01*
X3533333Y-469238D01*
X3523809Y-469238D01*
X3514286Y-464476D01*
X3509524Y-459714D01*
X3504762Y-450190D01*
X3500000Y-431143D01*
X3500000Y-407333D01*
X3504762Y-388286D01*
X3509524Y-378762D01*
X3514286Y-374000D01*
X3523809Y-369238D01*
X3652381Y-469238D02*
X3595238Y-469238D01*
X3623809Y-469238D02*
X3623809Y-369238D01*
X3614286Y-383524D01*
X3604762Y-393048D01*
X3595238Y-397809D01*
X3685714Y-469238D02*
X3738095Y-402571D01*
X3685714Y-402571D02*
X3738095Y-469238D01*
X3795238Y-369238D02*
X3804762Y-369238D01*
X3814286Y-374000D01*
X3819048Y-378762D01*
X3823809Y-388286D01*
X3828571Y-407333D01*
X3828571Y-431143D01*
X3823809Y-450190D01*
X3819048Y-459714D01*
X3814286Y-464476D01*
X3804762Y-469238D01*
X3795238Y-469238D01*
X3785714Y-464476D01*
X3780952Y-459714D01*
X3776190Y-450190D01*
X3771428Y-431143D01*
X3771428Y-407333D01*
X3776190Y-388286D01*
X3780952Y-378762D01*
X3785714Y-374000D01*
X3795238Y-369238D01*
X3861905Y-369238D02*
X3923809Y-369238D01*
X3890476Y-407333D01*
X3904762Y-407333D01*
X3914286Y-412095D01*
X3919048Y-416857D01*
X3923809Y-426381D01*
X3923809Y-450190D01*
X3919048Y-459714D01*
X3914286Y-464476D01*
X3904762Y-469238D01*
X3876190Y-469238D01*
X3866667Y-464476D01*
X3861905Y-459714D01*
X3066667Y-550238D02*
X3066667Y-621667D01*
X3061905Y-635952D01*
X3052381Y-645476D01*
X3038095Y-650238D01*
X3028571Y-650238D01*
X3157143Y-583571D02*
X3157143Y-650238D01*
X3133333Y-545476D02*
X3109524Y-616905D01*
X3171428Y-616905D01*
X8581429Y-7075238D02*
X8581429Y-6975238D01*
X8614762Y-7046667D01*
X8648095Y-6975238D01*
X8648095Y-7075238D01*
X8710000Y-7075238D02*
X8700476Y-7070476D01*
X8695714Y-7065714D01*
X8690952Y-7056190D01*
X8690952Y-7027619D01*
X8695714Y-7018095D01*
X8700476Y-7013333D01*
X8710000Y-7008571D01*
X8724286Y-7008571D01*
X8733810Y-7013333D01*
X8738571Y-7018095D01*
X8743333Y-7027619D01*
X8743333Y-7056190D01*
X8738571Y-7065714D01*
X8733810Y-7070476D01*
X8724286Y-7075238D01*
X8710000Y-7075238D01*
X8829048Y-7008571D02*
X8829048Y-7075238D01*
X8786190Y-7008571D02*
X8786190Y-7060952D01*
X8790952Y-7070476D01*
X8800476Y-7075238D01*
X8814762Y-7075238D01*
X8824286Y-7070476D01*
X8829048Y-7065714D01*
X8876667Y-7008571D02*
X8876667Y-7075238D01*
X8876667Y-7018095D02*
X8881429Y-7013333D01*
X8890952Y-7008571D01*
X8905238Y-7008571D01*
X8914762Y-7013333D01*
X8919524Y-7022857D01*
X8919524Y-7075238D01*
X8952857Y-7008571D02*
X8990952Y-7008571D01*
X8967143Y-6975238D02*
X8967143Y-7060952D01*
X8971905Y-7070476D01*
X8981429Y-7075238D01*
X8990952Y-7075238D01*
X9024286Y-7075238D02*
X9024286Y-7008571D01*
X9024286Y-6975238D02*
X9019524Y-6980000D01*
X9024286Y-6984762D01*
X9029048Y-6980000D01*
X9024286Y-6975238D01*
X9024286Y-6984762D01*
X9071905Y-7008571D02*
X9071905Y-7075238D01*
X9071905Y-7018095D02*
X9076667Y-7013333D01*
X9086190Y-7008571D01*
X9100476Y-7008571D01*
X9110000Y-7013333D01*
X9114762Y-7022857D01*
X9114762Y-7075238D01*
X9205238Y-7008571D02*
X9205238Y-7089524D01*
X9200476Y-7099048D01*
X9195714Y-7103809D01*
X9186190Y-7108571D01*
X9171905Y-7108571D01*
X9162381Y-7103809D01*
X9205238Y-7070476D02*
X9195714Y-7075238D01*
X9176667Y-7075238D01*
X9167143Y-7070476D01*
X9162381Y-7065714D01*
X9157619Y-7056190D01*
X9157619Y-7027619D01*
X9162381Y-7018095D01*
X9167143Y-7013333D01*
X9176667Y-7008571D01*
X9195714Y-7008571D01*
X9205238Y-7013333D01*
X9252857Y-7075238D02*
X9252857Y-6975238D01*
X9252857Y-7022857D02*
X9310000Y-7022857D01*
X9310000Y-7075238D02*
X9310000Y-6975238D01*
X9371905Y-7075238D02*
X9362381Y-7070476D01*
X9357619Y-7065714D01*
X9352857Y-7056190D01*
X9352857Y-7027619D01*
X9357619Y-7018095D01*
X9362381Y-7013333D01*
X9371905Y-7008571D01*
X9386190Y-7008571D01*
X9395714Y-7013333D01*
X9400476Y-7018095D01*
X9405238Y-7027619D01*
X9405238Y-7056190D01*
X9400476Y-7065714D01*
X9395714Y-7070476D01*
X9386190Y-7075238D01*
X9371905Y-7075238D01*
X9462381Y-7075238D02*
X9452857Y-7070476D01*
X9448095Y-7060952D01*
X9448095Y-6975238D01*
X9538571Y-7070476D02*
X9529048Y-7075238D01*
X9510000Y-7075238D01*
X9500476Y-7070476D01*
X9495714Y-7060952D01*
X9495714Y-7022857D01*
X9500476Y-7013333D01*
X9510000Y-7008571D01*
X9529048Y-7008571D01*
X9538571Y-7013333D01*
X9543333Y-7022857D01*
X9543333Y-7032381D01*
X9495714Y-7041905D01*
X9013810Y-6695238D02*
X9013810Y-6595238D01*
X9013810Y-6642857D02*
X9070952Y-6642857D01*
X9070952Y-6695238D02*
X9070952Y-6595238D01*
X9161429Y-6628571D02*
X9161429Y-6695238D01*
X9137619Y-6590476D02*
X9113810Y-6661905D01*
X9175714Y-6661905D01*
X921428Y-7075238D02*
X921428Y-6975238D01*
X954762Y-7046667D01*
X988095Y-6975238D01*
X988095Y-7075238D01*
X1050000Y-7075238D02*
X1040476Y-7070476D01*
X1035714Y-7065714D01*
X1030952Y-7056190D01*
X1030952Y-7027619D01*
X1035714Y-7018095D01*
X1040476Y-7013333D01*
X1050000Y-7008571D01*
X1064286Y-7008571D01*
X1073810Y-7013333D01*
X1078571Y-7018095D01*
X1083333Y-7027619D01*
X1083333Y-7056190D01*
X1078571Y-7065714D01*
X1073810Y-7070476D01*
X1064286Y-7075238D01*
X1050000Y-7075238D01*
X1169048Y-7008571D02*
X1169048Y-7075238D01*
X1126190Y-7008571D02*
X1126190Y-7060952D01*
X1130952Y-7070476D01*
X1140476Y-7075238D01*
X1154762Y-7075238D01*
X1164286Y-7070476D01*
X1169048Y-7065714D01*
X1216667Y-7008571D02*
X1216667Y-7075238D01*
X1216667Y-7018095D02*
X1221429Y-7013333D01*
X1230952Y-7008571D01*
X1245238Y-7008571D01*
X1254762Y-7013333D01*
X1259524Y-7022857D01*
X1259524Y-7075238D01*
X1292857Y-7008571D02*
X1330952Y-7008571D01*
X1307143Y-6975238D02*
X1307143Y-7060952D01*
X1311905Y-7070476D01*
X1321429Y-7075238D01*
X1330952Y-7075238D01*
X1364286Y-7075238D02*
X1364286Y-7008571D01*
X1364286Y-6975238D02*
X1359524Y-6980000D01*
X1364286Y-6984762D01*
X1369048Y-6980000D01*
X1364286Y-6975238D01*
X1364286Y-6984762D01*
X1411905Y-7008571D02*
X1411905Y-7075238D01*
X1411905Y-7018095D02*
X1416667Y-7013333D01*
X1426190Y-7008571D01*
X1440476Y-7008571D01*
X1450000Y-7013333D01*
X1454762Y-7022857D01*
X1454762Y-7075238D01*
X1545238Y-7008571D02*
X1545238Y-7089524D01*
X1540476Y-7099048D01*
X1535714Y-7103809D01*
X1526190Y-7108571D01*
X1511905Y-7108571D01*
X1502381Y-7103809D01*
X1545238Y-7070476D02*
X1535714Y-7075238D01*
X1516667Y-7075238D01*
X1507143Y-7070476D01*
X1502381Y-7065714D01*
X1497619Y-7056190D01*
X1497619Y-7027619D01*
X1502381Y-7018095D01*
X1507143Y-7013333D01*
X1516667Y-7008571D01*
X1535714Y-7008571D01*
X1545238Y-7013333D01*
X1592857Y-7075238D02*
X1592857Y-6975238D01*
X1592857Y-7022857D02*
X1650000Y-7022857D01*
X1650000Y-7075238D02*
X1650000Y-6975238D01*
X1711905Y-7075238D02*
X1702381Y-7070476D01*
X1697619Y-7065714D01*
X1692857Y-7056190D01*
X1692857Y-7027619D01*
X1697619Y-7018095D01*
X1702381Y-7013333D01*
X1711905Y-7008571D01*
X1726190Y-7008571D01*
X1735714Y-7013333D01*
X1740476Y-7018095D01*
X1745238Y-7027619D01*
X1745238Y-7056190D01*
X1740476Y-7065714D01*
X1735714Y-7070476D01*
X1726190Y-7075238D01*
X1711905Y-7075238D01*
X1802381Y-7075238D02*
X1792857Y-7070476D01*
X1788095Y-7060952D01*
X1788095Y-6975238D01*
X1878571Y-7070476D02*
X1869048Y-7075238D01*
X1850000Y-7075238D01*
X1840476Y-7070476D01*
X1835714Y-7060952D01*
X1835714Y-7022857D01*
X1840476Y-7013333D01*
X1850000Y-7008571D01*
X1869048Y-7008571D01*
X1878571Y-7013333D01*
X1883333Y-7022857D01*
X1883333Y-7032381D01*
X1835714Y-7041905D01*
X1353810Y-6695238D02*
X1353810Y-6595238D01*
X1353810Y-6642857D02*
X1410952Y-6642857D01*
X1410952Y-6695238D02*
X1410952Y-6595238D01*
X1449048Y-6595238D02*
X1510952Y-6595238D01*
X1477619Y-6633333D01*
X1491905Y-6633333D01*
X1501428Y-6638095D01*
X1506190Y-6642857D01*
X1510952Y-6652381D01*
X1510952Y-6676190D01*
X1506190Y-6685714D01*
X1501428Y-6690476D01*
X1491905Y-6695238D01*
X1463333Y-6695238D01*
X1453809Y-6690476D01*
X1449048Y-6685714D01*
X921428Y-725238D02*
X921428Y-625238D01*
X954762Y-696667D01*
X988095Y-625238D01*
X988095Y-725238D01*
X1050000Y-725238D02*
X1040476Y-720476D01*
X1035714Y-715714D01*
X1030952Y-706190D01*
X1030952Y-677619D01*
X1035714Y-668095D01*
X1040476Y-663333D01*
X1050000Y-658571D01*
X1064286Y-658571D01*
X1073810Y-663333D01*
X1078571Y-668095D01*
X1083333Y-677619D01*
X1083333Y-706190D01*
X1078571Y-715714D01*
X1073810Y-720476D01*
X1064286Y-725238D01*
X1050000Y-725238D01*
X1169048Y-658571D02*
X1169048Y-725238D01*
X1126190Y-658571D02*
X1126190Y-710952D01*
X1130952Y-720476D01*
X1140476Y-725238D01*
X1154762Y-725238D01*
X1164286Y-720476D01*
X1169048Y-715714D01*
X1216667Y-658571D02*
X1216667Y-725238D01*
X1216667Y-668095D02*
X1221429Y-663333D01*
X1230952Y-658571D01*
X1245238Y-658571D01*
X1254762Y-663333D01*
X1259524Y-672857D01*
X1259524Y-725238D01*
X1292857Y-658571D02*
X1330952Y-658571D01*
X1307143Y-625238D02*
X1307143Y-710952D01*
X1311905Y-720476D01*
X1321429Y-725238D01*
X1330952Y-725238D01*
X1364286Y-725238D02*
X1364286Y-658571D01*
X1364286Y-625238D02*
X1359524Y-630000D01*
X1364286Y-634762D01*
X1369048Y-630000D01*
X1364286Y-625238D01*
X1364286Y-634762D01*
X1411905Y-658571D02*
X1411905Y-725238D01*
X1411905Y-668095D02*
X1416667Y-663333D01*
X1426190Y-658571D01*
X1440476Y-658571D01*
X1450000Y-663333D01*
X1454762Y-672857D01*
X1454762Y-725238D01*
X1545238Y-658571D02*
X1545238Y-739524D01*
X1540476Y-749048D01*
X1535714Y-753809D01*
X1526190Y-758571D01*
X1511905Y-758571D01*
X1502381Y-753809D01*
X1545238Y-720476D02*
X1535714Y-725238D01*
X1516667Y-725238D01*
X1507143Y-720476D01*
X1502381Y-715714D01*
X1497619Y-706190D01*
X1497619Y-677619D01*
X1502381Y-668095D01*
X1507143Y-663333D01*
X1516667Y-658571D01*
X1535714Y-658571D01*
X1545238Y-663333D01*
X1592857Y-725238D02*
X1592857Y-625238D01*
X1592857Y-672857D02*
X1650000Y-672857D01*
X1650000Y-725238D02*
X1650000Y-625238D01*
X1711905Y-725238D02*
X1702381Y-720476D01*
X1697619Y-715714D01*
X1692857Y-706190D01*
X1692857Y-677619D01*
X1697619Y-668095D01*
X1702381Y-663333D01*
X1711905Y-658571D01*
X1726190Y-658571D01*
X1735714Y-663333D01*
X1740476Y-668095D01*
X1745238Y-677619D01*
X1745238Y-706190D01*
X1740476Y-715714D01*
X1735714Y-720476D01*
X1726190Y-725238D01*
X1711905Y-725238D01*
X1802381Y-725238D02*
X1792857Y-720476D01*
X1788095Y-710952D01*
X1788095Y-625238D01*
X1878571Y-720476D02*
X1869048Y-725238D01*
X1850000Y-725238D01*
X1840476Y-720476D01*
X1835714Y-710952D01*
X1835714Y-672857D01*
X1840476Y-663333D01*
X1850000Y-658571D01*
X1869048Y-658571D01*
X1878571Y-663333D01*
X1883333Y-672857D01*
X1883333Y-682381D01*
X1835714Y-691905D01*
X1353810Y-345238D02*
X1353810Y-245238D01*
X1353810Y-292857D02*
X1410952Y-292857D01*
X1410952Y-345238D02*
X1410952Y-245238D01*
X1453809Y-254762D02*
X1458571Y-250000D01*
X1468095Y-245238D01*
X1491905Y-245238D01*
X1501428Y-250000D01*
X1506190Y-254762D01*
X1510952Y-264286D01*
X1510952Y-273810D01*
X1506190Y-288095D01*
X1449048Y-345238D01*
X1510952Y-345238D01*
X8581429Y-725238D02*
X8581429Y-625238D01*
X8614762Y-696667D01*
X8648095Y-625238D01*
X8648095Y-725238D01*
X8710000Y-725238D02*
X8700476Y-720476D01*
X8695714Y-715714D01*
X8690952Y-706190D01*
X8690952Y-677619D01*
X8695714Y-668095D01*
X8700476Y-663333D01*
X8710000Y-658571D01*
X8724286Y-658571D01*
X8733810Y-663333D01*
X8738571Y-668095D01*
X8743333Y-677619D01*
X8743333Y-706190D01*
X8738571Y-715714D01*
X8733810Y-720476D01*
X8724286Y-725238D01*
X8710000Y-725238D01*
X8829048Y-658571D02*
X8829048Y-725238D01*
X8786190Y-658571D02*
X8786190Y-710952D01*
X8790952Y-720476D01*
X8800476Y-725238D01*
X8814762Y-725238D01*
X8824286Y-720476D01*
X8829048Y-715714D01*
X8876667Y-658571D02*
X8876667Y-725238D01*
X8876667Y-668095D02*
X8881429Y-663333D01*
X8890952Y-658571D01*
X8905238Y-658571D01*
X8914762Y-663333D01*
X8919524Y-672857D01*
X8919524Y-725238D01*
X8952857Y-658571D02*
X8990952Y-658571D01*
X8967143Y-625238D02*
X8967143Y-710952D01*
X8971905Y-720476D01*
X8981429Y-725238D01*
X8990952Y-725238D01*
X9024286Y-725238D02*
X9024286Y-658571D01*
X9024286Y-625238D02*
X9019524Y-630000D01*
X9024286Y-634762D01*
X9029048Y-630000D01*
X9024286Y-625238D01*
X9024286Y-634762D01*
X9071905Y-658571D02*
X9071905Y-725238D01*
X9071905Y-668095D02*
X9076667Y-663333D01*
X9086190Y-658571D01*
X9100476Y-658571D01*
X9110000Y-663333D01*
X9114762Y-672857D01*
X9114762Y-725238D01*
X9205238Y-658571D02*
X9205238Y-739524D01*
X9200476Y-749048D01*
X9195714Y-753809D01*
X9186190Y-758571D01*
X9171905Y-758571D01*
X9162381Y-753809D01*
X9205238Y-720476D02*
X9195714Y-725238D01*
X9176667Y-725238D01*
X9167143Y-720476D01*
X9162381Y-715714D01*
X9157619Y-706190D01*
X9157619Y-677619D01*
X9162381Y-668095D01*
X9167143Y-663333D01*
X9176667Y-658571D01*
X9195714Y-658571D01*
X9205238Y-663333D01*
X9252857Y-725238D02*
X9252857Y-625238D01*
X9252857Y-672857D02*
X9310000Y-672857D01*
X9310000Y-725238D02*
X9310000Y-625238D01*
X9371905Y-725238D02*
X9362381Y-720476D01*
X9357619Y-715714D01*
X9352857Y-706190D01*
X9352857Y-677619D01*
X9357619Y-668095D01*
X9362381Y-663333D01*
X9371905Y-658571D01*
X9386190Y-658571D01*
X9395714Y-663333D01*
X9400476Y-668095D01*
X9405238Y-677619D01*
X9405238Y-706190D01*
X9400476Y-715714D01*
X9395714Y-720476D01*
X9386190Y-725238D01*
X9371905Y-725238D01*
X9462381Y-725238D02*
X9452857Y-720476D01*
X9448095Y-710952D01*
X9448095Y-625238D01*
X9538571Y-720476D02*
X9529048Y-725238D01*
X9510000Y-725238D01*
X9500476Y-720476D01*
X9495714Y-710952D01*
X9495714Y-672857D01*
X9500476Y-663333D01*
X9510000Y-658571D01*
X9529048Y-658571D01*
X9538571Y-663333D01*
X9543333Y-672857D01*
X9543333Y-682381D01*
X9495714Y-691905D01*
X9013810Y-345238D02*
X9013810Y-245238D01*
X9013810Y-292857D02*
X9070952Y-292857D01*
X9070952Y-345238D02*
X9070952Y-245238D01*
X9170952Y-345238D02*
X9113810Y-345238D01*
X9142381Y-345238D02*
X9142381Y-245238D01*
X9132857Y-259524D01*
X9123333Y-269048D01*
X9113810Y-273810D01*
X3884714Y-6887286D02*
X3889476Y-6892048D01*
X3894238Y-6906333D01*
X3894238Y-6915857D01*
X3889476Y-6930143D01*
X3879952Y-6939667D01*
X3870428Y-6944428D01*
X3851381Y-6949190D01*
X3837095Y-6949190D01*
X3818048Y-6944428D01*
X3808524Y-6939667D01*
X3799000Y-6930143D01*
X3794238Y-6915857D01*
X3794238Y-6906333D01*
X3799000Y-6892048D01*
X3803762Y-6887286D01*
X3894238Y-6830143D02*
X3889476Y-6839667D01*
X3884714Y-6844428D01*
X3875190Y-6849190D01*
X3846619Y-6849190D01*
X3837095Y-6844428D01*
X3832333Y-6839667D01*
X3827571Y-6830143D01*
X3827571Y-6815857D01*
X3832333Y-6806333D01*
X3837095Y-6801571D01*
X3846619Y-6796809D01*
X3875190Y-6796809D01*
X3884714Y-6801571D01*
X3889476Y-6806333D01*
X3894238Y-6815857D01*
X3894238Y-6830143D01*
X3827571Y-6753952D02*
X3894238Y-6753952D01*
X3837095Y-6753952D02*
X3832333Y-6749190D01*
X3827571Y-6739667D01*
X3827571Y-6725381D01*
X3832333Y-6715857D01*
X3841857Y-6711095D01*
X3894238Y-6711095D01*
X3827571Y-6663476D02*
X3894238Y-6663476D01*
X3837095Y-6663476D02*
X3832333Y-6658714D01*
X3827571Y-6649190D01*
X3827571Y-6634905D01*
X3832333Y-6625381D01*
X3841857Y-6620619D01*
X3894238Y-6620619D01*
X3903762Y-6596809D02*
X3903762Y-6520619D01*
X3794238Y-6477762D02*
X3794238Y-6468238D01*
X3799000Y-6458714D01*
X3803762Y-6453952D01*
X3813286Y-6449190D01*
X3832333Y-6444428D01*
X3856143Y-6444428D01*
X3875190Y-6449190D01*
X3884714Y-6453952D01*
X3889476Y-6458714D01*
X3894238Y-6468238D01*
X3894238Y-6477762D01*
X3889476Y-6487286D01*
X3884714Y-6492048D01*
X3875190Y-6496809D01*
X3856143Y-6501571D01*
X3832333Y-6501571D01*
X3813286Y-6496809D01*
X3803762Y-6492048D01*
X3799000Y-6487286D01*
X3794238Y-6477762D01*
X3803762Y-6406333D02*
X3799000Y-6401571D01*
X3794238Y-6392048D01*
X3794238Y-6368238D01*
X3799000Y-6358714D01*
X3803762Y-6353952D01*
X3813286Y-6349190D01*
X3822809Y-6349190D01*
X3837095Y-6353952D01*
X3894238Y-6411095D01*
X3894238Y-6349190D01*
X3894238Y-6315857D02*
X3827571Y-6263476D01*
X3827571Y-6315857D02*
X3894238Y-6263476D01*
X3794238Y-6206333D02*
X3794238Y-6196809D01*
X3799000Y-6187286D01*
X3803762Y-6182524D01*
X3813286Y-6177762D01*
X3832333Y-6173000D01*
X3856143Y-6173000D01*
X3875190Y-6177762D01*
X3884714Y-6182524D01*
X3889476Y-6187286D01*
X3894238Y-6196809D01*
X3894238Y-6206333D01*
X3889476Y-6215857D01*
X3884714Y-6220619D01*
X3875190Y-6225381D01*
X3856143Y-6230143D01*
X3832333Y-6230143D01*
X3813286Y-6225381D01*
X3803762Y-6220619D01*
X3799000Y-6215857D01*
X3794238Y-6206333D01*
X3794238Y-6082524D02*
X3794238Y-6130143D01*
X3841857Y-6134905D01*
X3837095Y-6130143D01*
X3832333Y-6120619D01*
X3832333Y-6096809D01*
X3837095Y-6087286D01*
X3841857Y-6082524D01*
X3851381Y-6077762D01*
X3875190Y-6077762D01*
X3884714Y-6082524D01*
X3889476Y-6087286D01*
X3894238Y-6096809D01*
X3894238Y-6120619D01*
X3889476Y-6130143D01*
X3884714Y-6134905D01*
X3903762Y-6058714D02*
X3903762Y-5982524D01*
X3794238Y-5939667D02*
X3794238Y-5920619D01*
X3799000Y-5911095D01*
X3808524Y-5901571D01*
X3827571Y-5896809D01*
X3860905Y-5896809D01*
X3879952Y-5901571D01*
X3889476Y-5911095D01*
X3894238Y-5920619D01*
X3894238Y-5939667D01*
X3889476Y-5949190D01*
X3879952Y-5958714D01*
X3860905Y-5963476D01*
X3827571Y-5963476D01*
X3808524Y-5958714D01*
X3799000Y-5949190D01*
X3794238Y-5939667D01*
X3894238Y-5811095D02*
X3794238Y-5811095D01*
X3889476Y-5811095D02*
X3894238Y-5820619D01*
X3894238Y-5839667D01*
X3889476Y-5849190D01*
X3884714Y-5853952D01*
X3875190Y-5858714D01*
X3846619Y-5858714D01*
X3837095Y-5853952D01*
X3832333Y-5849190D01*
X3827571Y-5839667D01*
X3827571Y-5820619D01*
X3832333Y-5811095D01*
X3894238Y-5720619D02*
X3794238Y-5720619D01*
X3889476Y-5720619D02*
X3894238Y-5730143D01*
X3894238Y-5749190D01*
X3889476Y-5758714D01*
X3884714Y-5763476D01*
X3875190Y-5768238D01*
X3846619Y-5768238D01*
X3837095Y-5763476D01*
X3832333Y-5758714D01*
X3827571Y-5749190D01*
X3827571Y-5730143D01*
X3832333Y-5720619D01*
X3903762Y-5696809D02*
X3903762Y-5620619D01*
X3841857Y-5596809D02*
X3841857Y-5563476D01*
X3894238Y-5549190D02*
X3894238Y-5596809D01*
X3794238Y-5596809D01*
X3794238Y-5549190D01*
X3827571Y-5515857D02*
X3894238Y-5492048D01*
X3827571Y-5468238D01*
X3889476Y-5392048D02*
X3894238Y-5401571D01*
X3894238Y-5420619D01*
X3889476Y-5430143D01*
X3879952Y-5434905D01*
X3841857Y-5434905D01*
X3832333Y-5430143D01*
X3827571Y-5420619D01*
X3827571Y-5401571D01*
X3832333Y-5392048D01*
X3841857Y-5387286D01*
X3851381Y-5387286D01*
X3860905Y-5434905D01*
X3827571Y-5344429D02*
X3894238Y-5344429D01*
X3837095Y-5344429D02*
X3832333Y-5339667D01*
X3827571Y-5330143D01*
X3827571Y-5315857D01*
X3832333Y-5306333D01*
X3841857Y-5301571D01*
X3894238Y-5301571D01*
X3074667Y-6068238D02*
X3074667Y-6139667D01*
X3069905Y-6153952D01*
X3060381Y-6163476D01*
X3046095Y-6168238D01*
X3036571Y-6168238D01*
X3174667Y-6168238D02*
X3117524Y-6168238D01*
X3146095Y-6168238D02*
X3146095Y-6068238D01*
X3136571Y-6082524D01*
X3127048Y-6092048D01*
X3117524Y-6096809D01*
X4268238Y-5818571D02*
X4168238Y-5818571D01*
X4168238Y-5794762D01*
X4173000Y-5780476D01*
X4182524Y-5770952D01*
X4192048Y-5766190D01*
X4211095Y-5761428D01*
X4225381Y-5761428D01*
X4244429Y-5766190D01*
X4253952Y-5770952D01*
X4263476Y-5780476D01*
X4268238Y-5794762D01*
X4268238Y-5818571D01*
X4268238Y-5718571D02*
X4168238Y-5718571D01*
X4268238Y-5661428D01*
X4168238Y-5661428D01*
X4268238Y-5613809D02*
X4168238Y-5613809D01*
X4168238Y-5575714D01*
X4173000Y-5566190D01*
X4177762Y-5561429D01*
X4187286Y-5556667D01*
X4201571Y-5556667D01*
X4211095Y-5561429D01*
X4215857Y-5566190D01*
X4220619Y-5575714D01*
X4220619Y-5613809D01*
D16*
X4098095Y-5696667D02*
X4079048Y-5710000D01*
X4098095Y-5719524D02*
X4058095Y-5719524D01*
X4058095Y-5704286D01*
X4060000Y-5700476D01*
X4061905Y-5698571D01*
X4065714Y-5696667D01*
X4071428Y-5696667D01*
X4075238Y-5698571D01*
X4077143Y-5700476D01*
X4079048Y-5704286D01*
X4079048Y-5719524D01*
X4058095Y-5660476D02*
X4058095Y-5679524D01*
X4077143Y-5681428D01*
X4075238Y-5679524D01*
X4073333Y-5675714D01*
X4073333Y-5666190D01*
X4075238Y-5662381D01*
X4077143Y-5660476D01*
X4080952Y-5658571D01*
X4090476Y-5658571D01*
X4094286Y-5660476D01*
X4096190Y-5662381D01*
X4098095Y-5666190D01*
X4098095Y-5675714D01*
X4096190Y-5679524D01*
X4094286Y-5681428D01*
D15*
X9463810Y-1895571D02*
X9463810Y-1962238D01*
X9440000Y-1857476D02*
X9416190Y-1928905D01*
X9478095Y-1928905D01*
X9506667Y-1862238D02*
X9573333Y-1862238D01*
X9530476Y-1962238D01*
X9630476Y-1862238D02*
X9640000Y-1862238D01*
X9649524Y-1867000D01*
X9654286Y-1871762D01*
X9659048Y-1881286D01*
X9663810Y-1900333D01*
X9663810Y-1924143D01*
X9659048Y-1943190D01*
X9654286Y-1952714D01*
X9649524Y-1957476D01*
X9640000Y-1962238D01*
X9630476Y-1962238D01*
X9620952Y-1957476D01*
X9616190Y-1952714D01*
X9611429Y-1943190D01*
X9606667Y-1924143D01*
X9606667Y-1900333D01*
X9611429Y-1881286D01*
X9616190Y-1871762D01*
X9620952Y-1867000D01*
X9630476Y-1862238D01*
D16*
X9533333Y-2078095D02*
X9520000Y-2059048D01*
X9510476Y-2078095D02*
X9510476Y-2038095D01*
X9525714Y-2038095D01*
X9529524Y-2040000D01*
X9531429Y-2041905D01*
X9533333Y-2045714D01*
X9533333Y-2051428D01*
X9531429Y-2055238D01*
X9529524Y-2057143D01*
X9525714Y-2059048D01*
X9510476Y-2059048D01*
X9567619Y-2051428D02*
X9567619Y-2078095D01*
X9558095Y-2036190D02*
X9548571Y-2064762D01*
X9573333Y-2064762D01*
D15*
X6133809Y-2171571D02*
X6133809Y-2238238D01*
X6110000Y-2133476D02*
X6086190Y-2204905D01*
X6148095Y-2204905D01*
X6176667Y-2138238D02*
X6243333Y-2138238D01*
X6200476Y-2238238D01*
X6300476Y-2138238D02*
X6310000Y-2138238D01*
X6319524Y-2143000D01*
X6324286Y-2147762D01*
X6329048Y-2157286D01*
X6333809Y-2176333D01*
X6333809Y-2200143D01*
X6329048Y-2219190D01*
X6324286Y-2228714D01*
X6319524Y-2233476D01*
X6310000Y-2238238D01*
X6300476Y-2238238D01*
X6290952Y-2233476D01*
X6286190Y-2228714D01*
X6281428Y-2219190D01*
X6276667Y-2200143D01*
X6276667Y-2176333D01*
X6281428Y-2157286D01*
X6286190Y-2147762D01*
X6290952Y-2143000D01*
X6300476Y-2138238D01*
D16*
X6203333Y-2068095D02*
X6190000Y-2049048D01*
X6180476Y-2068095D02*
X6180476Y-2028095D01*
X6195714Y-2028095D01*
X6199524Y-2030000D01*
X6201428Y-2031905D01*
X6203333Y-2035714D01*
X6203333Y-2041428D01*
X6201428Y-2045238D01*
X6199524Y-2047143D01*
X6195714Y-2049048D01*
X6180476Y-2049048D01*
X6216667Y-2028095D02*
X6241428Y-2028095D01*
X6228095Y-2043333D01*
X6233809Y-2043333D01*
X6237619Y-2045238D01*
X6239524Y-2047143D01*
X6241428Y-2050952D01*
X6241428Y-2060476D01*
X6239524Y-2064286D01*
X6237619Y-2066190D01*
X6233809Y-2068095D01*
X6222381Y-2068095D01*
X6218571Y-2066190D01*
X6216667Y-2064286D01*
D15*
X6493809Y-3951571D02*
X6493809Y-4018238D01*
X6470000Y-3913476D02*
X6446190Y-3984905D01*
X6508095Y-3984905D01*
X6536667Y-3918238D02*
X6603333Y-3918238D01*
X6560476Y-4018238D01*
X6660476Y-3918238D02*
X6670000Y-3918238D01*
X6679524Y-3923000D01*
X6684286Y-3927762D01*
X6689048Y-3937286D01*
X6693809Y-3956333D01*
X6693809Y-3980143D01*
X6689048Y-3999190D01*
X6684286Y-4008714D01*
X6679524Y-4013476D01*
X6670000Y-4018238D01*
X6660476Y-4018238D01*
X6650952Y-4013476D01*
X6646190Y-4008714D01*
X6641428Y-3999190D01*
X6636667Y-3980143D01*
X6636667Y-3956333D01*
X6641428Y-3937286D01*
X6646190Y-3927762D01*
X6650952Y-3923000D01*
X6660476Y-3918238D01*
D16*
X6563333Y-3848095D02*
X6550000Y-3829048D01*
X6540476Y-3848095D02*
X6540476Y-3808095D01*
X6555714Y-3808095D01*
X6559524Y-3810000D01*
X6561428Y-3811905D01*
X6563333Y-3815714D01*
X6563333Y-3821428D01*
X6561428Y-3825238D01*
X6559524Y-3827143D01*
X6555714Y-3829048D01*
X6540476Y-3829048D01*
X6578571Y-3811905D02*
X6580476Y-3810000D01*
X6584286Y-3808095D01*
X6593809Y-3808095D01*
X6597619Y-3810000D01*
X6599524Y-3811905D01*
X6601428Y-3815714D01*
X6601428Y-3819524D01*
X6599524Y-3825238D01*
X6576667Y-3848095D01*
X6601428Y-3848095D01*
D15*
X6363809Y-2871571D02*
X6363809Y-2938238D01*
X6340000Y-2833476D02*
X6316190Y-2904905D01*
X6378095Y-2904905D01*
X6406667Y-2838238D02*
X6473333Y-2838238D01*
X6430476Y-2938238D01*
X6530476Y-2838238D02*
X6540000Y-2838238D01*
X6549524Y-2843000D01*
X6554286Y-2847762D01*
X6559048Y-2857286D01*
X6563809Y-2876333D01*
X6563809Y-2900143D01*
X6559048Y-2919190D01*
X6554286Y-2928714D01*
X6549524Y-2933476D01*
X6540000Y-2938238D01*
X6530476Y-2938238D01*
X6520952Y-2933476D01*
X6516190Y-2928714D01*
X6511428Y-2919190D01*
X6506667Y-2900143D01*
X6506667Y-2876333D01*
X6511428Y-2857286D01*
X6516190Y-2847762D01*
X6520952Y-2843000D01*
X6530476Y-2838238D01*
D16*
X6433333Y-2768095D02*
X6420000Y-2749048D01*
X6410476Y-2768095D02*
X6410476Y-2728095D01*
X6425714Y-2728095D01*
X6429524Y-2730000D01*
X6431428Y-2731905D01*
X6433333Y-2735714D01*
X6433333Y-2741429D01*
X6431428Y-2745238D01*
X6429524Y-2747143D01*
X6425714Y-2749048D01*
X6410476Y-2749048D01*
X6471428Y-2768095D02*
X6448571Y-2768095D01*
X6460000Y-2768095D02*
X6460000Y-2728095D01*
X6456190Y-2733810D01*
X6452381Y-2737619D01*
X6448571Y-2739524D01*
D15*
X9475714Y-2142238D02*
X9428095Y-2142238D01*
X9428095Y-2042238D01*
X9509048Y-2089857D02*
X9542381Y-2089857D01*
X9556667Y-2142238D02*
X9509048Y-2142238D01*
X9509048Y-2042238D01*
X9556667Y-2042238D01*
X9599524Y-2142238D02*
X9599524Y-2042238D01*
X9623333Y-2042238D01*
X9637619Y-2047000D01*
X9647143Y-2056524D01*
X9651905Y-2066048D01*
X9656667Y-2085095D01*
X9656667Y-2099381D01*
X9651905Y-2118429D01*
X9647143Y-2127952D01*
X9637619Y-2137476D01*
X9623333Y-2142238D01*
X9599524Y-2142238D01*
D16*
X9510476Y-2258095D02*
X9510476Y-2218095D01*
X9520000Y-2218095D01*
X9525714Y-2220000D01*
X9529524Y-2223810D01*
X9531429Y-2227619D01*
X9533333Y-2235238D01*
X9533333Y-2240952D01*
X9531429Y-2248571D01*
X9529524Y-2252381D01*
X9525714Y-2256190D01*
X9520000Y-2258095D01*
X9510476Y-2258095D01*
X9571429Y-2258095D02*
X9548571Y-2258095D01*
X9560000Y-2258095D02*
X9560000Y-2218095D01*
X9556190Y-2223810D01*
X9552381Y-2227619D01*
X9548571Y-2229524D01*
D15*
X7678095Y-4432238D02*
X7620952Y-4432238D01*
X7649524Y-4432238D02*
X7649524Y-4332238D01*
X7640000Y-4346524D01*
X7630476Y-4356048D01*
X7620952Y-4360810D01*
X7740000Y-4332238D02*
X7749524Y-4332238D01*
X7759048Y-4337000D01*
X7763809Y-4341762D01*
X7768571Y-4351286D01*
X7773333Y-4370333D01*
X7773333Y-4394143D01*
X7768571Y-4413190D01*
X7763809Y-4422714D01*
X7759048Y-4427476D01*
X7749524Y-4432238D01*
X7740000Y-4432238D01*
X7730476Y-4427476D01*
X7725714Y-4422714D01*
X7720952Y-4413190D01*
X7716190Y-4394143D01*
X7716190Y-4370333D01*
X7720952Y-4351286D01*
X7725714Y-4341762D01*
X7730476Y-4337000D01*
X7740000Y-4332238D01*
X7835238Y-4332238D02*
X7844762Y-4332238D01*
X7854286Y-4337000D01*
X7859048Y-4341762D01*
X7863809Y-4351286D01*
X7868571Y-4370333D01*
X7868571Y-4394143D01*
X7863809Y-4413190D01*
X7859048Y-4422714D01*
X7854286Y-4427476D01*
X7844762Y-4432238D01*
X7835238Y-4432238D01*
X7825714Y-4427476D01*
X7820952Y-4422714D01*
X7816190Y-4413190D01*
X7811428Y-4394143D01*
X7811428Y-4370333D01*
X7816190Y-4351286D01*
X7820952Y-4341762D01*
X7825714Y-4337000D01*
X7835238Y-4332238D01*
X7911428Y-4365571D02*
X7911428Y-4432238D01*
X7911428Y-4375095D02*
X7916190Y-4370333D01*
X7925714Y-4365571D01*
X7940000Y-4365571D01*
X7949524Y-4370333D01*
X7954286Y-4379857D01*
X7954286Y-4432238D01*
D16*
X7783333Y-4544286D02*
X7781428Y-4546190D01*
X7775714Y-4548095D01*
X7771905Y-4548095D01*
X7766190Y-4546190D01*
X7762381Y-4542381D01*
X7760476Y-4538571D01*
X7758571Y-4530952D01*
X7758571Y-4525238D01*
X7760476Y-4517619D01*
X7762381Y-4513810D01*
X7766190Y-4510000D01*
X7771905Y-4508095D01*
X7775714Y-4508095D01*
X7781428Y-4510000D01*
X7783333Y-4511905D01*
X7796667Y-4508095D02*
X7821428Y-4508095D01*
X7808095Y-4523333D01*
X7813809Y-4523333D01*
X7817619Y-4525238D01*
X7819524Y-4527143D01*
X7821428Y-4530952D01*
X7821428Y-4540476D01*
X7819524Y-4544286D01*
X7817619Y-4546190D01*
X7813809Y-4548095D01*
X7802381Y-4548095D01*
X7798571Y-4546190D01*
X7796667Y-4544286D01*
D15*
X2531214Y-1249048D02*
X2535976Y-1253810D01*
X2540738Y-1268095D01*
X2540738Y-1277619D01*
X2535976Y-1291905D01*
X2526452Y-1301429D01*
X2516929Y-1306190D01*
X2497881Y-1310952D01*
X2483595Y-1310952D01*
X2464548Y-1306190D01*
X2455024Y-1301429D01*
X2445500Y-1291905D01*
X2440738Y-1277619D01*
X2440738Y-1268095D01*
X2445500Y-1253810D01*
X2450262Y-1249048D01*
D17*
X2345357Y-1288333D02*
X2347738Y-1290714D01*
X2350119Y-1297857D01*
X2350119Y-1302619D01*
X2347738Y-1309762D01*
X2342976Y-1314524D01*
X2338214Y-1316905D01*
X2328690Y-1319286D01*
X2321548Y-1319286D01*
X2312024Y-1316905D01*
X2307262Y-1314524D01*
X2302500Y-1309762D01*
X2300119Y-1302619D01*
X2300119Y-1297857D01*
X2302500Y-1290714D01*
X2304881Y-1288333D01*
X2304881Y-1269286D02*
X2302500Y-1266905D01*
X2300119Y-1262143D01*
X2300119Y-1250238D01*
X2302500Y-1245476D01*
X2304881Y-1243095D01*
X2309643Y-1240714D01*
X2314405Y-1240714D01*
X2321548Y-1243095D01*
X2350119Y-1271667D01*
X2350119Y-1240714D01*
D15*
X2280114Y-1250648D02*
X2284876Y-1255410D01*
X2289638Y-1269695D01*
X2289638Y-1279219D01*
X2284876Y-1293505D01*
X2275352Y-1303029D01*
X2265829Y-1307790D01*
X2246781Y-1312552D01*
X2232495Y-1312552D01*
X2213448Y-1307790D01*
X2203924Y-1303029D01*
X2194400Y-1293505D01*
X2189638Y-1279219D01*
X2189638Y-1269695D01*
X2194400Y-1255410D01*
X2199162Y-1250648D01*
D16*
X2115686Y-1288267D02*
X2117590Y-1290171D01*
X2119495Y-1295886D01*
X2119495Y-1299695D01*
X2117590Y-1305410D01*
X2113781Y-1309219D01*
X2109971Y-1311124D01*
X2102352Y-1313029D01*
X2096638Y-1313029D01*
X2089019Y-1311124D01*
X2085209Y-1309219D01*
X2081400Y-1305410D01*
X2079495Y-1299695D01*
X2079495Y-1295886D01*
X2081400Y-1290171D01*
X2083305Y-1288267D01*
X2119495Y-1250171D02*
X2119495Y-1273029D01*
X2119495Y-1261600D02*
X2079495Y-1261600D01*
X2085209Y-1265410D01*
X2089019Y-1269219D01*
X2090924Y-1273029D01*
M02*
