%TF.GenerationSoftware,KiCad,Pcbnew,5.1.10*%
%TF.CreationDate,2021-07-27T11:18:45+02:00*%
%TF.ProjectId,lxbmc,6c78626d-632e-46b6-9963-61645f706362,rev?*%
%TF.SameCoordinates,Original*%
%TF.FileFunction,Other,Fab,Bot*%
%FSLAX45Y45*%
G04 Gerber Fmt 4.5, Leading zero omitted, Abs format (unit mm)*
G04 Created by KiCad (PCBNEW 5.1.10) date 2021-07-27 11:18:45*
%MOMM*%
%LPD*%
G01*
G04 APERTURE LIST*
%TA.AperFunction,Profile*%
%ADD10C,0.200000*%
%TD*%
%ADD11C,0.200000*%
%ADD12C,0.254000*%
G04 APERTURE END LIST*
D10*
X300000Y-6950000D02*
G75*
G02*
X0Y-6650000I0J300000D01*
G01*
X0Y-300000D02*
G75*
G02*
X300000Y0I300000J0D01*
G01*
X10000000Y-6650000D02*
G75*
G02*
X9700000Y-6950000I-300000J0D01*
G01*
X9700000Y0D02*
G75*
G02*
X10000000Y-300000I0J-300000D01*
G01*
X300000Y0D02*
X9700000Y0D01*
X0Y-6650000D02*
X0Y-300000D01*
X10000000Y-300000D02*
X10000000Y-6650000D01*
X9700000Y-6950000D02*
X300000Y-6950000D01*
D11*
X8635000Y-5758000D02*
X8635000Y-6908000D01*
X9485000Y-5758000D02*
X8635000Y-5758000D01*
X9485000Y-6908000D02*
X9485000Y-5758000D01*
X8635000Y-6908000D02*
X9485000Y-6908000D01*
X9485000Y-1192000D02*
X9485000Y-42000D01*
X8635000Y-1192000D02*
X9485000Y-1192000D01*
X8635000Y-42000D02*
X8635000Y-1192000D01*
X9485000Y-42000D02*
X8635000Y-42000D01*
X975000Y-5758000D02*
X975000Y-6908000D01*
X1825000Y-5758000D02*
X975000Y-5758000D01*
X1825000Y-6908000D02*
X1825000Y-5758000D01*
X975000Y-6908000D02*
X1825000Y-6908000D01*
X1825000Y-1192000D02*
X1825000Y-42000D01*
X975000Y-1192000D02*
X1825000Y-1192000D01*
X975000Y-42000D02*
X975000Y-1192000D01*
X1825000Y-42000D02*
X975000Y-42000D01*
D12*
X9102333Y-6263252D02*
X9102333Y-6353967D01*
X9108381Y-6372109D01*
X9120476Y-6384205D01*
X9138619Y-6390252D01*
X9150714Y-6390252D01*
X9023714Y-6317681D02*
X9035810Y-6311633D01*
X9041857Y-6305586D01*
X9047905Y-6293490D01*
X9047905Y-6287443D01*
X9041857Y-6275348D01*
X9035810Y-6269300D01*
X9023714Y-6263252D01*
X8999524Y-6263252D01*
X8987429Y-6269300D01*
X8981381Y-6275348D01*
X8975333Y-6287443D01*
X8975333Y-6293490D01*
X8981381Y-6305586D01*
X8987429Y-6311633D01*
X8999524Y-6317681D01*
X9023714Y-6317681D01*
X9035810Y-6323728D01*
X9041857Y-6329776D01*
X9047905Y-6341871D01*
X9047905Y-6366062D01*
X9041857Y-6378157D01*
X9035810Y-6384205D01*
X9023714Y-6390252D01*
X8999524Y-6390252D01*
X8987429Y-6384205D01*
X8981381Y-6378157D01*
X8975333Y-6366062D01*
X8975333Y-6341871D01*
X8981381Y-6329776D01*
X8987429Y-6323728D01*
X8999524Y-6317681D01*
X9102333Y-547652D02*
X9102333Y-638367D01*
X9108381Y-656510D01*
X9120476Y-668605D01*
X9138619Y-674652D01*
X9150714Y-674652D01*
X9053952Y-547652D02*
X8969286Y-547652D01*
X9023714Y-674652D01*
X1442333Y-6263252D02*
X1442333Y-6353967D01*
X1448381Y-6372109D01*
X1460476Y-6384205D01*
X1478619Y-6390252D01*
X1490714Y-6390252D01*
X1327429Y-6263252D02*
X1351619Y-6263252D01*
X1363714Y-6269300D01*
X1369762Y-6275348D01*
X1381857Y-6293490D01*
X1387905Y-6317681D01*
X1387905Y-6366062D01*
X1381857Y-6378157D01*
X1375810Y-6384205D01*
X1363714Y-6390252D01*
X1339524Y-6390252D01*
X1327429Y-6384205D01*
X1321381Y-6378157D01*
X1315333Y-6366062D01*
X1315333Y-6335824D01*
X1321381Y-6323728D01*
X1327429Y-6317681D01*
X1339524Y-6311633D01*
X1363714Y-6311633D01*
X1375810Y-6317681D01*
X1381857Y-6323728D01*
X1387905Y-6335824D01*
X1442333Y-547652D02*
X1442333Y-638367D01*
X1448381Y-656510D01*
X1460476Y-668605D01*
X1478619Y-674652D01*
X1490714Y-674652D01*
X1321381Y-547652D02*
X1381857Y-547652D01*
X1387905Y-608129D01*
X1381857Y-602081D01*
X1369762Y-596033D01*
X1339524Y-596033D01*
X1327429Y-602081D01*
X1321381Y-608129D01*
X1315333Y-620224D01*
X1315333Y-650462D01*
X1321381Y-662557D01*
X1327429Y-668605D01*
X1339524Y-674652D01*
X1369762Y-674652D01*
X1381857Y-668605D01*
X1387905Y-662557D01*
M02*
