%TF.GenerationSoftware,KiCad,Pcbnew,5.1.10*%
%TF.CreationDate,2021-07-27T11:18:45+02:00*%
%TF.ProjectId,lxbmc,6c78626d-632e-46b6-9963-61645f706362,rev?*%
%TF.SameCoordinates,Original*%
%TF.FileFunction,Legend,Bot*%
%TF.FilePolarity,Positive*%
%FSLAX45Y45*%
G04 Gerber Fmt 4.5, Leading zero omitted, Abs format (unit mm)*
G04 Created by KiCad (PCBNEW 5.1.10) date 2021-07-27 11:18:45*
%MOMM*%
%LPD*%
G01*
G04 APERTURE LIST*
%TA.AperFunction,Profile*%
%ADD10C,0.200000*%
%TD*%
%ADD11C,0.100000*%
%ADD12C,0.254000*%
%ADD13C,1.800000*%
%ADD14C,2.925000*%
%ADD15C,3.251200*%
%ADD16C,2.362200*%
%ADD17C,1.524000*%
%ADD18C,1.714500*%
%ADD19C,1.371600*%
%ADD20R,1.524000X1.524000*%
%ADD21C,6.100000*%
%ADD22C,2.300000*%
%ADD23R,2.300000X2.300000*%
%ADD24C,3.200000*%
%ADD25R,1.700000X1.700000*%
%ADD26O,1.700000X1.700000*%
G04 APERTURE END LIST*
D10*
X300000Y-6950000D02*
G75*
G02*
X0Y-6650000I0J300000D01*
G01*
X0Y-300000D02*
G75*
G02*
X300000Y0I300000J0D01*
G01*
X10000000Y-6650000D02*
G75*
G02*
X9700000Y-6950000I-300000J0D01*
G01*
X9700000Y0D02*
G75*
G02*
X10000000Y-300000I0J-300000D01*
G01*
X300000Y0D02*
X9700000Y0D01*
X0Y-6650000D02*
X0Y-300000D01*
X10000000Y-300000D02*
X10000000Y-6650000D01*
X9700000Y-6950000D02*
X300000Y-6950000D01*
D11*
X9485000Y-6208000D02*
X9485000Y-6108000D01*
X8635000Y-6208000D02*
X8635000Y-6108000D01*
X8810000Y-5758000D02*
X9310000Y-5758000D01*
X9485000Y-6908000D02*
X9485000Y-6608000D01*
X8635000Y-6908000D02*
X9485000Y-6908000D01*
X8635000Y-6608000D02*
X8635000Y-6908000D01*
X8635000Y-742000D02*
X8635000Y-842000D01*
X9485000Y-742000D02*
X9485000Y-842000D01*
X9310000Y-1192000D02*
X8810000Y-1192000D01*
X8635000Y-42000D02*
X8635000Y-342000D01*
X9485000Y-42000D02*
X8635000Y-42000D01*
X9485000Y-342000D02*
X9485000Y-42000D01*
X1825000Y-6208000D02*
X1825000Y-6108000D01*
X975000Y-6208000D02*
X975000Y-6108000D01*
X1150000Y-5758000D02*
X1650000Y-5758000D01*
X1825000Y-6908000D02*
X1825000Y-6608000D01*
X975000Y-6908000D02*
X1825000Y-6908000D01*
X975000Y-6608000D02*
X975000Y-6908000D01*
X975000Y-742000D02*
X975000Y-842000D01*
X1825000Y-742000D02*
X1825000Y-842000D01*
X1650000Y-1192000D02*
X1150000Y-1192000D01*
X975000Y-42000D02*
X975000Y-342000D01*
X1825000Y-42000D02*
X975000Y-42000D01*
X1825000Y-342000D02*
X1825000Y-42000D01*
D12*
X9102333Y-6263252D02*
X9102333Y-6353967D01*
X9108381Y-6372109D01*
X9120476Y-6384205D01*
X9138619Y-6390252D01*
X9150714Y-6390252D01*
X9023714Y-6317681D02*
X9035810Y-6311633D01*
X9041857Y-6305586D01*
X9047905Y-6293490D01*
X9047905Y-6287443D01*
X9041857Y-6275348D01*
X9035810Y-6269300D01*
X9023714Y-6263252D01*
X8999524Y-6263252D01*
X8987429Y-6269300D01*
X8981381Y-6275348D01*
X8975333Y-6287443D01*
X8975333Y-6293490D01*
X8981381Y-6305586D01*
X8987429Y-6311633D01*
X8999524Y-6317681D01*
X9023714Y-6317681D01*
X9035810Y-6323728D01*
X9041857Y-6329776D01*
X9047905Y-6341871D01*
X9047905Y-6366062D01*
X9041857Y-6378157D01*
X9035810Y-6384205D01*
X9023714Y-6390252D01*
X8999524Y-6390252D01*
X8987429Y-6384205D01*
X8981381Y-6378157D01*
X8975333Y-6366062D01*
X8975333Y-6341871D01*
X8981381Y-6329776D01*
X8987429Y-6323728D01*
X8999524Y-6317681D01*
X9102333Y-547652D02*
X9102333Y-638367D01*
X9108381Y-656510D01*
X9120476Y-668605D01*
X9138619Y-674652D01*
X9150714Y-674652D01*
X9053952Y-547652D02*
X8969286Y-547652D01*
X9023714Y-674652D01*
X1442333Y-6263252D02*
X1442333Y-6353967D01*
X1448381Y-6372109D01*
X1460476Y-6384205D01*
X1478619Y-6390252D01*
X1490714Y-6390252D01*
X1327429Y-6263252D02*
X1351619Y-6263252D01*
X1363714Y-6269300D01*
X1369762Y-6275348D01*
X1381857Y-6293490D01*
X1387905Y-6317681D01*
X1387905Y-6366062D01*
X1381857Y-6378157D01*
X1375810Y-6384205D01*
X1363714Y-6390252D01*
X1339524Y-6390252D01*
X1327429Y-6384205D01*
X1321381Y-6378157D01*
X1315333Y-6366062D01*
X1315333Y-6335824D01*
X1321381Y-6323728D01*
X1327429Y-6317681D01*
X1339524Y-6311633D01*
X1363714Y-6311633D01*
X1375810Y-6317681D01*
X1381857Y-6323728D01*
X1387905Y-6335824D01*
X1442333Y-547652D02*
X1442333Y-638367D01*
X1448381Y-656510D01*
X1460476Y-668605D01*
X1478619Y-674652D01*
X1490714Y-674652D01*
X1321381Y-547652D02*
X1381857Y-547652D01*
X1387905Y-608129D01*
X1381857Y-602081D01*
X1369762Y-596033D01*
X1339524Y-596033D01*
X1327429Y-602081D01*
X1321381Y-608129D01*
X1315333Y-620224D01*
X1315333Y-650462D01*
X1321381Y-662557D01*
X1327429Y-668605D01*
X1339524Y-674652D01*
X1369762Y-674652D01*
X1381857Y-668605D01*
X1387905Y-662557D01*
%LPC*%
D13*
X9283607Y-6650000D02*
G75*
G03*
X9283607Y-6650000I-223607J0D01*
G01*
X1623607Y-6650000D02*
G75*
G03*
X1623607Y-6650000I-223607J0D01*
G01*
X1623607Y-300000D02*
G75*
G03*
X1623607Y-300000I-223607J0D01*
G01*
X9283607Y-300000D02*
G75*
G03*
X9283607Y-300000I-223607J0D01*
G01*
D14*
X8685000Y-6400000D03*
X9435000Y-6400000D03*
X8685000Y-5900000D03*
X9435000Y-5900000D03*
X9435000Y-550000D03*
X8685000Y-550000D03*
X9435000Y-1050000D03*
X8685000Y-1050000D03*
X1025000Y-6400000D03*
X1775000Y-6400000D03*
X1025000Y-5900000D03*
X1775000Y-5900000D03*
X1775000Y-550000D03*
X1025000Y-550000D03*
X1775000Y-1050000D03*
X1025000Y-1050000D03*
D15*
X9000000Y-2840000D03*
X9000000Y-4110000D03*
D16*
X9317500Y-2668550D03*
X9317500Y-4281450D03*
D17*
X7476000Y-3576600D03*
X7476000Y-3779800D03*
X7476000Y-3983000D03*
X7222000Y-3678200D03*
X7222000Y-3881400D03*
X7222000Y-4084600D03*
D18*
X6968000Y-2865400D03*
X6968000Y-3119400D03*
X6968000Y-4084600D03*
X6968000Y-3830600D03*
D19*
X8187200Y-2916200D03*
X8187200Y-4033800D03*
X8339600Y-2916200D03*
X8339600Y-4033800D03*
D20*
X7476000Y-2967000D03*
D17*
X7476000Y-3170200D03*
X7476000Y-3373400D03*
X7222000Y-2865400D03*
X7222000Y-3068600D03*
X7222000Y-3271800D03*
D21*
X400000Y-1850000D03*
X400000Y-5150000D03*
X5200000Y-1850000D03*
X5200000Y-5150000D03*
D22*
X5500000Y-6050000D03*
X5150000Y-6050000D03*
X4800000Y-6050000D03*
D23*
X4450000Y-6050000D03*
D22*
X4350000Y-900000D03*
X4700000Y-900000D03*
X5050000Y-900000D03*
D23*
X5400000Y-900000D03*
D22*
X2750000Y-900000D03*
X3100000Y-900000D03*
D23*
X3450000Y-900000D03*
D24*
X9060000Y-6650000D03*
X1400000Y-6650000D03*
X1400000Y-300000D03*
X9060000Y-300000D03*
D25*
X2600000Y-6250000D03*
D26*
X2600000Y-5996000D03*
X2854000Y-6250000D03*
X2854000Y-5996000D03*
X3108000Y-6250000D03*
X3108000Y-5996000D03*
X3362000Y-6250000D03*
X3362000Y-5996000D03*
X3616000Y-6250000D03*
X3616000Y-5996000D03*
M02*
