%TF.GenerationSoftware,KiCad,Pcbnew,5.1.10*%
%TF.CreationDate,2021-07-27T11:18:45+02:00*%
%TF.ProjectId,lxbmc,6c78626d-632e-46b6-9963-61645f706362,rev?*%
%TF.SameCoordinates,Original*%
%TF.FileFunction,Other,User*%
%FSLAX45Y45*%
G04 Gerber Fmt 4.5, Leading zero omitted, Abs format (unit mm)*
G04 Created by KiCad (PCBNEW 5.1.10) date 2021-07-27 11:18:45*
%MOMM*%
%LPD*%
G01*
G04 APERTURE LIST*
%TA.AperFunction,Profile*%
%ADD10C,0.200000*%
%TD*%
%ADD11C,0.050000*%
%ADD12C,0.120000*%
G04 APERTURE END LIST*
D10*
X300000Y-6950000D02*
G75*
G02*
X0Y-6650000I0J300000D01*
G01*
X0Y-300000D02*
G75*
G02*
X300000Y0I300000J0D01*
G01*
X10000000Y-6650000D02*
G75*
G02*
X9700000Y-6950000I-300000J0D01*
G01*
X9700000Y0D02*
G75*
G02*
X10000000Y-300000I0J-300000D01*
G01*
X300000Y0D02*
X9700000Y0D01*
X0Y-6650000D02*
X0Y-300000D01*
X10000000Y-300000D02*
X10000000Y-6650000D01*
X9700000Y-6950000D02*
X300000Y-6950000D01*
D11*
X10117000Y-2495000D02*
X10117000Y-4455000D01*
X10117000Y-4455000D02*
X9174000Y-4455000D01*
X9174000Y-4455000D02*
X9174000Y-4316000D01*
X9174000Y-4316000D02*
X6790000Y-4316000D01*
X6790000Y-4316000D02*
X6790000Y-2634000D01*
X6790000Y-2634000D02*
X9174000Y-2634000D01*
X9174000Y-2634000D02*
X9174000Y-2495000D01*
X9174000Y-2495000D02*
X10117000Y-2495000D01*
X6397250Y-1732140D02*
X6397250Y-1935340D01*
X6441700Y-1732140D02*
X6397250Y-1732140D01*
X6441700Y-1015860D02*
X6441700Y-1732140D01*
X6397250Y-1015860D02*
X6441700Y-1015860D01*
X6397250Y-812660D02*
X6397250Y-1015860D01*
X5952750Y-812660D02*
X6397250Y-812660D01*
X5952750Y-1015860D02*
X5952750Y-812660D01*
X5908300Y-1015860D02*
X5952750Y-1015860D01*
X5908300Y-1732140D02*
X5908300Y-1015860D01*
X5952750Y-1732140D02*
X5908300Y-1732140D01*
X5952750Y-1935340D02*
X5952750Y-1732140D01*
X6397250Y-1935340D02*
X5952750Y-1935340D01*
D12*
X5550000Y-5500000D02*
X5550000Y-1500000D01*
X5550000Y-5500000D02*
X50000Y-5500000D01*
X50000Y-5500000D02*
X50000Y-1500000D01*
X5550000Y-1500000D02*
X50000Y-1500000D01*
D11*
X5725000Y-5720000D02*
X4225000Y-5720000D01*
X5725000Y-6470000D02*
X5725000Y-5720000D01*
X4225000Y-6470000D02*
X5725000Y-6470000D01*
X4225000Y-5720000D02*
X4225000Y-6470000D01*
X4125000Y-1230000D02*
X5625000Y-1230000D01*
X4125000Y-480000D02*
X4125000Y-1230000D01*
X5625000Y-480000D02*
X4125000Y-480000D01*
X5625000Y-1230000D02*
X5625000Y-480000D01*
X2525000Y-1230000D02*
X3675000Y-1230000D01*
X2525000Y-480000D02*
X2525000Y-1230000D01*
X3675000Y-480000D02*
X2525000Y-480000D01*
X3675000Y-1230000D02*
X3675000Y-480000D01*
X9365000Y-6650000D02*
G75*
G03*
X9365000Y-6650000I-305000J0D01*
G01*
X1705000Y-6650000D02*
G75*
G03*
X1705000Y-6650000I-305000J0D01*
G01*
X1705000Y-300000D02*
G75*
G03*
X1705000Y-300000I-305000J0D01*
G01*
X9365000Y-300000D02*
G75*
G03*
X9365000Y-300000I-305000J0D01*
G01*
X2420000Y-6430000D02*
X3795000Y-6430000D01*
X3795000Y-6430000D02*
X3795000Y-5815000D01*
X3795000Y-5815000D02*
X2420000Y-5815000D01*
X2420000Y-5815000D02*
X2420000Y-6430000D01*
X4153000Y-5838000D02*
X4007000Y-5838000D01*
X4007000Y-5838000D02*
X4007000Y-5542000D01*
X4007000Y-5542000D02*
X4153000Y-5542000D01*
X4153000Y-5542000D02*
X4153000Y-5838000D01*
X9688000Y-1987000D02*
X9688000Y-2133000D01*
X9688000Y-2133000D02*
X9392000Y-2133000D01*
X9392000Y-2133000D02*
X9392000Y-1987000D01*
X9392000Y-1987000D02*
X9688000Y-1987000D01*
X6358000Y-2123000D02*
X6062000Y-2123000D01*
X6358000Y-1977000D02*
X6358000Y-2123000D01*
X6062000Y-1977000D02*
X6358000Y-1977000D01*
X6062000Y-2123000D02*
X6062000Y-1977000D01*
X6422000Y-3903000D02*
X6422000Y-3757000D01*
X6422000Y-3757000D02*
X6718000Y-3757000D01*
X6718000Y-3757000D02*
X6718000Y-3903000D01*
X6718000Y-3903000D02*
X6422000Y-3903000D01*
X6292000Y-2823000D02*
X6292000Y-2677000D01*
X6292000Y-2677000D02*
X6588000Y-2677000D01*
X6588000Y-2677000D02*
X6588000Y-2823000D01*
X6588000Y-2823000D02*
X6292000Y-2823000D01*
X9688000Y-2167000D02*
X9688000Y-2313000D01*
X9688000Y-2313000D02*
X9392000Y-2313000D01*
X9392000Y-2313000D02*
X9392000Y-2167000D01*
X9392000Y-2167000D02*
X9688000Y-2167000D01*
X7938000Y-4457000D02*
X7938000Y-4603000D01*
X7938000Y-4603000D02*
X7642000Y-4603000D01*
X7642000Y-4603000D02*
X7642000Y-4457000D01*
X7642000Y-4457000D02*
X7938000Y-4457000D01*
X2425500Y-1450000D02*
X2229500Y-1450000D01*
X2229500Y-1450000D02*
X2229500Y-1110000D01*
X2229500Y-1110000D02*
X2425500Y-1110000D01*
X2425500Y-1110000D02*
X2425500Y-1450000D01*
X2174400Y-1429600D02*
X2028400Y-1429600D01*
X2028400Y-1429600D02*
X2028400Y-1133600D01*
X2028400Y-1133600D02*
X2174400Y-1133600D01*
X2174400Y-1133600D02*
X2174400Y-1429600D01*
M02*
