%TF.GenerationSoftware,KiCad,Pcbnew,5.1.10*%
%TF.CreationDate,2021-07-27T11:18:45+02:00*%
%TF.ProjectId,lxbmc,6c78626d-632e-46b6-9963-61645f706362,rev?*%
%TF.SameCoordinates,Original*%
%TF.FileFunction,Legend,Top*%
%TF.FilePolarity,Positive*%
%FSLAX45Y45*%
G04 Gerber Fmt 4.5, Leading zero omitted, Abs format (unit mm)*
G04 Created by KiCad (PCBNEW 5.1.10) date 2021-07-27 11:18:45*
%MOMM*%
%LPD*%
G01*
G04 APERTURE LIST*
%ADD10C,0.150000*%
%TA.AperFunction,Profile*%
%ADD11C,0.200000*%
%TD*%
%ADD12C,0.200000*%
%ADD13C,0.127000*%
%ADD14C,0.120000*%
%ADD15C,0.015000*%
%ADD16C,1.800000*%
%ADD17C,2.925000*%
%ADD18C,3.251200*%
%ADD19C,2.362200*%
%ADD20C,1.524000*%
%ADD21C,1.714500*%
%ADD22C,1.371600*%
%ADD23R,1.524000X1.524000*%
%ADD24R,1.397000X1.701800*%
%ADD25R,0.200000X0.700000*%
%ADD26C,6.100000*%
%ADD27C,2.300000*%
%ADD28R,2.300000X2.300000*%
%ADD29C,3.200000*%
%ADD30R,1.700000X1.700000*%
%ADD31O,1.700000X1.700000*%
G04 APERTURE END LIST*
D10*
X4854762Y-6533559D02*
X4773810Y-6533559D01*
X4764286Y-6538321D01*
X4759524Y-6543083D01*
X4754762Y-6552607D01*
X4754762Y-6571655D01*
X4759524Y-6581178D01*
X4764286Y-6585940D01*
X4773810Y-6590702D01*
X4854762Y-6590702D01*
X4759524Y-6633559D02*
X4754762Y-6647845D01*
X4754762Y-6671655D01*
X4759524Y-6681178D01*
X4764286Y-6685940D01*
X4773810Y-6690702D01*
X4783333Y-6690702D01*
X4792857Y-6685940D01*
X4797619Y-6681178D01*
X4802381Y-6671655D01*
X4807143Y-6652607D01*
X4811905Y-6643083D01*
X4816667Y-6638321D01*
X4826190Y-6633559D01*
X4835714Y-6633559D01*
X4845238Y-6638321D01*
X4850000Y-6643083D01*
X4854762Y-6652607D01*
X4854762Y-6676417D01*
X4850000Y-6690702D01*
X4807143Y-6766893D02*
X4802381Y-6781178D01*
X4797619Y-6785940D01*
X4788095Y-6790702D01*
X4773810Y-6790702D01*
X4764286Y-6785940D01*
X4759524Y-6781178D01*
X4754762Y-6771655D01*
X4754762Y-6733559D01*
X4854762Y-6733559D01*
X4854762Y-6766893D01*
X4850000Y-6776417D01*
X4845238Y-6781178D01*
X4835714Y-6785940D01*
X4826190Y-6785940D01*
X4816667Y-6781178D01*
X4811905Y-6776417D01*
X4807143Y-6766893D01*
X4807143Y-6733559D01*
X4792857Y-6833559D02*
X4792857Y-6909750D01*
X5204762Y-6533559D02*
X5123810Y-6533559D01*
X5114286Y-6538321D01*
X5109524Y-6543083D01*
X5104762Y-6552607D01*
X5104762Y-6571655D01*
X5109524Y-6581178D01*
X5114286Y-6585940D01*
X5123810Y-6590702D01*
X5204762Y-6590702D01*
X5109524Y-6633559D02*
X5104762Y-6647845D01*
X5104762Y-6671655D01*
X5109524Y-6681178D01*
X5114286Y-6685940D01*
X5123810Y-6690702D01*
X5133333Y-6690702D01*
X5142857Y-6685940D01*
X5147619Y-6681178D01*
X5152381Y-6671655D01*
X5157143Y-6652607D01*
X5161905Y-6643083D01*
X5166667Y-6638321D01*
X5176190Y-6633559D01*
X5185714Y-6633559D01*
X5195238Y-6638321D01*
X5200000Y-6643083D01*
X5204762Y-6652607D01*
X5204762Y-6676417D01*
X5200000Y-6690702D01*
X5157143Y-6766893D02*
X5152381Y-6781178D01*
X5147619Y-6785940D01*
X5138095Y-6790702D01*
X5123810Y-6790702D01*
X5114286Y-6785940D01*
X5109524Y-6781178D01*
X5104762Y-6771655D01*
X5104762Y-6733559D01*
X5204762Y-6733559D01*
X5204762Y-6766893D01*
X5200000Y-6776417D01*
X5195238Y-6781178D01*
X5185714Y-6785940D01*
X5176190Y-6785940D01*
X5166667Y-6781178D01*
X5161905Y-6776417D01*
X5157143Y-6766893D01*
X5157143Y-6733559D01*
X5142857Y-6833559D02*
X5142857Y-6909750D01*
X5104762Y-6871655D02*
X5180952Y-6871655D01*
X5550000Y-6585940D02*
X5554762Y-6576417D01*
X5554762Y-6562131D01*
X5550000Y-6547845D01*
X5540476Y-6538321D01*
X5530952Y-6533559D01*
X5511905Y-6528798D01*
X5497619Y-6528798D01*
X5478571Y-6533559D01*
X5469048Y-6538321D01*
X5459524Y-6547845D01*
X5454762Y-6562131D01*
X5454762Y-6571655D01*
X5459524Y-6585940D01*
X5464286Y-6590702D01*
X5497619Y-6590702D01*
X5497619Y-6571655D01*
X5454762Y-6633559D02*
X5554762Y-6633559D01*
X5454762Y-6690702D01*
X5554762Y-6690702D01*
X5454762Y-6738321D02*
X5554762Y-6738321D01*
X5554762Y-6762131D01*
X5550000Y-6776417D01*
X5540476Y-6785940D01*
X5530952Y-6790702D01*
X5511905Y-6795464D01*
X5497619Y-6795464D01*
X5478571Y-6790702D01*
X5469048Y-6785940D01*
X5459524Y-6776417D01*
X5454762Y-6762131D01*
X5454762Y-6738321D01*
X4745238Y-416440D02*
X4645238Y-416440D01*
X4645238Y-378345D01*
X4650000Y-368821D01*
X4654762Y-364059D01*
X4664286Y-359298D01*
X4678571Y-359298D01*
X4688095Y-364059D01*
X4692857Y-368821D01*
X4697619Y-378345D01*
X4697619Y-416440D01*
X4645238Y-325964D02*
X4745238Y-302155D01*
X4673810Y-283107D01*
X4745238Y-264060D01*
X4645238Y-240250D01*
X4645238Y-183107D02*
X4645238Y-164060D01*
X4650000Y-154536D01*
X4659524Y-145012D01*
X4678571Y-140250D01*
X4711905Y-140250D01*
X4730952Y-145012D01*
X4740476Y-154536D01*
X4745238Y-164060D01*
X4745238Y-183107D01*
X4740476Y-192631D01*
X4730952Y-202155D01*
X4711905Y-206917D01*
X4678571Y-206917D01*
X4659524Y-202155D01*
X4650000Y-192631D01*
X4645238Y-183107D01*
X4745238Y-97393D02*
X4645238Y-97393D01*
X4745238Y-40250D02*
X4688095Y-83107D01*
X4645238Y-40250D02*
X4702381Y-97393D01*
D11*
X300000Y-6950000D02*
G75*
G02*
X0Y-6650000I0J300000D01*
G01*
X0Y-300000D02*
G75*
G02*
X300000Y0I300000J0D01*
G01*
X10000000Y-6650000D02*
G75*
G02*
X9700000Y-6950000I-300000J0D01*
G01*
X9700000Y0D02*
G75*
G02*
X10000000Y-300000I0J-300000D01*
G01*
D10*
X5345238Y-368821D02*
X5345238Y-416440D01*
X5392857Y-421202D01*
X5388095Y-416440D01*
X5383333Y-406917D01*
X5383333Y-383107D01*
X5388095Y-373583D01*
X5392857Y-368821D01*
X5402381Y-364059D01*
X5426190Y-364059D01*
X5435714Y-368821D01*
X5440476Y-373583D01*
X5445238Y-383107D01*
X5445238Y-406917D01*
X5440476Y-416440D01*
X5435714Y-421202D01*
X5345238Y-335488D02*
X5445238Y-302155D01*
X5345238Y-268821D01*
X4300000Y-364059D02*
X4295238Y-373583D01*
X4295238Y-387869D01*
X4300000Y-402155D01*
X4309524Y-411678D01*
X4319048Y-416440D01*
X4338095Y-421202D01*
X4352381Y-421202D01*
X4371429Y-416440D01*
X4380952Y-411678D01*
X4390476Y-402155D01*
X4395238Y-387869D01*
X4395238Y-378345D01*
X4390476Y-364059D01*
X4385714Y-359298D01*
X4352381Y-359298D01*
X4352381Y-378345D01*
X4395238Y-316440D02*
X4295238Y-316440D01*
X4395238Y-259298D01*
X4295238Y-259298D01*
X4395238Y-211678D02*
X4295238Y-211678D01*
X4295238Y-187869D01*
X4300000Y-173583D01*
X4309524Y-164060D01*
X4319048Y-159298D01*
X4338095Y-154536D01*
X4352381Y-154536D01*
X4371429Y-159298D01*
X4380952Y-164060D01*
X4390476Y-173583D01*
X4395238Y-187869D01*
X4395238Y-211678D01*
X4893333Y899762D02*
X4893333Y828333D01*
X4888571Y814048D01*
X4879048Y804524D01*
X4864762Y799762D01*
X4855238Y799762D01*
X4988571Y799762D02*
X4940952Y799762D01*
X4940952Y899762D01*
X5079048Y809286D02*
X5074286Y804524D01*
X5060000Y799762D01*
X5050476Y799762D01*
X5036190Y804524D01*
X5026667Y814048D01*
X5021905Y823571D01*
X5017143Y842619D01*
X5017143Y856905D01*
X5021905Y875952D01*
X5026667Y885476D01*
X5036190Y895000D01*
X5050476Y899762D01*
X5060000Y899762D01*
X5074286Y895000D01*
X5079048Y890238D01*
X5117143Y890238D02*
X5121905Y895000D01*
X5131429Y899762D01*
X5155238Y899762D01*
X5164762Y895000D01*
X5169524Y890238D01*
X5174286Y880714D01*
X5174286Y871190D01*
X5169524Y856905D01*
X5112381Y799762D01*
X5174286Y799762D01*
X5207619Y899762D02*
X5269524Y899762D01*
X5236190Y861667D01*
X5250476Y861667D01*
X5260000Y856905D01*
X5264762Y852143D01*
X5269524Y842619D01*
X5269524Y818809D01*
X5264762Y809286D01*
X5260000Y804524D01*
X5250476Y799762D01*
X5221905Y799762D01*
X5212381Y804524D01*
X5207619Y809286D01*
X5364762Y799762D02*
X5307619Y799762D01*
X5336190Y799762D02*
X5336190Y899762D01*
X5326667Y885476D01*
X5317143Y875952D01*
X5307619Y871190D01*
X5398095Y899762D02*
X5460000Y899762D01*
X5426667Y861667D01*
X5440952Y861667D01*
X5450476Y856905D01*
X5455238Y852143D01*
X5460000Y842619D01*
X5460000Y818809D01*
X5455238Y809286D01*
X5450476Y804524D01*
X5440952Y799762D01*
X5412381Y799762D01*
X5402857Y804524D01*
X5398095Y809286D01*
X4057619Y469762D02*
X4076667Y469762D01*
X4086190Y474524D01*
X4090952Y479286D01*
X4100476Y493571D01*
X4105238Y512619D01*
X4105238Y550714D01*
X4100476Y560238D01*
X4095714Y565000D01*
X4086190Y569762D01*
X4067143Y569762D01*
X4057619Y565000D01*
X4052857Y560238D01*
X4048095Y550714D01*
X4048095Y526905D01*
X4052857Y517381D01*
X4057619Y512619D01*
X4067143Y507857D01*
X4086190Y507857D01*
X4095714Y512619D01*
X4100476Y517381D01*
X4105238Y526905D01*
X4167143Y569762D02*
X4176667Y569762D01*
X4186190Y565000D01*
X4190952Y560238D01*
X4195714Y550714D01*
X4200476Y531667D01*
X4200476Y507857D01*
X4195714Y488809D01*
X4190952Y479286D01*
X4186190Y474524D01*
X4176667Y469762D01*
X4167143Y469762D01*
X4157619Y474524D01*
X4152857Y479286D01*
X4148095Y488809D01*
X4143333Y507857D01*
X4143333Y531667D01*
X4148095Y550714D01*
X4152857Y560238D01*
X4157619Y565000D01*
X4167143Y569762D01*
X4300476Y469762D02*
X4267143Y517381D01*
X4243333Y469762D02*
X4243333Y569762D01*
X4281429Y569762D01*
X4290952Y565000D01*
X4295714Y560238D01*
X4300476Y550714D01*
X4300476Y536429D01*
X4295714Y526905D01*
X4290952Y522143D01*
X4281429Y517381D01*
X4243333Y517381D01*
X4419524Y479286D02*
X4424286Y474524D01*
X4419524Y469762D01*
X4414762Y474524D01*
X4419524Y479286D01*
X4419524Y469762D01*
X4419524Y531667D02*
X4424286Y526905D01*
X4419524Y522143D01*
X4414762Y526905D01*
X4419524Y531667D01*
X4419524Y522143D01*
X4586190Y569762D02*
X4567143Y569762D01*
X4557619Y565000D01*
X4552857Y560238D01*
X4543333Y545952D01*
X4538571Y526905D01*
X4538571Y488809D01*
X4543333Y479286D01*
X4548095Y474524D01*
X4557619Y469762D01*
X4576667Y469762D01*
X4586190Y474524D01*
X4590952Y479286D01*
X4595714Y488809D01*
X4595714Y512619D01*
X4590952Y522143D01*
X4586190Y526905D01*
X4576667Y531667D01*
X4557619Y531667D01*
X4548095Y526905D01*
X4543333Y522143D01*
X4538571Y512619D01*
X4638571Y479286D02*
X4643333Y474524D01*
X4638571Y469762D01*
X4633810Y474524D01*
X4638571Y479286D01*
X4638571Y469762D01*
X4705238Y569762D02*
X4714762Y569762D01*
X4724286Y565000D01*
X4729048Y560238D01*
X4733810Y550714D01*
X4738571Y531667D01*
X4738571Y507857D01*
X4733810Y488809D01*
X4729048Y479286D01*
X4724286Y474524D01*
X4714762Y469762D01*
X4705238Y469762D01*
X4695714Y474524D01*
X4690952Y479286D01*
X4686190Y488809D01*
X4681429Y507857D01*
X4681429Y531667D01*
X4686190Y550714D01*
X4690952Y560238D01*
X4695714Y565000D01*
X4705238Y569762D01*
X4771905Y569762D02*
X4833810Y569762D01*
X4800476Y531667D01*
X4814762Y531667D01*
X4824286Y526905D01*
X4829048Y522143D01*
X4833810Y512619D01*
X4833810Y488809D01*
X4829048Y479286D01*
X4824286Y474524D01*
X4814762Y469762D01*
X4786190Y469762D01*
X4776667Y474524D01*
X4771905Y479286D01*
X4876667Y469762D02*
X4876667Y536429D01*
X4876667Y526905D02*
X4881429Y531667D01*
X4890952Y536429D01*
X4905238Y536429D01*
X4914762Y531667D01*
X4919524Y522143D01*
X4919524Y469762D01*
X4919524Y522143D02*
X4924286Y531667D01*
X4933810Y536429D01*
X4948095Y536429D01*
X4957619Y531667D01*
X4962381Y522143D01*
X4962381Y469762D01*
X5010000Y469762D02*
X5010000Y536429D01*
X5010000Y569762D02*
X5005238Y565000D01*
X5010000Y560238D01*
X5014762Y565000D01*
X5010000Y569762D01*
X5010000Y560238D01*
X5071905Y469762D02*
X5062381Y474524D01*
X5057619Y484048D01*
X5057619Y569762D01*
X5176667Y536429D02*
X5195714Y469762D01*
X5214762Y517381D01*
X5233810Y469762D01*
X5252857Y536429D01*
X5290952Y469762D02*
X5290952Y536429D01*
X5290952Y569762D02*
X5286190Y565000D01*
X5290952Y560238D01*
X5295714Y565000D01*
X5290952Y569762D01*
X5290952Y560238D01*
X5381429Y469762D02*
X5381429Y569762D01*
X5381429Y474524D02*
X5371905Y469762D01*
X5352857Y469762D01*
X5343333Y474524D01*
X5338571Y479286D01*
X5333810Y488809D01*
X5333810Y517381D01*
X5338571Y526905D01*
X5343333Y531667D01*
X5352857Y536429D01*
X5371905Y536429D01*
X5381429Y531667D01*
X5467143Y474524D02*
X5457619Y469762D01*
X5438571Y469762D01*
X5429048Y474524D01*
X5424286Y484048D01*
X5424286Y522143D01*
X5429048Y531667D01*
X5438571Y536429D01*
X5457619Y536429D01*
X5467143Y531667D01*
X5471905Y522143D01*
X5471905Y512619D01*
X5424286Y503095D01*
X5519524Y474524D02*
X5519524Y469762D01*
X5514762Y460238D01*
X5510000Y455476D01*
X5681428Y536429D02*
X5681428Y455476D01*
X5676667Y445952D01*
X5671905Y441190D01*
X5662381Y436428D01*
X5648095Y436428D01*
X5638571Y441190D01*
X5681428Y474524D02*
X5671905Y469762D01*
X5652857Y469762D01*
X5643333Y474524D01*
X5638571Y479286D01*
X5633809Y488809D01*
X5633809Y517381D01*
X5638571Y526905D01*
X5643333Y531667D01*
X5652857Y536429D01*
X5671905Y536429D01*
X5681428Y531667D01*
X5771905Y469762D02*
X5771905Y522143D01*
X5767143Y531667D01*
X5757619Y536429D01*
X5738571Y536429D01*
X5729048Y531667D01*
X5771905Y474524D02*
X5762381Y469762D01*
X5738571Y469762D01*
X5729048Y474524D01*
X5724286Y484048D01*
X5724286Y493571D01*
X5729048Y503095D01*
X5738571Y507857D01*
X5762381Y507857D01*
X5771905Y512619D01*
X5819524Y536429D02*
X5819524Y436428D01*
X5819524Y531667D02*
X5829048Y536429D01*
X5848095Y536429D01*
X5857619Y531667D01*
X5862381Y526905D01*
X5867143Y517381D01*
X5867143Y488809D01*
X5862381Y479286D01*
X5857619Y474524D01*
X5848095Y469762D01*
X5829048Y469762D01*
X5819524Y474524D01*
X6000476Y526905D02*
X5990952Y531667D01*
X5986190Y536429D01*
X5981428Y545952D01*
X5981428Y550714D01*
X5986190Y560238D01*
X5990952Y565000D01*
X6000476Y569762D01*
X6019524Y569762D01*
X6029048Y565000D01*
X6033809Y560238D01*
X6038571Y550714D01*
X6038571Y545952D01*
X6033809Y536429D01*
X6029048Y531667D01*
X6019524Y526905D01*
X6000476Y526905D01*
X5990952Y522143D01*
X5986190Y517381D01*
X5981428Y507857D01*
X5981428Y488809D01*
X5986190Y479286D01*
X5990952Y474524D01*
X6000476Y469762D01*
X6019524Y469762D01*
X6029048Y474524D01*
X6033809Y479286D01*
X6038571Y488809D01*
X6038571Y507857D01*
X6033809Y517381D01*
X6029048Y522143D01*
X6019524Y526905D01*
X6081428Y469762D02*
X6081428Y536429D01*
X6081428Y526905D02*
X6086190Y531667D01*
X6095714Y536429D01*
X6110000Y536429D01*
X6119524Y531667D01*
X6124286Y522143D01*
X6124286Y469762D01*
X6124286Y522143D02*
X6129048Y531667D01*
X6138571Y536429D01*
X6152857Y536429D01*
X6162381Y531667D01*
X6167143Y522143D01*
X6167143Y469762D01*
X6214762Y469762D02*
X6214762Y536429D01*
X6214762Y569762D02*
X6210000Y565000D01*
X6214762Y560238D01*
X6219524Y565000D01*
X6214762Y569762D01*
X6214762Y560238D01*
X6276667Y469762D02*
X6267143Y474524D01*
X6262381Y484048D01*
X6262381Y569762D01*
D11*
X300000Y0D02*
X9700000Y0D01*
X0Y-6650000D02*
X0Y-300000D01*
X10000000Y-300000D02*
X10000000Y-6650000D01*
X9700000Y-6950000D02*
X300000Y-6950000D01*
D10*
X5095238Y-416440D02*
X4995238Y-416440D01*
X4995238Y-378345D01*
X5000000Y-368821D01*
X5004762Y-364059D01*
X5014286Y-359298D01*
X5028571Y-359298D01*
X5038095Y-364059D01*
X5042857Y-368821D01*
X5047619Y-378345D01*
X5047619Y-416440D01*
X5090476Y-321202D02*
X5095238Y-306917D01*
X5095238Y-283107D01*
X5090476Y-273583D01*
X5085714Y-268821D01*
X5076190Y-264060D01*
X5066667Y-264060D01*
X5057143Y-268821D01*
X5052381Y-273583D01*
X5047619Y-283107D01*
X5042857Y-302155D01*
X5038095Y-311679D01*
X5033333Y-316440D01*
X5023810Y-321202D01*
X5014286Y-321202D01*
X5004762Y-316440D01*
X5000000Y-311679D01*
X4995238Y-302155D01*
X4995238Y-278345D01*
X5000000Y-264060D01*
X4995238Y-202155D02*
X4995238Y-183107D01*
X5000000Y-173583D01*
X5009524Y-164060D01*
X5028571Y-159298D01*
X5061905Y-159298D01*
X5080952Y-164060D01*
X5090476Y-173583D01*
X5095238Y-183107D01*
X5095238Y-202155D01*
X5090476Y-211678D01*
X5080952Y-221202D01*
X5061905Y-225964D01*
X5028571Y-225964D01*
X5009524Y-221202D01*
X5000000Y-211678D01*
X4995238Y-202155D01*
X5095238Y-116440D02*
X4995238Y-116440D01*
X5095238Y-59298D01*
X4995238Y-59298D01*
X3400000Y-6585940D02*
X3404762Y-6576417D01*
X3404762Y-6562131D01*
X3400000Y-6547845D01*
X3390476Y-6538321D01*
X3380952Y-6533559D01*
X3361905Y-6528798D01*
X3347619Y-6528798D01*
X3328571Y-6533559D01*
X3319048Y-6538321D01*
X3309524Y-6547845D01*
X3304762Y-6562131D01*
X3304762Y-6571655D01*
X3309524Y-6585940D01*
X3314286Y-6590702D01*
X3347619Y-6590702D01*
X3347619Y-6571655D01*
X3304762Y-6633559D02*
X3404762Y-6633559D01*
X3304762Y-6690702D01*
X3404762Y-6690702D01*
X3304762Y-6738321D02*
X3404762Y-6738321D01*
X3404762Y-6762131D01*
X3400000Y-6776417D01*
X3390476Y-6785940D01*
X3380952Y-6790702D01*
X3361905Y-6795464D01*
X3347619Y-6795464D01*
X3328571Y-6790702D01*
X3319048Y-6785940D01*
X3309524Y-6776417D01*
X3304762Y-6762131D01*
X3304762Y-6738321D01*
X3154762Y-6533559D02*
X3073809Y-6533559D01*
X3064286Y-6538321D01*
X3059524Y-6543083D01*
X3054762Y-6552607D01*
X3054762Y-6571655D01*
X3059524Y-6581178D01*
X3064286Y-6585940D01*
X3073809Y-6590702D01*
X3154762Y-6590702D01*
X3059524Y-6633559D02*
X3054762Y-6647845D01*
X3054762Y-6671655D01*
X3059524Y-6681178D01*
X3064286Y-6685940D01*
X3073809Y-6690702D01*
X3083333Y-6690702D01*
X3092857Y-6685940D01*
X3097619Y-6681178D01*
X3102381Y-6671655D01*
X3107143Y-6652607D01*
X3111905Y-6643083D01*
X3116667Y-6638321D01*
X3126190Y-6633559D01*
X3135714Y-6633559D01*
X3145238Y-6638321D01*
X3150000Y-6643083D01*
X3154762Y-6652607D01*
X3154762Y-6676417D01*
X3150000Y-6690702D01*
X3107143Y-6766893D02*
X3102381Y-6781178D01*
X3097619Y-6785940D01*
X3088095Y-6790702D01*
X3073809Y-6790702D01*
X3064286Y-6785940D01*
X3059524Y-6781178D01*
X3054762Y-6771655D01*
X3054762Y-6733559D01*
X3154762Y-6733559D01*
X3154762Y-6766893D01*
X3150000Y-6776417D01*
X3145238Y-6781178D01*
X3135714Y-6785940D01*
X3126190Y-6785940D01*
X3116667Y-6781178D01*
X3111905Y-6776417D01*
X3107143Y-6766893D01*
X3107143Y-6733559D01*
X3092857Y-6833559D02*
X3092857Y-6909750D01*
X3054762Y-6871655D02*
X3130952Y-6871655D01*
X2904762Y-6533559D02*
X2823809Y-6533559D01*
X2814286Y-6538321D01*
X2809524Y-6543083D01*
X2804762Y-6552607D01*
X2804762Y-6571655D01*
X2809524Y-6581178D01*
X2814286Y-6585940D01*
X2823809Y-6590702D01*
X2904762Y-6590702D01*
X2809524Y-6633559D02*
X2804762Y-6647845D01*
X2804762Y-6671655D01*
X2809524Y-6681178D01*
X2814286Y-6685940D01*
X2823809Y-6690702D01*
X2833333Y-6690702D01*
X2842857Y-6685940D01*
X2847619Y-6681178D01*
X2852381Y-6671655D01*
X2857143Y-6652607D01*
X2861905Y-6643083D01*
X2866667Y-6638321D01*
X2876190Y-6633559D01*
X2885714Y-6633559D01*
X2895238Y-6638321D01*
X2900000Y-6643083D01*
X2904762Y-6652607D01*
X2904762Y-6676417D01*
X2900000Y-6690702D01*
X2857143Y-6766893D02*
X2852381Y-6781178D01*
X2847619Y-6785940D01*
X2838095Y-6790702D01*
X2823809Y-6790702D01*
X2814286Y-6785940D01*
X2809524Y-6781178D01*
X2804762Y-6771655D01*
X2804762Y-6733559D01*
X2904762Y-6733559D01*
X2904762Y-6766893D01*
X2900000Y-6776417D01*
X2895238Y-6781178D01*
X2885714Y-6785940D01*
X2876190Y-6785940D01*
X2866667Y-6781178D01*
X2861905Y-6776417D01*
X2857143Y-6766893D01*
X2857143Y-6733559D01*
X2842857Y-6833559D02*
X2842857Y-6909750D01*
X3395238Y-421655D02*
X3395238Y-364512D01*
X3495238Y-393083D02*
X3395238Y-393083D01*
X3395238Y-340702D02*
X3495238Y-274036D01*
X3395238Y-274036D02*
X3495238Y-340702D01*
X3050000Y-388321D02*
X3045238Y-397845D01*
X3045238Y-412131D01*
X3050000Y-426417D01*
X3059524Y-435940D01*
X3069048Y-440702D01*
X3088095Y-445464D01*
X3102381Y-445464D01*
X3121428Y-440702D01*
X3130952Y-435940D01*
X3140476Y-426417D01*
X3145238Y-412131D01*
X3145238Y-402607D01*
X3140476Y-388321D01*
X3135714Y-383559D01*
X3102381Y-383559D01*
X3102381Y-402607D01*
X3145238Y-340702D02*
X3045238Y-340702D01*
X3145238Y-283560D01*
X3045238Y-283560D01*
X3145238Y-235940D02*
X3045238Y-235940D01*
X3045238Y-212131D01*
X3050000Y-197845D01*
X3059524Y-188321D01*
X3069048Y-183559D01*
X3088095Y-178798D01*
X3102381Y-178798D01*
X3121428Y-183559D01*
X3130952Y-188321D01*
X3140476Y-197845D01*
X3145238Y-212131D01*
X3145238Y-235940D01*
X2795238Y-374036D02*
X2747619Y-407369D01*
X2795238Y-431178D02*
X2695238Y-431178D01*
X2695238Y-393083D01*
X2700000Y-383559D01*
X2704762Y-378798D01*
X2714286Y-374036D01*
X2728571Y-374036D01*
X2738095Y-378798D01*
X2742857Y-383559D01*
X2747619Y-393083D01*
X2747619Y-431178D01*
X2695238Y-340702D02*
X2795238Y-274036D01*
X2695238Y-274036D02*
X2795238Y-340702D01*
D12*
X7480000Y-2605000D02*
G75*
G03*
X7480000Y-2605000I-10000J0D01*
G01*
D13*
X6815600Y-2659660D02*
X6815600Y-4290340D01*
X6815600Y-4290340D02*
X8792200Y-4290340D01*
X9515600Y-4290340D02*
X10092200Y-4290340D01*
X10092200Y-4290340D02*
X10092200Y-2659660D01*
X6815600Y-2659660D02*
X8792200Y-2659660D01*
X9515600Y-2659660D02*
X10092200Y-2659660D01*
D12*
X1524000Y-1994000D02*
G75*
G03*
X1524000Y-1994000I-10000J0D01*
G01*
X1524000Y-5386000D02*
G75*
G03*
X1524000Y-5386000I-10000J0D01*
G01*
D14*
X5951801Y-1028560D02*
X5921000Y-1028560D01*
X6205801Y-1028560D02*
X6144199Y-1028560D01*
X6398199Y-1719440D02*
X6429000Y-1719440D01*
X6144199Y-1719440D02*
X6205801Y-1719440D01*
X5921000Y-1719440D02*
X5951801Y-1719440D01*
X5921000Y-1028560D02*
X5921000Y-1719440D01*
X6429000Y-1028560D02*
X6398199Y-1028560D01*
X6429000Y-1719440D02*
X6429000Y-1028560D01*
X3689000Y-1993000D02*
X1409000Y-1993000D01*
X1409000Y-1993000D02*
X1409000Y-1615000D01*
X3689000Y-1615000D02*
X1409000Y-1615000D01*
X3689000Y-1993000D02*
X3689000Y-1615000D01*
X3689000Y-5385000D02*
X3689000Y-5007000D01*
X3689000Y-5007000D02*
X1409000Y-5007000D01*
X1409000Y-5385000D02*
X1409000Y-5007000D01*
X3689000Y-5385000D02*
X1409000Y-5385000D01*
X4245000Y-6450000D02*
X4395000Y-6450000D01*
X4245000Y-6276000D02*
X4245000Y-6450000D01*
X5389700Y-6141400D02*
X5382100Y-6149000D01*
X5599000Y-5932000D02*
X5593600Y-5937400D01*
X5406500Y-6162500D02*
X5401100Y-6168000D01*
X5618000Y-5951000D02*
X5610400Y-5958600D01*
X5039700Y-6141400D02*
X5032100Y-6149000D01*
X5249000Y-5932000D02*
X5243600Y-5937400D01*
X5056500Y-6162500D02*
X5051100Y-6168000D01*
X5268000Y-5951000D02*
X5260400Y-5958600D01*
X4689700Y-6141400D02*
X4682100Y-6149000D01*
X4899000Y-5932000D02*
X4893600Y-5937400D01*
X4706500Y-6162500D02*
X4701100Y-6168000D01*
X4918000Y-5951000D02*
X4910400Y-5958600D01*
X5681000Y-5764000D02*
X5681000Y-6426000D01*
X4269000Y-5764000D02*
X4269000Y-6426000D01*
X4269000Y-6426000D02*
X5681000Y-6426000D01*
X4269000Y-5764000D02*
X5681000Y-5764000D01*
X4269000Y-6270000D02*
X5681000Y-6270000D01*
X5655500Y-6050000D02*
G75*
G03*
X5655500Y-6050000I-155500J0D01*
G01*
X5305500Y-6050000D02*
G75*
G03*
X5305500Y-6050000I-155500J0D01*
G01*
X4955500Y-6050000D02*
G75*
G03*
X4955500Y-6050000I-155500J0D01*
G01*
X4452644Y-6205568D02*
G75*
G02*
X4379300Y-6188600I-2644J155568D01*
G01*
X4311336Y-6120573D02*
G75*
G02*
X4311400Y-5979300I138665J70573D01*
G01*
X4379427Y-5911335D02*
G75*
G02*
X4520700Y-5911400I70573J-138665D01*
G01*
X4588665Y-5979427D02*
G75*
G02*
X4588600Y-6120700I-138665J-70573D01*
G01*
X4520596Y-6188551D02*
G75*
G02*
X4450000Y-6205500I-70596J138552D01*
G01*
X5605000Y-500000D02*
X5455000Y-500000D01*
X5605000Y-674000D02*
X5605000Y-500000D01*
X4460300Y-808600D02*
X4467900Y-801000D01*
X4251000Y-1018000D02*
X4256400Y-1012600D01*
X4443500Y-787500D02*
X4448900Y-782000D01*
X4232000Y-999000D02*
X4239600Y-991400D01*
X4810300Y-808600D02*
X4817900Y-801000D01*
X4601000Y-1018000D02*
X4606400Y-1012600D01*
X4793500Y-787500D02*
X4798900Y-782000D01*
X4582000Y-999000D02*
X4589600Y-991400D01*
X5160300Y-808600D02*
X5167900Y-801000D01*
X4951000Y-1018000D02*
X4956400Y-1012600D01*
X5143500Y-787500D02*
X5148900Y-782000D01*
X4932000Y-999000D02*
X4939600Y-991400D01*
X4169000Y-1186000D02*
X4169000Y-524000D01*
X5581000Y-1186000D02*
X5581000Y-524000D01*
X5581000Y-524000D02*
X4169000Y-524000D01*
X5581000Y-1186000D02*
X4169000Y-1186000D01*
X5581000Y-680000D02*
X4169000Y-680000D01*
X4505500Y-900000D02*
G75*
G03*
X4505500Y-900000I-155500J0D01*
G01*
X4855500Y-900000D02*
G75*
G03*
X4855500Y-900000I-155500J0D01*
G01*
X5205500Y-900000D02*
G75*
G03*
X5205500Y-900000I-155500J0D01*
G01*
X5397356Y-744432D02*
G75*
G02*
X5470700Y-761400I2644J-155568D01*
G01*
X5538665Y-829427D02*
G75*
G02*
X5538600Y-970700I-138665J-70573D01*
G01*
X5470573Y-1038664D02*
G75*
G02*
X5329300Y-1038600I-70573J138665D01*
G01*
X5261336Y-970573D02*
G75*
G02*
X5261400Y-829300I138665J70573D01*
G01*
X5329405Y-761448D02*
G75*
G02*
X5400000Y-744500I70596J-138552D01*
G01*
X3655000Y-500000D02*
X3505000Y-500000D01*
X3655000Y-674000D02*
X3655000Y-500000D01*
X2860300Y-808600D02*
X2867900Y-801000D01*
X2651000Y-1018000D02*
X2656400Y-1012600D01*
X2843500Y-787500D02*
X2848900Y-782000D01*
X2632000Y-999000D02*
X2639600Y-991400D01*
X3210300Y-808600D02*
X3217900Y-801000D01*
X3001000Y-1018000D02*
X3006400Y-1012600D01*
X3193500Y-787500D02*
X3198900Y-782000D01*
X2982000Y-999000D02*
X2989600Y-991400D01*
X2569000Y-1186000D02*
X2569000Y-524000D01*
X3631000Y-1186000D02*
X3631000Y-524000D01*
X3631000Y-524000D02*
X2569000Y-524000D01*
X3631000Y-1186000D02*
X2569000Y-1186000D01*
X3631000Y-680000D02*
X2569000Y-680000D01*
X2905500Y-900000D02*
G75*
G03*
X2905500Y-900000I-155500J0D01*
G01*
X3255500Y-900000D02*
G75*
G03*
X3255500Y-900000I-155500J0D01*
G01*
X3447356Y-744432D02*
G75*
G02*
X3520700Y-761400I2644J-155568D01*
G01*
X3588664Y-829427D02*
G75*
G02*
X3588600Y-970700I-138665J-70573D01*
G01*
X3520573Y-1038664D02*
G75*
G02*
X3379300Y-1038600I-70573J138665D01*
G01*
X3311335Y-970573D02*
G75*
G02*
X3311400Y-829300I138665J70573D01*
G01*
X3379404Y-761448D02*
G75*
G02*
X3450000Y-744500I70596J-138552D01*
G01*
X4027750Y-5713726D02*
X4027750Y-5666274D01*
X4132250Y-5713726D02*
X4132250Y-5666274D01*
X9563726Y-2112250D02*
X9516274Y-2112250D01*
X9563726Y-2007750D02*
X9516274Y-2007750D01*
X6186274Y-2102250D02*
X6233726Y-2102250D01*
X6186274Y-1997750D02*
X6233726Y-1997750D01*
X6546274Y-3777750D02*
X6593726Y-3777750D01*
X6546274Y-3882250D02*
X6593726Y-3882250D01*
X6416274Y-2697750D02*
X6463726Y-2697750D01*
X6416274Y-2802250D02*
X6463726Y-2802250D01*
X9460000Y-2313500D02*
X9688500Y-2313500D01*
X9688500Y-2313500D02*
X9688500Y-2166500D01*
X9688500Y-2166500D02*
X9460000Y-2166500D01*
X7804058Y-4581000D02*
X7775942Y-4581000D01*
X7804058Y-4479000D02*
X7775942Y-4479000D01*
X2254000Y-1306125D02*
X2254000Y-1253875D01*
X2401000Y-1306125D02*
X2401000Y-1253875D01*
X2050400Y-1295658D02*
X2050400Y-1267542D01*
X2152400Y-1295658D02*
X2152400Y-1267542D01*
D15*
X6638738Y-3015833D02*
X6710167Y-3015833D01*
X6724452Y-3020595D01*
X6733976Y-3030119D01*
X6738738Y-3044405D01*
X6738738Y-3053928D01*
X6638738Y-2977738D02*
X6638738Y-2915833D01*
X6676833Y-2949167D01*
X6676833Y-2934881D01*
X6681595Y-2925357D01*
X6686357Y-2920595D01*
X6695881Y-2915833D01*
X6719690Y-2915833D01*
X6729214Y-2920595D01*
X6733976Y-2925357D01*
X6738738Y-2934881D01*
X6738738Y-2963452D01*
X6733976Y-2972976D01*
X6729214Y-2977738D01*
X1511550Y-1511251D02*
X1543608Y-1559338D01*
X1543608Y-1511251D02*
X1511550Y-1559338D01*
X1587116Y-1559338D02*
X1559638Y-1559338D01*
X1573377Y-1559338D02*
X1573377Y-1511251D01*
X1568797Y-1518120D01*
X1564217Y-1522700D01*
X1559638Y-1524990D01*
X1511550Y-4903251D02*
X1543608Y-4951338D01*
X1543608Y-4903251D02*
X1511550Y-4951338D01*
X1559638Y-4907830D02*
X1561928Y-4905541D01*
X1566507Y-4903251D01*
X1577957Y-4903251D01*
X1582537Y-4905541D01*
X1584826Y-4907830D01*
X1587116Y-4912410D01*
X1587116Y-4916990D01*
X1584826Y-4923860D01*
X1557348Y-4951338D01*
X1587116Y-4951338D01*
D10*
X6220238Y-1474000D02*
X6172619Y-1507333D01*
X6220238Y-1531143D02*
X6120238Y-1531143D01*
X6120238Y-1493048D01*
X6125000Y-1483524D01*
X6129762Y-1478762D01*
X6139286Y-1474000D01*
X6153571Y-1474000D01*
X6163095Y-1478762D01*
X6167857Y-1483524D01*
X6172619Y-1493048D01*
X6172619Y-1531143D01*
X6220238Y-1383524D02*
X6220238Y-1431143D01*
X6120238Y-1431143D01*
X6191667Y-1354952D02*
X6191667Y-1307333D01*
X6220238Y-1364476D02*
X6120238Y-1331143D01*
X6220238Y-1297810D01*
X6220238Y-1212095D02*
X6220238Y-1269238D01*
X6220238Y-1240667D02*
X6120238Y-1240667D01*
X6134524Y-1250190D01*
X6144048Y-1259714D01*
X6148809Y-1269238D01*
X6125000Y-1750190D02*
X6120238Y-1759714D01*
X6120238Y-1774000D01*
X6125000Y-1788286D01*
X6134524Y-1797809D01*
X6144048Y-1802571D01*
X6163095Y-1807333D01*
X6177381Y-1807333D01*
X6196428Y-1802571D01*
X6205952Y-1797809D01*
X6215476Y-1788286D01*
X6220238Y-1774000D01*
X6220238Y-1764476D01*
X6215476Y-1750190D01*
X6210714Y-1745428D01*
X6177381Y-1745428D01*
X6177381Y-1764476D01*
X6120238Y-1712095D02*
X6120238Y-1650190D01*
X6158333Y-1683524D01*
X6158333Y-1669238D01*
X6163095Y-1659714D01*
X6167857Y-1654952D01*
X6177381Y-1650190D01*
X6201190Y-1650190D01*
X6210714Y-1654952D01*
X6215476Y-1659714D01*
X6220238Y-1669238D01*
X6220238Y-1697809D01*
X6215476Y-1707333D01*
X6210714Y-1712095D01*
X6120238Y-1621619D02*
X6220238Y-1588286D01*
X6120238Y-1554952D01*
X6220238Y-1521619D02*
X6120238Y-1521619D01*
X6191667Y-1488286D01*
X6120238Y-1454952D01*
X6220238Y-1454952D01*
X6182143Y-1407333D02*
X6182143Y-1331143D01*
X6120238Y-1240667D02*
X6120238Y-1259714D01*
X6125000Y-1269238D01*
X6129762Y-1274000D01*
X6144048Y-1283524D01*
X6163095Y-1288286D01*
X6201190Y-1288286D01*
X6210714Y-1283524D01*
X6215476Y-1278762D01*
X6220238Y-1269238D01*
X6220238Y-1250190D01*
X6215476Y-1240667D01*
X6210714Y-1235905D01*
X6201190Y-1231143D01*
X6177381Y-1231143D01*
X6167857Y-1235905D01*
X6163095Y-1240667D01*
X6158333Y-1250190D01*
X6158333Y-1269238D01*
X6163095Y-1278762D01*
X6167857Y-1283524D01*
X6177381Y-1288286D01*
X6220238Y-1135905D02*
X6220238Y-1193048D01*
X6220238Y-1164476D02*
X6120238Y-1164476D01*
X6134524Y-1174000D01*
X6144048Y-1183524D01*
X6148809Y-1193048D01*
X6125000Y-1040667D02*
X6120238Y-1050190D01*
X6120238Y-1064476D01*
X6125000Y-1078762D01*
X6134524Y-1088286D01*
X6144048Y-1093048D01*
X6163095Y-1097810D01*
X6177381Y-1097810D01*
X6196428Y-1093048D01*
X6205952Y-1088286D01*
X6215476Y-1078762D01*
X6220238Y-1064476D01*
X6220238Y-1054952D01*
X6215476Y-1040667D01*
X6210714Y-1035905D01*
X6177381Y-1035905D01*
X6177381Y-1054952D01*
X6220238Y-940667D02*
X6220238Y-997809D01*
X6220238Y-969238D02*
X6120238Y-969238D01*
X6134524Y-978762D01*
X6144048Y-988286D01*
X6148809Y-997809D01*
X5739238Y-1850250D02*
X5763048Y-1850250D01*
X5753524Y-1874059D02*
X5763048Y-1850250D01*
X5753524Y-1826440D01*
X5782095Y-1864536D02*
X5763048Y-1850250D01*
X5782095Y-1835964D01*
X5739238Y-1850250D02*
X5763048Y-1850250D01*
X5753524Y-1874059D02*
X5763048Y-1850250D01*
X5753524Y-1826440D01*
X5782095Y-1864536D02*
X5763048Y-1850250D01*
X5782095Y-1835964D01*
X2786810Y-3334238D02*
X2786810Y-3415190D01*
X2791571Y-3424714D01*
X2796333Y-3429476D01*
X2805857Y-3434238D01*
X2824905Y-3434238D01*
X2834428Y-3429476D01*
X2839190Y-3424714D01*
X2843952Y-3415190D01*
X2843952Y-3334238D01*
X2943952Y-3434238D02*
X2886809Y-3434238D01*
X2915381Y-3434238D02*
X2915381Y-3334238D01*
X2905857Y-3348524D01*
X2896333Y-3358048D01*
X2886809Y-3362809D01*
X4941667Y-6295238D02*
X4941667Y-6366667D01*
X4936905Y-6380952D01*
X4927381Y-6390476D01*
X4913095Y-6395238D01*
X4903571Y-6395238D01*
X4994048Y-6395238D02*
X5013095Y-6395238D01*
X5022619Y-6390476D01*
X5027381Y-6385714D01*
X5036905Y-6371428D01*
X5041667Y-6352381D01*
X5041667Y-6314286D01*
X5036905Y-6304762D01*
X5032143Y-6300000D01*
X5022619Y-6295238D01*
X5003571Y-6295238D01*
X4994048Y-6300000D01*
X4989286Y-6304762D01*
X4984524Y-6314286D01*
X4984524Y-6338095D01*
X4989286Y-6347619D01*
X4994048Y-6352381D01*
X5003571Y-6357143D01*
X5022619Y-6357143D01*
X5032143Y-6352381D01*
X5036905Y-6347619D01*
X5041667Y-6338095D01*
X4816667Y-545238D02*
X4816667Y-616667D01*
X4811905Y-630952D01*
X4802381Y-640476D01*
X4788095Y-645238D01*
X4778571Y-645238D01*
X4859524Y-554762D02*
X4864286Y-550000D01*
X4873810Y-545238D01*
X4897619Y-545238D01*
X4907143Y-550000D01*
X4911905Y-554762D01*
X4916667Y-564286D01*
X4916667Y-573810D01*
X4911905Y-588095D01*
X4854762Y-645238D01*
X4916667Y-645238D01*
X3066667Y-545238D02*
X3066667Y-616667D01*
X3061905Y-630952D01*
X3052381Y-640476D01*
X3038095Y-645238D01*
X3028571Y-645238D01*
X3157143Y-578571D02*
X3157143Y-645238D01*
X3133333Y-540476D02*
X3109524Y-611905D01*
X3171428Y-611905D01*
X8983810Y-6315238D02*
X8983810Y-6215238D01*
X8983810Y-6262857D02*
X9040952Y-6262857D01*
X9040952Y-6315238D02*
X9040952Y-6215238D01*
X9131429Y-6248571D02*
X9131429Y-6315238D01*
X9107619Y-6210476D02*
X9083810Y-6281905D01*
X9145714Y-6281905D01*
X1323810Y-6315238D02*
X1323810Y-6215238D01*
X1323810Y-6262857D02*
X1380952Y-6262857D01*
X1380952Y-6315238D02*
X1380952Y-6215238D01*
X1419048Y-6215238D02*
X1480952Y-6215238D01*
X1447619Y-6253333D01*
X1461905Y-6253333D01*
X1471428Y-6258095D01*
X1476190Y-6262857D01*
X1480952Y-6272381D01*
X1480952Y-6296190D01*
X1476190Y-6305714D01*
X1471428Y-6310476D01*
X1461905Y-6315238D01*
X1433333Y-6315238D01*
X1423809Y-6310476D01*
X1419048Y-6305714D01*
X1323810Y34762D02*
X1323810Y134762D01*
X1323810Y87143D02*
X1380952Y87143D01*
X1380952Y34762D02*
X1380952Y134762D01*
X1423809Y125238D02*
X1428571Y130000D01*
X1438095Y134762D01*
X1461905Y134762D01*
X1471428Y130000D01*
X1476190Y125238D01*
X1480952Y115714D01*
X1480952Y106190D01*
X1476190Y91905D01*
X1419048Y34762D01*
X1480952Y34762D01*
X8983810Y34762D02*
X8983810Y134762D01*
X8983810Y87143D02*
X9040952Y87143D01*
X9040952Y34762D02*
X9040952Y134762D01*
X9140952Y34762D02*
X9083810Y34762D01*
X9112381Y34762D02*
X9112381Y134762D01*
X9102857Y120476D01*
X9093333Y110952D01*
X9083810Y106190D01*
X3982238Y-5706667D02*
X3934619Y-5740000D01*
X3982238Y-5763809D02*
X3882238Y-5763809D01*
X3882238Y-5725714D01*
X3887000Y-5716190D01*
X3891762Y-5711428D01*
X3901286Y-5706667D01*
X3915571Y-5706667D01*
X3925095Y-5711428D01*
X3929857Y-5716190D01*
X3934619Y-5725714D01*
X3934619Y-5763809D01*
X3882238Y-5616190D02*
X3882238Y-5663809D01*
X3929857Y-5668571D01*
X3925095Y-5663809D01*
X3920333Y-5654286D01*
X3920333Y-5630476D01*
X3925095Y-5620952D01*
X3929857Y-5616190D01*
X3939381Y-5611428D01*
X3963190Y-5611428D01*
X3972714Y-5616190D01*
X3977476Y-5620952D01*
X3982238Y-5630476D01*
X3982238Y-5654286D01*
X3977476Y-5663809D01*
X3972714Y-5668571D01*
X9523333Y-2248238D02*
X9490000Y-2200619D01*
X9466190Y-2248238D02*
X9466190Y-2148238D01*
X9504286Y-2148238D01*
X9513810Y-2153000D01*
X9518571Y-2157762D01*
X9523333Y-2167286D01*
X9523333Y-2181571D01*
X9518571Y-2191095D01*
X9513810Y-2195857D01*
X9504286Y-2200619D01*
X9466190Y-2200619D01*
X9609048Y-2181571D02*
X9609048Y-2248238D01*
X9585238Y-2143476D02*
X9561429Y-2214905D01*
X9623333Y-2214905D01*
X6193333Y-1952238D02*
X6160000Y-1904619D01*
X6136190Y-1952238D02*
X6136190Y-1852238D01*
X6174286Y-1852238D01*
X6183809Y-1857000D01*
X6188571Y-1861762D01*
X6193333Y-1871286D01*
X6193333Y-1885571D01*
X6188571Y-1895095D01*
X6183809Y-1899857D01*
X6174286Y-1904619D01*
X6136190Y-1904619D01*
X6226667Y-1852238D02*
X6288571Y-1852238D01*
X6255238Y-1890333D01*
X6269524Y-1890333D01*
X6279048Y-1895095D01*
X6283809Y-1899857D01*
X6288571Y-1909381D01*
X6288571Y-1933190D01*
X6283809Y-1942714D01*
X6279048Y-1947476D01*
X6269524Y-1952238D01*
X6240952Y-1952238D01*
X6231428Y-1947476D01*
X6226667Y-1942714D01*
X6553333Y-3732238D02*
X6520000Y-3684619D01*
X6496190Y-3732238D02*
X6496190Y-3632238D01*
X6534286Y-3632238D01*
X6543809Y-3637000D01*
X6548571Y-3641762D01*
X6553333Y-3651286D01*
X6553333Y-3665571D01*
X6548571Y-3675095D01*
X6543809Y-3679857D01*
X6534286Y-3684619D01*
X6496190Y-3684619D01*
X6591428Y-3641762D02*
X6596190Y-3637000D01*
X6605714Y-3632238D01*
X6629524Y-3632238D01*
X6639048Y-3637000D01*
X6643809Y-3641762D01*
X6648571Y-3651286D01*
X6648571Y-3660809D01*
X6643809Y-3675095D01*
X6586667Y-3732238D01*
X6648571Y-3732238D01*
X6423333Y-2652238D02*
X6390000Y-2604619D01*
X6366190Y-2652238D02*
X6366190Y-2552238D01*
X6404286Y-2552238D01*
X6413809Y-2557000D01*
X6418571Y-2561762D01*
X6423333Y-2571286D01*
X6423333Y-2585571D01*
X6418571Y-2595095D01*
X6413809Y-2599857D01*
X6404286Y-2604619D01*
X6366190Y-2604619D01*
X6518571Y-2652238D02*
X6461428Y-2652238D01*
X6490000Y-2652238D02*
X6490000Y-2552238D01*
X6480476Y-2566524D01*
X6470952Y-2576048D01*
X6461428Y-2580810D01*
X9466190Y-2428238D02*
X9466190Y-2328238D01*
X9490000Y-2328238D01*
X9504286Y-2333000D01*
X9513810Y-2342524D01*
X9518571Y-2352048D01*
X9523333Y-2371095D01*
X9523333Y-2385381D01*
X9518571Y-2404429D01*
X9513810Y-2413952D01*
X9504286Y-2423476D01*
X9490000Y-2428238D01*
X9466190Y-2428238D01*
X9618571Y-2428238D02*
X9561429Y-2428238D01*
X9590000Y-2428238D02*
X9590000Y-2328238D01*
X9580476Y-2342524D01*
X9570952Y-2352048D01*
X9561429Y-2356810D01*
X7773333Y-4708714D02*
X7768571Y-4713476D01*
X7754286Y-4718238D01*
X7744762Y-4718238D01*
X7730476Y-4713476D01*
X7720952Y-4703952D01*
X7716190Y-4694429D01*
X7711428Y-4675381D01*
X7711428Y-4661095D01*
X7716190Y-4642048D01*
X7720952Y-4632524D01*
X7730476Y-4623000D01*
X7744762Y-4618238D01*
X7754286Y-4618238D01*
X7768571Y-4623000D01*
X7773333Y-4627762D01*
X7806667Y-4618238D02*
X7868571Y-4618238D01*
X7835238Y-4656333D01*
X7849524Y-4656333D01*
X7859048Y-4661095D01*
X7863809Y-4665857D01*
X7868571Y-4675381D01*
X7868571Y-4699190D01*
X7863809Y-4708714D01*
X7859048Y-4713476D01*
X7849524Y-4718238D01*
X7820952Y-4718238D01*
X7811428Y-4713476D01*
X7806667Y-4708714D01*
X2360714Y-1596667D02*
X2365476Y-1601428D01*
X2370238Y-1615714D01*
X2370238Y-1625238D01*
X2365476Y-1639524D01*
X2355952Y-1649048D01*
X2346429Y-1653809D01*
X2327381Y-1658571D01*
X2313095Y-1658571D01*
X2294048Y-1653809D01*
X2284524Y-1649048D01*
X2275000Y-1639524D01*
X2270238Y-1625238D01*
X2270238Y-1615714D01*
X2275000Y-1601428D01*
X2279762Y-1596667D01*
X2279762Y-1558571D02*
X2275000Y-1553809D01*
X2270238Y-1544286D01*
X2270238Y-1520476D01*
X2275000Y-1510952D01*
X2279762Y-1506190D01*
X2289286Y-1501428D01*
X2298810Y-1501428D01*
X2313095Y-1506190D01*
X2370238Y-1563333D01*
X2370238Y-1501428D01*
X2135714Y-1596667D02*
X2140476Y-1601428D01*
X2145238Y-1615714D01*
X2145238Y-1625238D01*
X2140476Y-1639524D01*
X2130952Y-1649048D01*
X2121429Y-1653809D01*
X2102381Y-1658571D01*
X2088095Y-1658571D01*
X2069048Y-1653809D01*
X2059524Y-1649048D01*
X2050000Y-1639524D01*
X2045238Y-1625238D01*
X2045238Y-1615714D01*
X2050000Y-1601428D01*
X2054762Y-1596667D01*
X2145238Y-1501428D02*
X2145238Y-1558571D01*
X2145238Y-1530000D02*
X2045238Y-1530000D01*
X2059524Y-1539524D01*
X2069048Y-1549048D01*
X2073809Y-1558571D01*
%LPC*%
D16*
X9283607Y-6650000D02*
G75*
G03*
X9283607Y-6650000I-223607J0D01*
G01*
X1623607Y-6650000D02*
G75*
G03*
X1623607Y-6650000I-223607J0D01*
G01*
X1623607Y-300000D02*
G75*
G03*
X1623607Y-300000I-223607J0D01*
G01*
X9283607Y-300000D02*
G75*
G03*
X9283607Y-300000I-223607J0D01*
G01*
D17*
X8685000Y-6400000D03*
X9435000Y-6400000D03*
X8685000Y-5900000D03*
X9435000Y-5900000D03*
X9435000Y-550000D03*
X8685000Y-550000D03*
X9435000Y-1050000D03*
X8685000Y-1050000D03*
X1025000Y-6400000D03*
X1775000Y-6400000D03*
X1025000Y-5900000D03*
X1775000Y-5900000D03*
X1775000Y-550000D03*
X1025000Y-550000D03*
X1775000Y-1050000D03*
X1025000Y-1050000D03*
D18*
X9000000Y-2840000D03*
X9000000Y-4110000D03*
D19*
X9317500Y-2668550D03*
X9317500Y-4281450D03*
D20*
X7476000Y-3576600D03*
X7476000Y-3779800D03*
X7476000Y-3983000D03*
X7222000Y-3678200D03*
X7222000Y-3881400D03*
X7222000Y-4084600D03*
D21*
X6968000Y-2865400D03*
X6968000Y-3119400D03*
X6968000Y-4084600D03*
X6968000Y-3830600D03*
D22*
X8187200Y-2916200D03*
X8187200Y-4033800D03*
X8339600Y-2916200D03*
X8339600Y-4033800D03*
D23*
X7476000Y-2967000D03*
D20*
X7476000Y-3170200D03*
X7476000Y-3373400D03*
X7222000Y-2865400D03*
X7222000Y-3068600D03*
X7222000Y-3271800D03*
D24*
X6048000Y-1824850D03*
X6302000Y-1824850D03*
X6302000Y-923150D03*
X6048000Y-923150D03*
D25*
X3529000Y-5042000D03*
X1569000Y-5350000D03*
X1609000Y-5350000D03*
X1649000Y-5350000D03*
X1689000Y-5350000D03*
X1729000Y-5350000D03*
X1769000Y-5350000D03*
X1809000Y-5350000D03*
X1849000Y-5350000D03*
X1889000Y-5350000D03*
X1929000Y-5350000D03*
X1969000Y-5350000D03*
X2009000Y-5350000D03*
X2049000Y-5350000D03*
X2089000Y-5350000D03*
X2129000Y-5350000D03*
X2169000Y-5350000D03*
X2209000Y-5350000D03*
X2249000Y-5350000D03*
X2289000Y-5350000D03*
X2329000Y-5350000D03*
X2369000Y-5350000D03*
X2409000Y-5350000D03*
X2449000Y-5350000D03*
X2489000Y-5350000D03*
X2529000Y-5350000D03*
X2569000Y-5350000D03*
X2609000Y-5350000D03*
X2649000Y-5350000D03*
X2689000Y-5350000D03*
X2729000Y-5350000D03*
X2769000Y-5350000D03*
X2809000Y-5350000D03*
X2849000Y-5350000D03*
X2889000Y-5350000D03*
X2929000Y-5350000D03*
X2969000Y-5350000D03*
X3009000Y-5350000D03*
X3049000Y-5350000D03*
X3089000Y-5350000D03*
X3129000Y-5350000D03*
X3169000Y-5350000D03*
X3209000Y-5350000D03*
X3249000Y-5350000D03*
X3289000Y-5350000D03*
X3329000Y-5350000D03*
X3369000Y-5350000D03*
X3409000Y-5350000D03*
X3449000Y-5350000D03*
X3489000Y-5350000D03*
X3529000Y-5350000D03*
D26*
X400000Y-1850000D03*
X400000Y-5150000D03*
X5200000Y-1850000D03*
X5200000Y-5150000D03*
D25*
X3489000Y-5042000D03*
X3449000Y-5042000D03*
X3409000Y-5042000D03*
X3369000Y-5042000D03*
X3329000Y-5042000D03*
X3289000Y-5042000D03*
X3249000Y-5042000D03*
X3209000Y-5042000D03*
X3169000Y-5042000D03*
X3129000Y-5042000D03*
X3089000Y-5042000D03*
X3049000Y-5042000D03*
X3009000Y-5042000D03*
X2969000Y-5042000D03*
X2929000Y-5042000D03*
X2889000Y-5042000D03*
X2849000Y-5042000D03*
X2809000Y-5042000D03*
X2769000Y-5042000D03*
X2729000Y-5042000D03*
X2689000Y-5042000D03*
X2649000Y-5042000D03*
X2609000Y-5042000D03*
X2569000Y-5042000D03*
X2529000Y-5042000D03*
X2489000Y-5042000D03*
X2449000Y-5042000D03*
X2409000Y-5042000D03*
X2369000Y-5042000D03*
X2329000Y-5042000D03*
X2289000Y-5042000D03*
X2249000Y-5042000D03*
X2209000Y-5042000D03*
X2169000Y-5042000D03*
X2129000Y-5042000D03*
X2089000Y-5042000D03*
X2049000Y-5042000D03*
X2009000Y-5042000D03*
X1969000Y-5042000D03*
X1929000Y-5042000D03*
X1889000Y-5042000D03*
X1849000Y-5042000D03*
X1809000Y-5042000D03*
X1769000Y-5042000D03*
X1729000Y-5042000D03*
X1689000Y-5042000D03*
X1649000Y-5042000D03*
X1609000Y-5042000D03*
X1569000Y-5042000D03*
X3529000Y-1650000D03*
X3529000Y-1958000D03*
X3489000Y-1650000D03*
X3489000Y-1958000D03*
X3449000Y-1650000D03*
X3449000Y-1958000D03*
X3409000Y-1650000D03*
X3409000Y-1958000D03*
X3369000Y-1650000D03*
X3369000Y-1958000D03*
X3329000Y-1650000D03*
X3329000Y-1958000D03*
X3289000Y-1650000D03*
X3289000Y-1958000D03*
X3249000Y-1650000D03*
X3249000Y-1958000D03*
X3209000Y-1650000D03*
X3209000Y-1958000D03*
X3169000Y-1650000D03*
X3169000Y-1958000D03*
X3129000Y-1650000D03*
X3129000Y-1958000D03*
X3089000Y-1650000D03*
X3089000Y-1958000D03*
X3049000Y-1650000D03*
X3049000Y-1958000D03*
X3009000Y-1650000D03*
X3009000Y-1958000D03*
X2969000Y-1650000D03*
X2969000Y-1958000D03*
X2929000Y-1650000D03*
X2929000Y-1958000D03*
X2889000Y-1650000D03*
X2889000Y-1958000D03*
X2849000Y-1650000D03*
X2849000Y-1958000D03*
X2809000Y-1650000D03*
X2809000Y-1958000D03*
X2769000Y-1650000D03*
X2769000Y-1958000D03*
X2729000Y-1650000D03*
X2729000Y-1958000D03*
X2689000Y-1650000D03*
X2689000Y-1958000D03*
X2649000Y-1650000D03*
X2649000Y-1958000D03*
X2609000Y-1650000D03*
X2609000Y-1958000D03*
X2569000Y-1650000D03*
X2569000Y-1958000D03*
X2529000Y-1650000D03*
X2529000Y-1958000D03*
X2489000Y-1650000D03*
X2489000Y-1958000D03*
X2449000Y-1650000D03*
X2449000Y-1958000D03*
X2409000Y-1650000D03*
X2409000Y-1958000D03*
X2369000Y-1650000D03*
X2369000Y-1958000D03*
X2329000Y-1650000D03*
X2329000Y-1958000D03*
X2289000Y-1650000D03*
X2289000Y-1958000D03*
X2249000Y-1650000D03*
X2249000Y-1958000D03*
X2209000Y-1650000D03*
X2209000Y-1958000D03*
X2169000Y-1650000D03*
X2169000Y-1958000D03*
X2129000Y-1650000D03*
X2129000Y-1958000D03*
X2089000Y-1650000D03*
X2089000Y-1958000D03*
X2049000Y-1650000D03*
X2049000Y-1958000D03*
X2009000Y-1650000D03*
X2009000Y-1958000D03*
X1969000Y-1650000D03*
X1969000Y-1958000D03*
X1929000Y-1650000D03*
X1929000Y-1958000D03*
X1889000Y-1650000D03*
X1889000Y-1958000D03*
X1849000Y-1650000D03*
X1849000Y-1958000D03*
X1809000Y-1650000D03*
X1809000Y-1958000D03*
X1769000Y-1650000D03*
X1769000Y-1958000D03*
X1729000Y-1650000D03*
X1729000Y-1958000D03*
X1689000Y-1650000D03*
X1689000Y-1958000D03*
X1649000Y-1650000D03*
X1649000Y-1958000D03*
X1609000Y-1650000D03*
X1609000Y-1958000D03*
X1569000Y-1650000D03*
X1569000Y-1958000D03*
D27*
X5500000Y-6050000D03*
X5150000Y-6050000D03*
X4800000Y-6050000D03*
D28*
X4450000Y-6050000D03*
D27*
X4350000Y-900000D03*
X4700000Y-900000D03*
X5050000Y-900000D03*
D28*
X5400000Y-900000D03*
D27*
X2750000Y-900000D03*
X3100000Y-900000D03*
D28*
X3450000Y-900000D03*
D29*
X9060000Y-6650000D03*
X1400000Y-6650000D03*
X1400000Y-300000D03*
X9060000Y-300000D03*
D30*
X2600000Y-6250000D03*
D31*
X2600000Y-5996000D03*
X2854000Y-6250000D03*
X2854000Y-5996000D03*
X3108000Y-6250000D03*
X3108000Y-5996000D03*
X3362000Y-6250000D03*
X3362000Y-5996000D03*
X3616000Y-6250000D03*
X3616000Y-5996000D03*
G36*
G01*
X4107500Y-5812500D02*
X4052500Y-5812500D01*
G75*
G02*
X4032500Y-5792500I0J20000D01*
G01*
X4032500Y-5752500D01*
G75*
G02*
X4052500Y-5732500I20000J0D01*
G01*
X4107500Y-5732500D01*
G75*
G02*
X4127500Y-5752500I0J-20000D01*
G01*
X4127500Y-5792500D01*
G75*
G02*
X4107500Y-5812500I-20000J0D01*
G01*
G37*
G36*
G01*
X4107500Y-5647500D02*
X4052500Y-5647500D01*
G75*
G02*
X4032500Y-5627500I0J20000D01*
G01*
X4032500Y-5587500D01*
G75*
G02*
X4052500Y-5567500I20000J0D01*
G01*
X4107500Y-5567500D01*
G75*
G02*
X4127500Y-5587500I0J-20000D01*
G01*
X4127500Y-5627500D01*
G75*
G02*
X4107500Y-5647500I-20000J0D01*
G01*
G37*
G36*
G01*
X9662500Y-2032500D02*
X9662500Y-2087500D01*
G75*
G02*
X9642500Y-2107500I-20000J0D01*
G01*
X9602500Y-2107500D01*
G75*
G02*
X9582500Y-2087500I0J20000D01*
G01*
X9582500Y-2032500D01*
G75*
G02*
X9602500Y-2012500I20000J0D01*
G01*
X9642500Y-2012500D01*
G75*
G02*
X9662500Y-2032500I0J-20000D01*
G01*
G37*
G36*
G01*
X9497500Y-2032500D02*
X9497500Y-2087500D01*
G75*
G02*
X9477500Y-2107500I-20000J0D01*
G01*
X9437500Y-2107500D01*
G75*
G02*
X9417500Y-2087500I0J20000D01*
G01*
X9417500Y-2032500D01*
G75*
G02*
X9437500Y-2012500I20000J0D01*
G01*
X9477500Y-2012500D01*
G75*
G02*
X9497500Y-2032500I0J-20000D01*
G01*
G37*
G36*
G01*
X6252500Y-2077500D02*
X6252500Y-2022500D01*
G75*
G02*
X6272500Y-2002500I20000J0D01*
G01*
X6312500Y-2002500D01*
G75*
G02*
X6332500Y-2022500I0J-20000D01*
G01*
X6332500Y-2077500D01*
G75*
G02*
X6312500Y-2097500I-20000J0D01*
G01*
X6272500Y-2097500D01*
G75*
G02*
X6252500Y-2077500I0J20000D01*
G01*
G37*
G36*
G01*
X6087500Y-2077500D02*
X6087500Y-2022500D01*
G75*
G02*
X6107500Y-2002500I20000J0D01*
G01*
X6147500Y-2002500D01*
G75*
G02*
X6167500Y-2022500I0J-20000D01*
G01*
X6167500Y-2077500D01*
G75*
G02*
X6147500Y-2097500I-20000J0D01*
G01*
X6107500Y-2097500D01*
G75*
G02*
X6087500Y-2077500I0J20000D01*
G01*
G37*
G36*
G01*
X6447500Y-3857500D02*
X6447500Y-3802500D01*
G75*
G02*
X6467500Y-3782500I20000J0D01*
G01*
X6507500Y-3782500D01*
G75*
G02*
X6527500Y-3802500I0J-20000D01*
G01*
X6527500Y-3857500D01*
G75*
G02*
X6507500Y-3877500I-20000J0D01*
G01*
X6467500Y-3877500D01*
G75*
G02*
X6447500Y-3857500I0J20000D01*
G01*
G37*
G36*
G01*
X6612500Y-3857500D02*
X6612500Y-3802500D01*
G75*
G02*
X6632500Y-3782500I20000J0D01*
G01*
X6672500Y-3782500D01*
G75*
G02*
X6692500Y-3802500I0J-20000D01*
G01*
X6692500Y-3857500D01*
G75*
G02*
X6672500Y-3877500I-20000J0D01*
G01*
X6632500Y-3877500D01*
G75*
G02*
X6612500Y-3857500I0J20000D01*
G01*
G37*
G36*
G01*
X6317500Y-2777500D02*
X6317500Y-2722500D01*
G75*
G02*
X6337500Y-2702500I20000J0D01*
G01*
X6377500Y-2702500D01*
G75*
G02*
X6397500Y-2722500I0J-20000D01*
G01*
X6397500Y-2777500D01*
G75*
G02*
X6377500Y-2797500I-20000J0D01*
G01*
X6337500Y-2797500D01*
G75*
G02*
X6317500Y-2777500I0J20000D01*
G01*
G37*
G36*
G01*
X6482500Y-2777500D02*
X6482500Y-2722500D01*
G75*
G02*
X6502500Y-2702500I20000J0D01*
G01*
X6542500Y-2702500D01*
G75*
G02*
X6562500Y-2722500I0J-20000D01*
G01*
X6562500Y-2777500D01*
G75*
G02*
X6542500Y-2797500I-20000J0D01*
G01*
X6502500Y-2797500D01*
G75*
G02*
X6482500Y-2777500I0J20000D01*
G01*
G37*
G36*
G01*
X9662500Y-2214375D02*
X9662500Y-2265625D01*
G75*
G02*
X9640625Y-2287500I-21875J0D01*
G01*
X9596875Y-2287500D01*
G75*
G02*
X9575000Y-2265625I0J21875D01*
G01*
X9575000Y-2214375D01*
G75*
G02*
X9596875Y-2192500I21875J0D01*
G01*
X9640625Y-2192500D01*
G75*
G02*
X9662500Y-2214375I0J-21875D01*
G01*
G37*
G36*
G01*
X9505000Y-2214375D02*
X9505000Y-2265625D01*
G75*
G02*
X9483125Y-2287500I-21875J0D01*
G01*
X9439375Y-2287500D01*
G75*
G02*
X9417500Y-2265625I0J21875D01*
G01*
X9417500Y-2214375D01*
G75*
G02*
X9439375Y-2192500I21875J0D01*
G01*
X9483125Y-2192500D01*
G75*
G02*
X9505000Y-2214375I0J-21875D01*
G01*
G37*
G36*
G01*
X7912500Y-4505000D02*
X7912500Y-4555000D01*
G75*
G02*
X7890000Y-4577500I-22500J0D01*
G01*
X7845000Y-4577500D01*
G75*
G02*
X7822500Y-4555000I0J22500D01*
G01*
X7822500Y-4505000D01*
G75*
G02*
X7845000Y-4482500I22500J0D01*
G01*
X7890000Y-4482500D01*
G75*
G02*
X7912500Y-4505000I0J-22500D01*
G01*
G37*
G36*
G01*
X7757500Y-4505000D02*
X7757500Y-4555000D01*
G75*
G02*
X7735000Y-4577500I-22500J0D01*
G01*
X7690000Y-4577500D01*
G75*
G02*
X7667500Y-4555000I0J22500D01*
G01*
X7667500Y-4505000D01*
G75*
G02*
X7690000Y-4482500I22500J0D01*
G01*
X7735000Y-4482500D01*
G75*
G02*
X7757500Y-4505000I0J-22500D01*
G01*
G37*
G36*
G01*
X2375000Y-1425000D02*
X2280000Y-1425000D01*
G75*
G02*
X2255000Y-1400000I0J25000D01*
G01*
X2255000Y-1350000D01*
G75*
G02*
X2280000Y-1325000I25000J0D01*
G01*
X2375000Y-1325000D01*
G75*
G02*
X2400000Y-1350000I0J-25000D01*
G01*
X2400000Y-1400000D01*
G75*
G02*
X2375000Y-1425000I-25000J0D01*
G01*
G37*
G36*
G01*
X2375000Y-1235000D02*
X2280000Y-1235000D01*
G75*
G02*
X2255000Y-1210000I0J25000D01*
G01*
X2255000Y-1160000D01*
G75*
G02*
X2280000Y-1135000I25000J0D01*
G01*
X2375000Y-1135000D01*
G75*
G02*
X2400000Y-1160000I0J-25000D01*
G01*
X2400000Y-1210000D01*
G75*
G02*
X2375000Y-1235000I-25000J0D01*
G01*
G37*
G36*
G01*
X2126400Y-1404100D02*
X2076400Y-1404100D01*
G75*
G02*
X2053900Y-1381600I0J22500D01*
G01*
X2053900Y-1336600D01*
G75*
G02*
X2076400Y-1314100I22500J0D01*
G01*
X2126400Y-1314100D01*
G75*
G02*
X2148900Y-1336600I0J-22500D01*
G01*
X2148900Y-1381600D01*
G75*
G02*
X2126400Y-1404100I-22500J0D01*
G01*
G37*
G36*
G01*
X2126400Y-1249100D02*
X2076400Y-1249100D01*
G75*
G02*
X2053900Y-1226600I0J22500D01*
G01*
X2053900Y-1181600D01*
G75*
G02*
X2076400Y-1159100I22500J0D01*
G01*
X2126400Y-1159100D01*
G75*
G02*
X2148900Y-1181600I0J-22500D01*
G01*
X2148900Y-1226600D01*
G75*
G02*
X2126400Y-1249100I-22500J0D01*
G01*
G37*
M02*
