%TF.GenerationSoftware,KiCad,Pcbnew,5.1.10*%
%TF.CreationDate,2021-07-27T11:18:45+02:00*%
%TF.ProjectId,lxbmc,6c78626d-632e-46b6-9963-61645f706362,rev?*%
%TF.SameCoordinates,Original*%
%TF.FileFunction,Copper,L2,Inr*%
%TF.FilePolarity,Positive*%
%FSLAX45Y45*%
G04 Gerber Fmt 4.5, Leading zero omitted, Abs format (unit mm)*
G04 Created by KiCad (PCBNEW 5.1.10) date 2021-07-27 11:18:45*
%MOMM*%
%LPD*%
G01*
G04 APERTURE LIST*
%TA.AperFunction,Profile*%
%ADD10C,0.200000*%
%TD*%
%TA.AperFunction,ComponentPad*%
%ADD11C,2.925000*%
%TD*%
%TA.AperFunction,ComponentPad*%
%ADD12C,2.362200*%
%TD*%
%TA.AperFunction,ComponentPad*%
%ADD13C,1.524000*%
%TD*%
%TA.AperFunction,ComponentPad*%
%ADD14C,1.714500*%
%TD*%
%TA.AperFunction,ComponentPad*%
%ADD15C,1.371600*%
%TD*%
%TA.AperFunction,ComponentPad*%
%ADD16R,1.524000X1.524000*%
%TD*%
%TA.AperFunction,ComponentPad*%
%ADD17C,2.300000*%
%TD*%
%TA.AperFunction,ComponentPad*%
%ADD18R,2.300000X2.300000*%
%TD*%
%TA.AperFunction,ComponentPad*%
%ADD19R,1.700000X1.700000*%
%TD*%
%TA.AperFunction,ComponentPad*%
%ADD20O,1.700000X1.700000*%
%TD*%
%TA.AperFunction,ViaPad*%
%ADD21C,0.500000*%
%TD*%
%TA.AperFunction,ViaPad*%
%ADD22C,0.800000*%
%TD*%
%TA.AperFunction,Conductor*%
%ADD23C,0.254000*%
%TD*%
%TA.AperFunction,Conductor*%
%ADD24C,0.150000*%
%TD*%
G04 APERTURE END LIST*
D10*
X300000Y-6950000D02*
G75*
G02*
X0Y-6650000I0J300000D01*
G01*
X0Y-300000D02*
G75*
G02*
X300000Y0I300000J0D01*
G01*
X10000000Y-6650000D02*
G75*
G02*
X9700000Y-6950000I-300000J0D01*
G01*
X9700000Y0D02*
G75*
G02*
X10000000Y-300000I0J-300000D01*
G01*
X300000Y0D02*
X9700000Y0D01*
X0Y-6650000D02*
X0Y-300000D01*
X10000000Y-300000D02*
X10000000Y-6650000D01*
X9700000Y-6950000D02*
X300000Y-6950000D01*
D11*
X8685000Y-6400000D03*
X9435000Y-6400000D03*
X8685000Y-5900000D03*
X9435000Y-5900000D03*
X9435000Y-550000D03*
X8685000Y-550000D03*
X9435000Y-1050000D03*
X8685000Y-1050000D03*
X1025000Y-6400000D03*
X1775000Y-6400000D03*
X1025000Y-5900000D03*
X1775000Y-5900000D03*
X1775000Y-550000D03*
X1025000Y-550000D03*
X1775000Y-1050000D03*
X1025000Y-1050000D03*
D12*
X9317500Y-2668550D03*
X9317500Y-4281450D03*
D13*
X7476000Y-3576600D03*
X7476000Y-3779800D03*
X7476000Y-3983000D03*
X7222000Y-3678200D03*
X7222000Y-3881400D03*
X7222000Y-4084600D03*
D14*
X6968000Y-2865400D03*
X6968000Y-3119400D03*
X6968000Y-4084600D03*
X6968000Y-3830600D03*
D15*
X8187200Y-2916200D03*
X8187200Y-4033800D03*
X8339600Y-2916200D03*
X8339600Y-4033800D03*
D16*
X7476000Y-2967000D03*
D13*
X7476000Y-3170200D03*
X7476000Y-3373400D03*
X7222000Y-2865400D03*
X7222000Y-3068600D03*
X7222000Y-3271800D03*
D17*
X5500000Y-6050000D03*
X5150000Y-6050000D03*
X4800000Y-6050000D03*
D18*
X4450000Y-6050000D03*
D17*
X4350000Y-900000D03*
X4700000Y-900000D03*
X5050000Y-900000D03*
D18*
X5400000Y-900000D03*
D17*
X2750000Y-900000D03*
X3100000Y-900000D03*
D18*
X3450000Y-900000D03*
D19*
X2600000Y-6250000D03*
D20*
X2600000Y-5996000D03*
X2854000Y-6250000D03*
X2854000Y-5996000D03*
X3108000Y-6250000D03*
X3108000Y-5996000D03*
X3362000Y-6250000D03*
X3362000Y-5996000D03*
X3616000Y-6250000D03*
X3616000Y-5996000D03*
D21*
X2090000Y-1880000D03*
X1620000Y-1880000D03*
X2370000Y-1880000D03*
X2520000Y-1880000D03*
X2730000Y-1880000D03*
X2930000Y-1870000D03*
X3120000Y-1870000D03*
X3280000Y-1880000D03*
X3400000Y-1880476D03*
X3610000Y-1980000D03*
X3410000Y-1550000D03*
X3530000Y-1570000D03*
X3090000Y-1720000D03*
X2890000Y-1720000D03*
X2690000Y-1720000D03*
X2370000Y-1730000D03*
X2250000Y-1730000D03*
X2130000Y-1730000D03*
X1609295Y-5110803D03*
X1730000Y-5120000D03*
X1840000Y-5120000D03*
X1970000Y-5120000D03*
X2080000Y-5130000D03*
X2210000Y-5120000D03*
X2330000Y-5130000D03*
X2450000Y-5120000D03*
X2810000Y-5130000D03*
X2930000Y-5130000D03*
X3050000Y-5130000D03*
X3170000Y-5130000D03*
X3280000Y-5130000D03*
X3400000Y-5140000D03*
X3410000Y-5280000D03*
X3290000Y-5280000D03*
X3170000Y-5280000D03*
X3050000Y-5270000D03*
X2930000Y-5280000D03*
X2810000Y-5280000D03*
X2690000Y-5280000D03*
X2570000Y-5280000D03*
X2449196Y-5281284D03*
X2329196Y-5281284D03*
X2209189Y-5281291D03*
X2089196Y-5281284D03*
X1962152Y-5276413D03*
X1850000Y-5280000D03*
X1730000Y-5280000D03*
X1610000Y-5280000D03*
X2100000Y-1020000D03*
X2330000Y-1030000D03*
X2210000Y-1020000D03*
X3260000Y-1760000D03*
X4080000Y-5880000D03*
X2500000Y-1560000D03*
X2250000Y-1875000D03*
X2580000Y-1800000D03*
X2433591Y-1777864D03*
D22*
X5530000Y-2270000D03*
X1940000Y-2180000D03*
D21*
X6200000Y-2760000D03*
X3040000Y-1800000D03*
X3240000Y-1560000D03*
X6360000Y-3800000D03*
X3240000Y-2060000D03*
X5980000Y-2060000D03*
X3100000Y-1560000D03*
X9300000Y-2060000D03*
D23*
X9743926Y-78159D02*
X9786178Y-90916D01*
X9825148Y-111637D01*
X9859351Y-139532D01*
X9887485Y-173540D01*
X9908477Y-212364D01*
X9921529Y-254526D01*
X9926500Y-301827D01*
X9926500Y-6646404D01*
X9921841Y-6693925D01*
X9909084Y-6736178D01*
X9888363Y-6775148D01*
X9860468Y-6809351D01*
X9826460Y-6837485D01*
X9787636Y-6858477D01*
X9745474Y-6871528D01*
X9698173Y-6876500D01*
X303595Y-6876500D01*
X256074Y-6871841D01*
X213822Y-6859084D01*
X174852Y-6838363D01*
X140649Y-6810468D01*
X112515Y-6776460D01*
X91523Y-6737636D01*
X78472Y-6695474D01*
X73500Y-6648173D01*
X73500Y-6627987D01*
X1176500Y-6627987D01*
X1176500Y-6672013D01*
X1185089Y-6715192D01*
X1201937Y-6755867D01*
X1226396Y-6792473D01*
X1257527Y-6823604D01*
X1294133Y-6848063D01*
X1334808Y-6864911D01*
X1377987Y-6873500D01*
X1422013Y-6873500D01*
X1465192Y-6864911D01*
X1505867Y-6848063D01*
X1542473Y-6823604D01*
X1573604Y-6792473D01*
X1598063Y-6755867D01*
X1614911Y-6715192D01*
X1623500Y-6672013D01*
X1623500Y-6627987D01*
X8836500Y-6627987D01*
X8836500Y-6672013D01*
X8845089Y-6715192D01*
X8861937Y-6755867D01*
X8886396Y-6792473D01*
X8917527Y-6823604D01*
X8954133Y-6848063D01*
X8994808Y-6864911D01*
X9037987Y-6873500D01*
X9082013Y-6873500D01*
X9125193Y-6864911D01*
X9165867Y-6848063D01*
X9202473Y-6823604D01*
X9233604Y-6792473D01*
X9258063Y-6755867D01*
X9274911Y-6715192D01*
X9283500Y-6672013D01*
X9283500Y-6627987D01*
X9274911Y-6584807D01*
X9258063Y-6544133D01*
X9233604Y-6507527D01*
X9202473Y-6476396D01*
X9165867Y-6451937D01*
X9125193Y-6435089D01*
X9082013Y-6426500D01*
X9037987Y-6426500D01*
X8994808Y-6435089D01*
X8954133Y-6451937D01*
X8917527Y-6476396D01*
X8886396Y-6507527D01*
X8861937Y-6544133D01*
X8845089Y-6584807D01*
X8836500Y-6627987D01*
X1623500Y-6627987D01*
X1614911Y-6584807D01*
X1598063Y-6544133D01*
X1573604Y-6507527D01*
X1542473Y-6476396D01*
X1505867Y-6451937D01*
X1465192Y-6435089D01*
X1422013Y-6426500D01*
X1377987Y-6426500D01*
X1334808Y-6435089D01*
X1294133Y-6451937D01*
X1257527Y-6476396D01*
X1226396Y-6507527D01*
X1201937Y-6544133D01*
X1185089Y-6584807D01*
X1176500Y-6627987D01*
X73500Y-6627987D01*
X73500Y-6379341D01*
X815250Y-6379341D01*
X815250Y-6420659D01*
X823311Y-6461182D01*
X839122Y-6499354D01*
X862076Y-6533708D01*
X891292Y-6562923D01*
X925646Y-6585878D01*
X963818Y-6601689D01*
X1004341Y-6609750D01*
X1045659Y-6609750D01*
X1086182Y-6601689D01*
X1124354Y-6585878D01*
X1158708Y-6562923D01*
X1187924Y-6533708D01*
X1210878Y-6499354D01*
X1226689Y-6461182D01*
X1234750Y-6420659D01*
X1234750Y-6379341D01*
X1565250Y-6379341D01*
X1565250Y-6420659D01*
X1573311Y-6461182D01*
X1589122Y-6499354D01*
X1612076Y-6533708D01*
X1641292Y-6562923D01*
X1675646Y-6585878D01*
X1713818Y-6601689D01*
X1754341Y-6609750D01*
X1795659Y-6609750D01*
X1836182Y-6601689D01*
X1874354Y-6585878D01*
X1908708Y-6562923D01*
X1937923Y-6533708D01*
X1960878Y-6499354D01*
X1976689Y-6461182D01*
X1984750Y-6420659D01*
X1984750Y-6379341D01*
X1976689Y-6338818D01*
X1960878Y-6300646D01*
X1937923Y-6266292D01*
X1908708Y-6237076D01*
X1874354Y-6214122D01*
X1836182Y-6198311D01*
X1795659Y-6190250D01*
X1754341Y-6190250D01*
X1713818Y-6198311D01*
X1675646Y-6214122D01*
X1641292Y-6237076D01*
X1612076Y-6266292D01*
X1589122Y-6300646D01*
X1573311Y-6338818D01*
X1565250Y-6379341D01*
X1234750Y-6379341D01*
X1226689Y-6338818D01*
X1210878Y-6300646D01*
X1187924Y-6266292D01*
X1158708Y-6237076D01*
X1124354Y-6214122D01*
X1086182Y-6198311D01*
X1045659Y-6190250D01*
X1004341Y-6190250D01*
X963818Y-6198311D01*
X925646Y-6214122D01*
X891292Y-6237076D01*
X862076Y-6266292D01*
X839122Y-6300646D01*
X823311Y-6338818D01*
X815250Y-6379341D01*
X73500Y-6379341D01*
X73500Y-6165000D01*
X2451193Y-6165000D01*
X2451193Y-6335000D01*
X2452419Y-6347448D01*
X2456050Y-6359418D01*
X2461946Y-6370449D01*
X2469882Y-6380118D01*
X2479551Y-6388054D01*
X2490582Y-6393950D01*
X2502552Y-6397581D01*
X2515000Y-6398807D01*
X2685000Y-6398807D01*
X2697448Y-6397581D01*
X2709418Y-6393950D01*
X2720449Y-6388054D01*
X2730119Y-6380118D01*
X2738054Y-6370449D01*
X2743950Y-6359418D01*
X2746151Y-6352162D01*
X2759337Y-6365347D01*
X2783659Y-6381599D01*
X2810684Y-6392793D01*
X2839374Y-6398500D01*
X2868626Y-6398500D01*
X2897316Y-6392793D01*
X2924341Y-6381599D01*
X2948663Y-6365347D01*
X2969347Y-6344663D01*
X2981000Y-6327224D01*
X2992652Y-6344663D01*
X3013337Y-6365347D01*
X3037659Y-6381599D01*
X3064684Y-6392793D01*
X3093374Y-6398500D01*
X3122626Y-6398500D01*
X3151316Y-6392793D01*
X3178341Y-6381599D01*
X3202663Y-6365347D01*
X3223347Y-6344663D01*
X3235519Y-6326447D01*
X3242482Y-6338135D01*
X3261973Y-6359759D01*
X3285308Y-6377164D01*
X3311590Y-6389682D01*
X3326311Y-6394148D01*
X3349300Y-6382015D01*
X3349300Y-6262700D01*
X3347300Y-6262700D01*
X3347300Y-6237300D01*
X3349300Y-6237300D01*
X3349300Y-6008700D01*
X3347300Y-6008700D01*
X3347300Y-5983300D01*
X3349300Y-5983300D01*
X3349300Y-5863984D01*
X3374700Y-5863984D01*
X3374700Y-5983300D01*
X3376700Y-5983300D01*
X3376700Y-6008700D01*
X3374700Y-6008700D01*
X3374700Y-6237300D01*
X3376700Y-6237300D01*
X3376700Y-6262700D01*
X3374700Y-6262700D01*
X3374700Y-6382015D01*
X3397689Y-6394148D01*
X3412410Y-6389682D01*
X3438692Y-6377164D01*
X3462027Y-6359759D01*
X3481518Y-6338135D01*
X3488480Y-6326447D01*
X3500652Y-6344663D01*
X3521337Y-6365347D01*
X3545659Y-6381599D01*
X3572684Y-6392793D01*
X3601374Y-6398500D01*
X3630626Y-6398500D01*
X3659316Y-6392793D01*
X3686341Y-6381599D01*
X3689720Y-6379341D01*
X8475250Y-6379341D01*
X8475250Y-6420659D01*
X8483311Y-6461182D01*
X8499122Y-6499354D01*
X8522077Y-6533708D01*
X8551292Y-6562923D01*
X8585646Y-6585878D01*
X8623818Y-6601689D01*
X8664341Y-6609750D01*
X8705659Y-6609750D01*
X8746182Y-6601689D01*
X8784354Y-6585878D01*
X8818708Y-6562923D01*
X8847924Y-6533708D01*
X8870878Y-6499354D01*
X8886689Y-6461182D01*
X8894750Y-6420659D01*
X8894750Y-6379341D01*
X9225250Y-6379341D01*
X9225250Y-6420659D01*
X9233311Y-6461182D01*
X9249122Y-6499354D01*
X9272077Y-6533708D01*
X9301292Y-6562923D01*
X9335646Y-6585878D01*
X9373818Y-6601689D01*
X9414341Y-6609750D01*
X9455659Y-6609750D01*
X9496182Y-6601689D01*
X9534354Y-6585878D01*
X9568708Y-6562923D01*
X9597924Y-6533708D01*
X9620878Y-6499354D01*
X9636689Y-6461182D01*
X9644750Y-6420659D01*
X9644750Y-6379341D01*
X9636689Y-6338818D01*
X9620878Y-6300646D01*
X9597924Y-6266292D01*
X9568708Y-6237076D01*
X9534354Y-6214122D01*
X9496182Y-6198311D01*
X9455659Y-6190250D01*
X9414341Y-6190250D01*
X9373818Y-6198311D01*
X9335646Y-6214122D01*
X9301292Y-6237076D01*
X9272077Y-6266292D01*
X9249122Y-6300646D01*
X9233311Y-6338818D01*
X9225250Y-6379341D01*
X8894750Y-6379341D01*
X8886689Y-6338818D01*
X8870878Y-6300646D01*
X8847924Y-6266292D01*
X8818708Y-6237076D01*
X8784354Y-6214122D01*
X8746182Y-6198311D01*
X8705659Y-6190250D01*
X8664341Y-6190250D01*
X8623818Y-6198311D01*
X8585646Y-6214122D01*
X8551292Y-6237076D01*
X8522077Y-6266292D01*
X8499122Y-6300646D01*
X8483311Y-6338818D01*
X8475250Y-6379341D01*
X3689720Y-6379341D01*
X3710663Y-6365347D01*
X3731347Y-6344663D01*
X3747599Y-6320341D01*
X3758793Y-6293316D01*
X3764500Y-6264626D01*
X3764500Y-6235374D01*
X3758793Y-6206684D01*
X3747599Y-6179659D01*
X3731347Y-6155337D01*
X3710663Y-6134652D01*
X3693224Y-6123000D01*
X3710663Y-6111347D01*
X3731347Y-6090663D01*
X3747599Y-6066341D01*
X3758793Y-6039316D01*
X3764500Y-6010626D01*
X3764500Y-5981374D01*
X3758793Y-5952684D01*
X3751468Y-5935000D01*
X4271193Y-5935000D01*
X4271193Y-6165000D01*
X4272419Y-6177448D01*
X4276050Y-6189418D01*
X4281946Y-6200449D01*
X4289882Y-6210118D01*
X4299551Y-6218054D01*
X4310582Y-6223950D01*
X4322552Y-6227581D01*
X4335000Y-6228807D01*
X4565000Y-6228807D01*
X4577448Y-6227581D01*
X4589418Y-6223950D01*
X4600449Y-6218054D01*
X4610119Y-6210118D01*
X4618054Y-6200449D01*
X4623950Y-6189418D01*
X4627581Y-6177448D01*
X4628807Y-6165000D01*
X4628807Y-6103147D01*
X4641815Y-6134551D01*
X4661350Y-6163787D01*
X4686213Y-6188650D01*
X4715449Y-6208185D01*
X4747934Y-6221640D01*
X4782419Y-6228500D01*
X4817581Y-6228500D01*
X4852067Y-6221640D01*
X4884552Y-6208185D01*
X4913787Y-6188650D01*
X4938650Y-6163787D01*
X4958185Y-6134551D01*
X4971640Y-6102066D01*
X4975000Y-6085176D01*
X4978360Y-6102066D01*
X4991815Y-6134551D01*
X5011350Y-6163787D01*
X5036213Y-6188650D01*
X5065449Y-6208185D01*
X5097934Y-6221640D01*
X5132419Y-6228500D01*
X5167581Y-6228500D01*
X5202067Y-6221640D01*
X5234552Y-6208185D01*
X5263787Y-6188650D01*
X5278202Y-6174235D01*
X5393726Y-6174235D01*
X5405112Y-6202209D01*
X5436630Y-6217796D01*
X5470583Y-6226935D01*
X5505666Y-6229274D01*
X5540532Y-6224724D01*
X5573840Y-6213459D01*
X5594888Y-6202209D01*
X5606274Y-6174235D01*
X5500000Y-6067960D01*
X5393726Y-6174235D01*
X5278202Y-6174235D01*
X5288650Y-6163787D01*
X5308185Y-6134551D01*
X5321640Y-6102066D01*
X5324745Y-6086460D01*
X5325276Y-6090532D01*
X5336541Y-6123840D01*
X5347791Y-6144888D01*
X5375765Y-6156274D01*
X5482040Y-6050000D01*
X5517961Y-6050000D01*
X5624235Y-6156274D01*
X5652209Y-6144888D01*
X5667796Y-6113370D01*
X5676935Y-6079417D01*
X5679274Y-6044334D01*
X5674724Y-6009468D01*
X5663459Y-5976160D01*
X5652209Y-5955112D01*
X5624235Y-5943726D01*
X5517961Y-6050000D01*
X5482040Y-6050000D01*
X5375765Y-5943726D01*
X5347791Y-5955112D01*
X5332204Y-5986630D01*
X5324837Y-6014001D01*
X5321640Y-5997933D01*
X5308185Y-5965448D01*
X5288650Y-5936213D01*
X5278202Y-5925765D01*
X5393726Y-5925765D01*
X5500000Y-6032039D01*
X5606274Y-5925765D01*
X5594888Y-5897791D01*
X5563370Y-5882204D01*
X5552736Y-5879341D01*
X8475250Y-5879341D01*
X8475250Y-5920659D01*
X8483311Y-5961182D01*
X8499122Y-5999354D01*
X8522077Y-6033708D01*
X8551292Y-6062923D01*
X8585646Y-6085878D01*
X8623818Y-6101689D01*
X8664341Y-6109750D01*
X8705659Y-6109750D01*
X8746182Y-6101689D01*
X8784354Y-6085878D01*
X8818708Y-6062923D01*
X8847924Y-6033708D01*
X8870878Y-5999354D01*
X8886689Y-5961182D01*
X8894750Y-5920659D01*
X8894750Y-5879341D01*
X9225250Y-5879341D01*
X9225250Y-5920659D01*
X9233311Y-5961182D01*
X9249122Y-5999354D01*
X9272077Y-6033708D01*
X9301292Y-6062923D01*
X9335646Y-6085878D01*
X9373818Y-6101689D01*
X9414341Y-6109750D01*
X9455659Y-6109750D01*
X9496182Y-6101689D01*
X9534354Y-6085878D01*
X9568708Y-6062923D01*
X9597924Y-6033708D01*
X9620878Y-5999354D01*
X9636689Y-5961182D01*
X9644750Y-5920659D01*
X9644750Y-5879341D01*
X9636689Y-5838818D01*
X9620878Y-5800646D01*
X9597924Y-5766292D01*
X9568708Y-5737076D01*
X9534354Y-5714122D01*
X9496182Y-5698311D01*
X9455659Y-5690250D01*
X9414341Y-5690250D01*
X9373818Y-5698311D01*
X9335646Y-5714122D01*
X9301292Y-5737076D01*
X9272077Y-5766292D01*
X9249122Y-5800646D01*
X9233311Y-5838818D01*
X9225250Y-5879341D01*
X8894750Y-5879341D01*
X8886689Y-5838818D01*
X8870878Y-5800646D01*
X8847924Y-5766292D01*
X8818708Y-5737076D01*
X8784354Y-5714122D01*
X8746182Y-5698311D01*
X8705659Y-5690250D01*
X8664341Y-5690250D01*
X8623818Y-5698311D01*
X8585646Y-5714122D01*
X8551292Y-5737076D01*
X8522077Y-5766292D01*
X8499122Y-5800646D01*
X8483311Y-5838818D01*
X8475250Y-5879341D01*
X5552736Y-5879341D01*
X5529417Y-5873065D01*
X5494334Y-5870726D01*
X5459468Y-5875276D01*
X5426160Y-5886541D01*
X5405112Y-5897791D01*
X5393726Y-5925765D01*
X5278202Y-5925765D01*
X5263787Y-5911350D01*
X5234552Y-5891815D01*
X5202067Y-5878360D01*
X5167581Y-5871500D01*
X5132419Y-5871500D01*
X5097934Y-5878360D01*
X5065449Y-5891815D01*
X5036213Y-5911350D01*
X5011350Y-5936213D01*
X4991815Y-5965448D01*
X4978360Y-5997933D01*
X4975000Y-6014823D01*
X4971640Y-5997933D01*
X4958185Y-5965448D01*
X4938650Y-5936213D01*
X4913787Y-5911350D01*
X4884552Y-5891815D01*
X4852067Y-5878360D01*
X4817581Y-5871500D01*
X4782419Y-5871500D01*
X4747934Y-5878360D01*
X4715449Y-5891815D01*
X4686213Y-5911350D01*
X4661350Y-5936213D01*
X4641815Y-5965448D01*
X4628807Y-5996853D01*
X4628807Y-5935000D01*
X4627581Y-5922552D01*
X4623950Y-5910582D01*
X4618054Y-5899551D01*
X4610119Y-5889881D01*
X4600449Y-5881946D01*
X4589418Y-5876050D01*
X4577448Y-5872419D01*
X4565000Y-5871193D01*
X4335000Y-5871193D01*
X4322552Y-5872419D01*
X4310582Y-5876050D01*
X4299551Y-5881946D01*
X4289882Y-5889881D01*
X4281946Y-5899551D01*
X4276050Y-5910582D01*
X4272419Y-5922552D01*
X4271193Y-5935000D01*
X3751468Y-5935000D01*
X3747599Y-5925659D01*
X3731347Y-5901337D01*
X3710663Y-5880652D01*
X3686341Y-5864401D01*
X3659316Y-5853207D01*
X3630626Y-5847500D01*
X3601374Y-5847500D01*
X3572684Y-5853207D01*
X3545659Y-5864401D01*
X3521337Y-5880652D01*
X3500652Y-5901337D01*
X3488480Y-5919553D01*
X3481518Y-5907864D01*
X3462027Y-5886241D01*
X3438692Y-5868836D01*
X3412410Y-5856317D01*
X3397689Y-5851852D01*
X3374700Y-5863984D01*
X3349300Y-5863984D01*
X3326311Y-5851852D01*
X3311590Y-5856317D01*
X3285308Y-5868836D01*
X3261973Y-5886241D01*
X3242482Y-5907864D01*
X3235519Y-5919553D01*
X3223347Y-5901337D01*
X3202663Y-5880652D01*
X3178341Y-5864401D01*
X3151316Y-5853207D01*
X3122626Y-5847500D01*
X3093374Y-5847500D01*
X3064684Y-5853207D01*
X3037659Y-5864401D01*
X3013337Y-5880652D01*
X2992652Y-5901337D01*
X2981000Y-5918776D01*
X2969347Y-5901337D01*
X2948663Y-5880652D01*
X2924341Y-5864401D01*
X2897316Y-5853207D01*
X2868626Y-5847500D01*
X2839374Y-5847500D01*
X2810684Y-5853207D01*
X2783659Y-5864401D01*
X2759337Y-5880652D01*
X2738653Y-5901337D01*
X2727000Y-5918776D01*
X2715348Y-5901337D01*
X2694663Y-5880652D01*
X2670341Y-5864401D01*
X2643316Y-5853207D01*
X2614626Y-5847500D01*
X2585374Y-5847500D01*
X2556684Y-5853207D01*
X2529659Y-5864401D01*
X2505337Y-5880652D01*
X2484653Y-5901337D01*
X2468401Y-5925659D01*
X2457207Y-5952684D01*
X2451500Y-5981374D01*
X2451500Y-6010626D01*
X2457207Y-6039316D01*
X2468401Y-6066341D01*
X2484653Y-6090663D01*
X2497838Y-6103849D01*
X2490582Y-6106050D01*
X2479551Y-6111946D01*
X2469882Y-6119881D01*
X2461946Y-6129551D01*
X2456050Y-6140582D01*
X2452419Y-6152552D01*
X2451193Y-6165000D01*
X73500Y-6165000D01*
X73500Y-5879341D01*
X815250Y-5879341D01*
X815250Y-5920659D01*
X823311Y-5961182D01*
X839122Y-5999354D01*
X862076Y-6033708D01*
X891292Y-6062923D01*
X925646Y-6085878D01*
X963818Y-6101689D01*
X1004341Y-6109750D01*
X1045659Y-6109750D01*
X1086182Y-6101689D01*
X1124354Y-6085878D01*
X1158708Y-6062923D01*
X1187924Y-6033708D01*
X1210878Y-5999354D01*
X1226689Y-5961182D01*
X1234750Y-5920659D01*
X1234750Y-5879341D01*
X1565250Y-5879341D01*
X1565250Y-5920659D01*
X1573311Y-5961182D01*
X1589122Y-5999354D01*
X1612076Y-6033708D01*
X1641292Y-6062923D01*
X1675646Y-6085878D01*
X1713818Y-6101689D01*
X1754341Y-6109750D01*
X1795659Y-6109750D01*
X1836182Y-6101689D01*
X1874354Y-6085878D01*
X1908708Y-6062923D01*
X1937923Y-6033708D01*
X1960878Y-5999354D01*
X1976689Y-5961182D01*
X1984750Y-5920659D01*
X1984750Y-5879341D01*
X1976689Y-5838818D01*
X1960878Y-5800646D01*
X1937923Y-5766292D01*
X1908708Y-5737076D01*
X1874354Y-5714122D01*
X1836182Y-5698311D01*
X1795659Y-5690250D01*
X1754341Y-5690250D01*
X1713818Y-5698311D01*
X1675646Y-5714122D01*
X1641292Y-5737076D01*
X1612076Y-5766292D01*
X1589122Y-5800646D01*
X1573311Y-5838818D01*
X1565250Y-5879341D01*
X1234750Y-5879341D01*
X1226689Y-5838818D01*
X1210878Y-5800646D01*
X1187924Y-5766292D01*
X1158708Y-5737076D01*
X1124354Y-5714122D01*
X1086182Y-5698311D01*
X1045659Y-5690250D01*
X1004341Y-5690250D01*
X963818Y-5698311D01*
X925646Y-5714122D01*
X891292Y-5737076D01*
X862076Y-5766292D01*
X839122Y-5800646D01*
X823311Y-5838818D01*
X815250Y-5879341D01*
X73500Y-5879341D01*
X73500Y-5118709D01*
X82300Y-5118709D01*
X82300Y-5181291D01*
X94509Y-5242670D01*
X118458Y-5300487D01*
X153226Y-5352522D01*
X197478Y-5396774D01*
X249513Y-5431542D01*
X307330Y-5455491D01*
X368709Y-5467700D01*
X431291Y-5467700D01*
X492670Y-5455491D01*
X550487Y-5431542D01*
X602522Y-5396774D01*
X646774Y-5352522D01*
X681542Y-5300487D01*
X705491Y-5242670D01*
X717700Y-5181291D01*
X717700Y-5118709D01*
X4882300Y-5118709D01*
X4882300Y-5181291D01*
X4894509Y-5242670D01*
X4918458Y-5300487D01*
X4953226Y-5352522D01*
X4997478Y-5396774D01*
X5049513Y-5431542D01*
X5107330Y-5455491D01*
X5168709Y-5467700D01*
X5231291Y-5467700D01*
X5292670Y-5455491D01*
X5350487Y-5431542D01*
X5402522Y-5396774D01*
X5446774Y-5352522D01*
X5481542Y-5300487D01*
X5505491Y-5242670D01*
X5517700Y-5181291D01*
X5517700Y-5118709D01*
X5505491Y-5057330D01*
X5481542Y-4999513D01*
X5446774Y-4947478D01*
X5402522Y-4903226D01*
X5350487Y-4868458D01*
X5292670Y-4844509D01*
X5231291Y-4832300D01*
X5168709Y-4832300D01*
X5107330Y-4844509D01*
X5049513Y-4868458D01*
X4997478Y-4903226D01*
X4953226Y-4947478D01*
X4918458Y-4999513D01*
X4894509Y-5057330D01*
X4882300Y-5118709D01*
X717700Y-5118709D01*
X705491Y-5057330D01*
X681542Y-4999513D01*
X646774Y-4947478D01*
X602522Y-4903226D01*
X550487Y-4868458D01*
X492670Y-4844509D01*
X431291Y-4832300D01*
X368709Y-4832300D01*
X307330Y-4844509D01*
X249513Y-4868458D01*
X197478Y-4903226D01*
X153226Y-4947478D01*
X118458Y-4999513D01*
X94509Y-5057330D01*
X82300Y-5118709D01*
X73500Y-5118709D01*
X73500Y-4407901D01*
X9209009Y-4407901D01*
X9220770Y-4436193D01*
X9252818Y-4452091D01*
X9287351Y-4461431D01*
X9323043Y-4463855D01*
X9358522Y-4459268D01*
X9392424Y-4447849D01*
X9414230Y-4436193D01*
X9425991Y-4407901D01*
X9317500Y-4299411D01*
X9209009Y-4407901D01*
X73500Y-4407901D01*
X73500Y-3791283D01*
X6271500Y-3791283D01*
X6271500Y-3808716D01*
X6274901Y-3825814D01*
X6281572Y-3841920D01*
X6291258Y-3856415D01*
X6303584Y-3868742D01*
X6318079Y-3878428D01*
X6334185Y-3885099D01*
X6351283Y-3888500D01*
X6368716Y-3888500D01*
X6385814Y-3885099D01*
X6401920Y-3878428D01*
X6416415Y-3868742D01*
X6428742Y-3856415D01*
X6438428Y-3841920D01*
X6445099Y-3825814D01*
X6448500Y-3808716D01*
X6448500Y-3791283D01*
X6445099Y-3774185D01*
X6438428Y-3758079D01*
X6428742Y-3743584D01*
X6416415Y-3731258D01*
X6401920Y-3721572D01*
X6385814Y-3714901D01*
X6368716Y-3711500D01*
X6351283Y-3711500D01*
X6334185Y-3714901D01*
X6318079Y-3721572D01*
X6303584Y-3731258D01*
X6291258Y-3743584D01*
X6281572Y-3758079D01*
X6274901Y-3774185D01*
X6271500Y-3791283D01*
X73500Y-3791283D01*
X73500Y-2850703D01*
X6818775Y-2850703D01*
X6818775Y-2880097D01*
X6824510Y-2908927D01*
X6835759Y-2936084D01*
X6852089Y-2960525D01*
X6872875Y-2981311D01*
X6889471Y-2992400D01*
X6872875Y-3003489D01*
X6852089Y-3024275D01*
X6835759Y-3048715D01*
X6824510Y-3075873D01*
X6818775Y-3104703D01*
X6818775Y-3134097D01*
X6824510Y-3162927D01*
X6835759Y-3190084D01*
X6852089Y-3214525D01*
X6872875Y-3235311D01*
X6897315Y-3251641D01*
X6924473Y-3262890D01*
X6953303Y-3268625D01*
X6982697Y-3268625D01*
X7011527Y-3262890D01*
X7038684Y-3251641D01*
X7063125Y-3235311D01*
X7083911Y-3214525D01*
X7100241Y-3190084D01*
X7111490Y-3162927D01*
X7112757Y-3156559D01*
X7113488Y-3157653D01*
X7126034Y-3170200D01*
X7113488Y-3182746D01*
X7098199Y-3205627D01*
X7087669Y-3231051D01*
X7082300Y-3258041D01*
X7082300Y-3285559D01*
X7087669Y-3312549D01*
X7098199Y-3337973D01*
X7113488Y-3360853D01*
X7132946Y-3380312D01*
X7155827Y-3395600D01*
X7181251Y-3406131D01*
X7208241Y-3411500D01*
X7235759Y-3411500D01*
X7262749Y-3406131D01*
X7288173Y-3395600D01*
X7311053Y-3380312D01*
X7330512Y-3360853D01*
X7338410Y-3349033D01*
X7336300Y-3359641D01*
X7336300Y-3387159D01*
X7341669Y-3414149D01*
X7352199Y-3439573D01*
X7367488Y-3462453D01*
X7380034Y-3475000D01*
X7367488Y-3487546D01*
X7352199Y-3510427D01*
X7341669Y-3535851D01*
X7336300Y-3562841D01*
X7336300Y-3590359D01*
X7338410Y-3600967D01*
X7330512Y-3589146D01*
X7311053Y-3569688D01*
X7288173Y-3554399D01*
X7262749Y-3543869D01*
X7235759Y-3538500D01*
X7208241Y-3538500D01*
X7181251Y-3543869D01*
X7155827Y-3554399D01*
X7132946Y-3569688D01*
X7113488Y-3589146D01*
X7098199Y-3612027D01*
X7087669Y-3637451D01*
X7082300Y-3664441D01*
X7082300Y-3691959D01*
X7087669Y-3718949D01*
X7098199Y-3744373D01*
X7113488Y-3767253D01*
X7126034Y-3779800D01*
X7113488Y-3792346D01*
X7112757Y-3793441D01*
X7111490Y-3787073D01*
X7100241Y-3759915D01*
X7083911Y-3735475D01*
X7063125Y-3714689D01*
X7038684Y-3698359D01*
X7011527Y-3687110D01*
X6982697Y-3681375D01*
X6953303Y-3681375D01*
X6924473Y-3687110D01*
X6897315Y-3698359D01*
X6872875Y-3714689D01*
X6852089Y-3735475D01*
X6835759Y-3759915D01*
X6824510Y-3787073D01*
X6818775Y-3815903D01*
X6818775Y-3845297D01*
X6824510Y-3874127D01*
X6835759Y-3901284D01*
X6852089Y-3925725D01*
X6872875Y-3946511D01*
X6889471Y-3957600D01*
X6872875Y-3968689D01*
X6852089Y-3989475D01*
X6835759Y-4013915D01*
X6824510Y-4041073D01*
X6818775Y-4069903D01*
X6818775Y-4099297D01*
X6824510Y-4128127D01*
X6835759Y-4155284D01*
X6852089Y-4179725D01*
X6872875Y-4200511D01*
X6897315Y-4216841D01*
X6924473Y-4228090D01*
X6953303Y-4233825D01*
X6982697Y-4233825D01*
X7011527Y-4228090D01*
X7038684Y-4216841D01*
X7063125Y-4200511D01*
X7083911Y-4179725D01*
X7100241Y-4155284D01*
X7100614Y-4154386D01*
X7113488Y-4173653D01*
X7132946Y-4193112D01*
X7155827Y-4208401D01*
X7181251Y-4218931D01*
X7208241Y-4224300D01*
X7235759Y-4224300D01*
X7262749Y-4218931D01*
X7288173Y-4208401D01*
X7311053Y-4193112D01*
X7330512Y-4173653D01*
X7345800Y-4150773D01*
X7356331Y-4125349D01*
X7361700Y-4098359D01*
X7361700Y-4070841D01*
X7359590Y-4060233D01*
X7367488Y-4072053D01*
X7386946Y-4091512D01*
X7409827Y-4106800D01*
X7435251Y-4117331D01*
X7462241Y-4122700D01*
X7489759Y-4122700D01*
X7516749Y-4117331D01*
X7542173Y-4106800D01*
X7565053Y-4091512D01*
X7584512Y-4072053D01*
X7599800Y-4049173D01*
X7610331Y-4023749D01*
X7610920Y-4020791D01*
X8055120Y-4020791D01*
X8055120Y-4046809D01*
X8060196Y-4072326D01*
X8070152Y-4096363D01*
X8084607Y-4117996D01*
X8103004Y-4136393D01*
X8124637Y-4150848D01*
X8148674Y-4160804D01*
X8174191Y-4165880D01*
X8200209Y-4165880D01*
X8225726Y-4160804D01*
X8249763Y-4150848D01*
X8263400Y-4141736D01*
X8277037Y-4150848D01*
X8301074Y-4160804D01*
X8326591Y-4165880D01*
X8352609Y-4165880D01*
X8378126Y-4160804D01*
X8402163Y-4150848D01*
X8423796Y-4136393D01*
X8442193Y-4117996D01*
X8456648Y-4096363D01*
X8460222Y-4087735D01*
X8773940Y-4087735D01*
X8773940Y-4132265D01*
X8782627Y-4175939D01*
X8799668Y-4217080D01*
X8824408Y-4254105D01*
X8855895Y-4285592D01*
X8892920Y-4310332D01*
X8934061Y-4327373D01*
X8977735Y-4336060D01*
X9022265Y-4336060D01*
X9065939Y-4327373D01*
X9107080Y-4310332D01*
X9135645Y-4291245D01*
X9139682Y-4322472D01*
X9151101Y-4356374D01*
X9162757Y-4378180D01*
X9191049Y-4389941D01*
X9299540Y-4281450D01*
X9335461Y-4281450D01*
X9443951Y-4389941D01*
X9472243Y-4378180D01*
X9488141Y-4346132D01*
X9497481Y-4311599D01*
X9499905Y-4275907D01*
X9495318Y-4240428D01*
X9483899Y-4206526D01*
X9472243Y-4184720D01*
X9443951Y-4172959D01*
X9335461Y-4281450D01*
X9299540Y-4281450D01*
X9298125Y-4280036D01*
X9316086Y-4262075D01*
X9317500Y-4263490D01*
X9425991Y-4154999D01*
X9414230Y-4126707D01*
X9382182Y-4110809D01*
X9347649Y-4101469D01*
X9311957Y-4099045D01*
X9276478Y-4103632D01*
X9242576Y-4115051D01*
X9226060Y-4123879D01*
X9226060Y-4087735D01*
X9217373Y-4044061D01*
X9200332Y-4002920D01*
X9175592Y-3965895D01*
X9144105Y-3934408D01*
X9107080Y-3909668D01*
X9065939Y-3892627D01*
X9022265Y-3883940D01*
X8977735Y-3883940D01*
X8934061Y-3892627D01*
X8892920Y-3909668D01*
X8855895Y-3934408D01*
X8824408Y-3965895D01*
X8799668Y-4002920D01*
X8782627Y-4044061D01*
X8773940Y-4087735D01*
X8460222Y-4087735D01*
X8466604Y-4072326D01*
X8471680Y-4046809D01*
X8471680Y-4020791D01*
X8466604Y-3995274D01*
X8456648Y-3971237D01*
X8442193Y-3949604D01*
X8423796Y-3931207D01*
X8402163Y-3916752D01*
X8378126Y-3906796D01*
X8352609Y-3901720D01*
X8326591Y-3901720D01*
X8301074Y-3906796D01*
X8277037Y-3916752D01*
X8263400Y-3925864D01*
X8249763Y-3916752D01*
X8225726Y-3906796D01*
X8200209Y-3901720D01*
X8174191Y-3901720D01*
X8148674Y-3906796D01*
X8124637Y-3916752D01*
X8103004Y-3931207D01*
X8084607Y-3949604D01*
X8070152Y-3971237D01*
X8060196Y-3995274D01*
X8055120Y-4020791D01*
X7610920Y-4020791D01*
X7615700Y-3996759D01*
X7615700Y-3969241D01*
X7610331Y-3942251D01*
X7599800Y-3916827D01*
X7584512Y-3893946D01*
X7571965Y-3881400D01*
X7584512Y-3868853D01*
X7599800Y-3845973D01*
X7610331Y-3820549D01*
X7615700Y-3793559D01*
X7615700Y-3766041D01*
X7610331Y-3739051D01*
X7599800Y-3713627D01*
X7584512Y-3690746D01*
X7571965Y-3678200D01*
X7584512Y-3665653D01*
X7599800Y-3642773D01*
X7610331Y-3617349D01*
X7615700Y-3590359D01*
X7615700Y-3562841D01*
X7610331Y-3535851D01*
X7599800Y-3510427D01*
X7584512Y-3487546D01*
X7571965Y-3475000D01*
X7584512Y-3462453D01*
X7599800Y-3439573D01*
X7610331Y-3414149D01*
X7615700Y-3387159D01*
X7615700Y-3359641D01*
X7610331Y-3332651D01*
X7599800Y-3307227D01*
X7584512Y-3284346D01*
X7571965Y-3271800D01*
X7584512Y-3259253D01*
X7599800Y-3236373D01*
X7610331Y-3210949D01*
X7615700Y-3183959D01*
X7615700Y-3156441D01*
X7610331Y-3129451D01*
X7599800Y-3104027D01*
X7592142Y-3092566D01*
X7597318Y-3088318D01*
X7605254Y-3078649D01*
X7611150Y-3067618D01*
X7614781Y-3055648D01*
X7616007Y-3043200D01*
X7616007Y-2903191D01*
X8055120Y-2903191D01*
X8055120Y-2929209D01*
X8060196Y-2954726D01*
X8070152Y-2978763D01*
X8084607Y-3000396D01*
X8103004Y-3018793D01*
X8124637Y-3033248D01*
X8148674Y-3043204D01*
X8174191Y-3048280D01*
X8200209Y-3048280D01*
X8225726Y-3043204D01*
X8249763Y-3033248D01*
X8263400Y-3024136D01*
X8277037Y-3033248D01*
X8301074Y-3043204D01*
X8326591Y-3048280D01*
X8352609Y-3048280D01*
X8378126Y-3043204D01*
X8402163Y-3033248D01*
X8423796Y-3018793D01*
X8442193Y-3000396D01*
X8456648Y-2978763D01*
X8466604Y-2954726D01*
X8471680Y-2929209D01*
X8471680Y-2903191D01*
X8466604Y-2877674D01*
X8456648Y-2853637D01*
X8442193Y-2832004D01*
X8427924Y-2817735D01*
X8773940Y-2817735D01*
X8773940Y-2862265D01*
X8782627Y-2905939D01*
X8799668Y-2947080D01*
X8824408Y-2984105D01*
X8855895Y-3015592D01*
X8892920Y-3040332D01*
X8934061Y-3057373D01*
X8977735Y-3066060D01*
X9022265Y-3066060D01*
X9065939Y-3057373D01*
X9107080Y-3040332D01*
X9144105Y-3015592D01*
X9175592Y-2984105D01*
X9200332Y-2947080D01*
X9217373Y-2905939D01*
X9226060Y-2862265D01*
X9226060Y-2825917D01*
X9252818Y-2839191D01*
X9287351Y-2848531D01*
X9323043Y-2850954D01*
X9358522Y-2846368D01*
X9392424Y-2834949D01*
X9414230Y-2823293D01*
X9425991Y-2795001D01*
X9317500Y-2686511D01*
X9316086Y-2687925D01*
X9298125Y-2669964D01*
X9299540Y-2668550D01*
X9335461Y-2668550D01*
X9443951Y-2777041D01*
X9472243Y-2765280D01*
X9488141Y-2733232D01*
X9497481Y-2698699D01*
X9499905Y-2663007D01*
X9495318Y-2627528D01*
X9483899Y-2593626D01*
X9472243Y-2571820D01*
X9443951Y-2560059D01*
X9335461Y-2668550D01*
X9299540Y-2668550D01*
X9191049Y-2560059D01*
X9162757Y-2571820D01*
X9146859Y-2603868D01*
X9137519Y-2638401D01*
X9136116Y-2659070D01*
X9107080Y-2639668D01*
X9065939Y-2622627D01*
X9022265Y-2613940D01*
X8977735Y-2613940D01*
X8934061Y-2622627D01*
X8892920Y-2639668D01*
X8855895Y-2664408D01*
X8824408Y-2695895D01*
X8799668Y-2732920D01*
X8782627Y-2774061D01*
X8773940Y-2817735D01*
X8427924Y-2817735D01*
X8423796Y-2813607D01*
X8402163Y-2799152D01*
X8378126Y-2789196D01*
X8352609Y-2784120D01*
X8326591Y-2784120D01*
X8301074Y-2789196D01*
X8277037Y-2799152D01*
X8263400Y-2808264D01*
X8249763Y-2799152D01*
X8225726Y-2789196D01*
X8200209Y-2784120D01*
X8174191Y-2784120D01*
X8148674Y-2789196D01*
X8124637Y-2799152D01*
X8103004Y-2813607D01*
X8084607Y-2832004D01*
X8070152Y-2853637D01*
X8060196Y-2877674D01*
X8055120Y-2903191D01*
X7616007Y-2903191D01*
X7616007Y-2890800D01*
X7614781Y-2878352D01*
X7611150Y-2866382D01*
X7605254Y-2855351D01*
X7597318Y-2845681D01*
X7587649Y-2837746D01*
X7576618Y-2831850D01*
X7564648Y-2828219D01*
X7552200Y-2826993D01*
X7399800Y-2826993D01*
X7387352Y-2828219D01*
X7375382Y-2831850D01*
X7364351Y-2837746D01*
X7359696Y-2841566D01*
X7356331Y-2824651D01*
X7345800Y-2799227D01*
X7330512Y-2776347D01*
X7311053Y-2756888D01*
X7288173Y-2741600D01*
X7262749Y-2731069D01*
X7235759Y-2725700D01*
X7208241Y-2725700D01*
X7181251Y-2731069D01*
X7155827Y-2741600D01*
X7132946Y-2756888D01*
X7113488Y-2776347D01*
X7100614Y-2795614D01*
X7100241Y-2794716D01*
X7083911Y-2770275D01*
X7063125Y-2749489D01*
X7038684Y-2733159D01*
X7011527Y-2721910D01*
X6982697Y-2716175D01*
X6953303Y-2716175D01*
X6924473Y-2721910D01*
X6897315Y-2733159D01*
X6872875Y-2749489D01*
X6852089Y-2770275D01*
X6835759Y-2794716D01*
X6824510Y-2821873D01*
X6818775Y-2850703D01*
X73500Y-2850703D01*
X73500Y-2751284D01*
X6111500Y-2751284D01*
X6111500Y-2768717D01*
X6114901Y-2785815D01*
X6121572Y-2801920D01*
X6131258Y-2816415D01*
X6143584Y-2828742D01*
X6158079Y-2838428D01*
X6174185Y-2845099D01*
X6191283Y-2848500D01*
X6208716Y-2848500D01*
X6225814Y-2845099D01*
X6241920Y-2838428D01*
X6256415Y-2828742D01*
X6268742Y-2816415D01*
X6278428Y-2801920D01*
X6285099Y-2785815D01*
X6288500Y-2768717D01*
X6288500Y-2751284D01*
X6285099Y-2734186D01*
X6278428Y-2718080D01*
X6268742Y-2703585D01*
X6256415Y-2691258D01*
X6241920Y-2681572D01*
X6225814Y-2674901D01*
X6208716Y-2671500D01*
X6191283Y-2671500D01*
X6174185Y-2674901D01*
X6158079Y-2681572D01*
X6143584Y-2691258D01*
X6131258Y-2703585D01*
X6121572Y-2718080D01*
X6114901Y-2734186D01*
X6111500Y-2751284D01*
X73500Y-2751284D01*
X73500Y-2542099D01*
X9209009Y-2542099D01*
X9317500Y-2650590D01*
X9425991Y-2542099D01*
X9414230Y-2513807D01*
X9382182Y-2497909D01*
X9347649Y-2488569D01*
X9311957Y-2486146D01*
X9276478Y-2490732D01*
X9242576Y-2502151D01*
X9220770Y-2513807D01*
X9209009Y-2542099D01*
X73500Y-2542099D01*
X73500Y-2169806D01*
X1836500Y-2169806D01*
X1836500Y-2190194D01*
X1840477Y-2210190D01*
X1848279Y-2229026D01*
X1859606Y-2245977D01*
X1874023Y-2260394D01*
X1890974Y-2271721D01*
X1909810Y-2279523D01*
X1929806Y-2283500D01*
X1950194Y-2283500D01*
X1970190Y-2279523D01*
X1989026Y-2271721D01*
X2005977Y-2260394D01*
X2006565Y-2259806D01*
X5426500Y-2259806D01*
X5426500Y-2280194D01*
X5430477Y-2300190D01*
X5438280Y-2319026D01*
X5449606Y-2335977D01*
X5464023Y-2350394D01*
X5480974Y-2361721D01*
X5499810Y-2369523D01*
X5519806Y-2373500D01*
X5540194Y-2373500D01*
X5560190Y-2369523D01*
X5579026Y-2361721D01*
X5595977Y-2350394D01*
X5610394Y-2335977D01*
X5621720Y-2319026D01*
X5629523Y-2300190D01*
X5633500Y-2280194D01*
X5633500Y-2259806D01*
X5629523Y-2239810D01*
X5621720Y-2220974D01*
X5610394Y-2204023D01*
X5595977Y-2189606D01*
X5579026Y-2178280D01*
X5560190Y-2170477D01*
X5540194Y-2166500D01*
X5519806Y-2166500D01*
X5499810Y-2170477D01*
X5480974Y-2178280D01*
X5464023Y-2189606D01*
X5449606Y-2204023D01*
X5438280Y-2220974D01*
X5430477Y-2239810D01*
X5426500Y-2259806D01*
X2006565Y-2259806D01*
X2020394Y-2245977D01*
X2031720Y-2229026D01*
X2039523Y-2210190D01*
X2043500Y-2190194D01*
X2043500Y-2169806D01*
X2039523Y-2149810D01*
X2031720Y-2130974D01*
X2020394Y-2114023D01*
X2005977Y-2099606D01*
X1989026Y-2088279D01*
X1970190Y-2080477D01*
X1950194Y-2076500D01*
X1929806Y-2076500D01*
X1909810Y-2080477D01*
X1890974Y-2088279D01*
X1874023Y-2099606D01*
X1859606Y-2114023D01*
X1848279Y-2130974D01*
X1840477Y-2149810D01*
X1836500Y-2169806D01*
X73500Y-2169806D01*
X73500Y-1818709D01*
X82300Y-1818709D01*
X82300Y-1881291D01*
X94509Y-1942670D01*
X118458Y-2000487D01*
X153226Y-2052522D01*
X197478Y-2096774D01*
X249513Y-2131542D01*
X307330Y-2155491D01*
X368709Y-2167700D01*
X431291Y-2167700D01*
X492670Y-2155491D01*
X550487Y-2131542D01*
X602522Y-2096774D01*
X646774Y-2052522D01*
X647601Y-2051283D01*
X3151500Y-2051283D01*
X3151500Y-2068716D01*
X3154901Y-2085814D01*
X3161572Y-2101921D01*
X3171258Y-2116416D01*
X3183584Y-2128742D01*
X3198079Y-2138428D01*
X3214185Y-2145099D01*
X3231283Y-2148500D01*
X3248716Y-2148500D01*
X3265814Y-2145099D01*
X3281920Y-2138428D01*
X3296415Y-2128742D01*
X3308742Y-2116416D01*
X3318428Y-2101921D01*
X3325099Y-2085814D01*
X3328500Y-2068716D01*
X3328500Y-2051283D01*
X3325099Y-2034185D01*
X3318428Y-2018079D01*
X3308742Y-2003584D01*
X3296415Y-1991258D01*
X3281920Y-1981572D01*
X3265814Y-1974901D01*
X3248716Y-1971500D01*
X3231283Y-1971500D01*
X3214185Y-1974901D01*
X3198079Y-1981572D01*
X3183584Y-1991258D01*
X3171258Y-2003584D01*
X3161572Y-2018079D01*
X3154901Y-2034185D01*
X3151500Y-2051283D01*
X647601Y-2051283D01*
X681542Y-2000487D01*
X705491Y-1942670D01*
X717700Y-1881291D01*
X717700Y-1818709D01*
X707842Y-1769147D01*
X2345091Y-1769147D01*
X2345091Y-1786580D01*
X2348492Y-1803678D01*
X2355163Y-1819784D01*
X2364849Y-1834279D01*
X2377176Y-1846606D01*
X2391671Y-1856291D01*
X2407777Y-1862963D01*
X2424875Y-1866364D01*
X2442308Y-1866364D01*
X2459406Y-1862963D01*
X2475512Y-1856291D01*
X2490007Y-1846606D01*
X2499557Y-1837055D01*
X2501572Y-1841920D01*
X2511258Y-1856415D01*
X2523585Y-1868742D01*
X2538080Y-1878428D01*
X2554186Y-1885099D01*
X2571284Y-1888500D01*
X2588717Y-1888500D01*
X2605815Y-1885099D01*
X2621921Y-1878428D01*
X2636416Y-1868742D01*
X2648742Y-1856415D01*
X2658428Y-1841920D01*
X2665099Y-1825814D01*
X2668500Y-1808716D01*
X2668500Y-1791283D01*
X2951500Y-1791283D01*
X2951500Y-1808716D01*
X2954901Y-1825814D01*
X2961572Y-1841920D01*
X2971258Y-1856415D01*
X2983584Y-1868742D01*
X2998079Y-1878428D01*
X3014185Y-1885099D01*
X3031283Y-1888500D01*
X3048716Y-1888500D01*
X3065814Y-1885099D01*
X3081920Y-1878428D01*
X3096415Y-1868742D01*
X3108742Y-1856415D01*
X3118428Y-1841920D01*
X3125099Y-1825814D01*
X3126512Y-1818709D01*
X4882300Y-1818709D01*
X4882300Y-1881291D01*
X4894509Y-1942670D01*
X4918458Y-2000487D01*
X4953226Y-2052522D01*
X4997478Y-2096774D01*
X5049513Y-2131542D01*
X5107330Y-2155491D01*
X5168709Y-2167700D01*
X5231291Y-2167700D01*
X5292670Y-2155491D01*
X5350487Y-2131542D01*
X5402522Y-2096774D01*
X5446774Y-2052522D01*
X5447601Y-2051283D01*
X5891500Y-2051283D01*
X5891500Y-2068716D01*
X5894901Y-2085814D01*
X5901572Y-2101921D01*
X5911258Y-2116416D01*
X5923584Y-2128742D01*
X5938079Y-2138428D01*
X5954185Y-2145099D01*
X5971283Y-2148500D01*
X5988716Y-2148500D01*
X6005814Y-2145099D01*
X6021920Y-2138428D01*
X6036415Y-2128742D01*
X6048742Y-2116416D01*
X6058428Y-2101921D01*
X6065099Y-2085814D01*
X6068500Y-2068716D01*
X6068500Y-2051283D01*
X9211500Y-2051283D01*
X9211500Y-2068716D01*
X9214901Y-2085814D01*
X9221572Y-2101921D01*
X9231258Y-2116416D01*
X9243585Y-2128742D01*
X9258080Y-2138428D01*
X9274186Y-2145099D01*
X9291284Y-2148500D01*
X9308717Y-2148500D01*
X9325815Y-2145099D01*
X9341921Y-2138428D01*
X9356416Y-2128742D01*
X9368742Y-2116416D01*
X9378428Y-2101921D01*
X9385099Y-2085814D01*
X9388500Y-2068716D01*
X9388500Y-2051283D01*
X9385099Y-2034185D01*
X9378428Y-2018079D01*
X9368742Y-2003584D01*
X9356416Y-1991258D01*
X9341921Y-1981572D01*
X9325815Y-1974901D01*
X9308717Y-1971500D01*
X9291284Y-1971500D01*
X9274186Y-1974901D01*
X9258080Y-1981572D01*
X9243585Y-1991258D01*
X9231258Y-2003584D01*
X9221572Y-2018079D01*
X9214901Y-2034185D01*
X9211500Y-2051283D01*
X6068500Y-2051283D01*
X6065099Y-2034185D01*
X6058428Y-2018079D01*
X6048742Y-2003584D01*
X6036415Y-1991258D01*
X6021920Y-1981572D01*
X6005814Y-1974901D01*
X5988716Y-1971500D01*
X5971283Y-1971500D01*
X5954185Y-1974901D01*
X5938079Y-1981572D01*
X5923584Y-1991258D01*
X5911258Y-2003584D01*
X5901572Y-2018079D01*
X5894901Y-2034185D01*
X5891500Y-2051283D01*
X5447601Y-2051283D01*
X5481542Y-2000487D01*
X5505491Y-1942670D01*
X5517700Y-1881291D01*
X5517700Y-1818709D01*
X5505491Y-1757330D01*
X5481542Y-1699513D01*
X5446774Y-1647478D01*
X5402522Y-1603226D01*
X5350487Y-1568458D01*
X5292670Y-1544509D01*
X5231291Y-1532300D01*
X5168709Y-1532300D01*
X5107330Y-1544509D01*
X5049513Y-1568458D01*
X4997478Y-1603226D01*
X4953226Y-1647478D01*
X4918458Y-1699513D01*
X4894509Y-1757330D01*
X4882300Y-1818709D01*
X3126512Y-1818709D01*
X3128500Y-1808716D01*
X3128500Y-1791283D01*
X3125099Y-1774185D01*
X3118428Y-1758079D01*
X3108742Y-1743584D01*
X3096415Y-1731258D01*
X3081920Y-1721572D01*
X3065814Y-1714901D01*
X3048716Y-1711500D01*
X3031283Y-1711500D01*
X3014185Y-1714901D01*
X2998079Y-1721572D01*
X2983584Y-1731258D01*
X2971258Y-1743584D01*
X2961572Y-1758079D01*
X2954901Y-1774185D01*
X2951500Y-1791283D01*
X2668500Y-1791283D01*
X2665099Y-1774185D01*
X2658428Y-1758079D01*
X2648742Y-1743584D01*
X2636416Y-1731258D01*
X2621921Y-1721572D01*
X2605815Y-1714901D01*
X2588717Y-1711500D01*
X2571284Y-1711500D01*
X2554186Y-1714901D01*
X2538080Y-1721572D01*
X2523585Y-1731258D01*
X2514034Y-1740808D01*
X2512019Y-1735943D01*
X2502333Y-1721448D01*
X2490007Y-1709121D01*
X2475512Y-1699436D01*
X2459406Y-1692765D01*
X2442308Y-1689364D01*
X2424875Y-1689364D01*
X2407777Y-1692765D01*
X2391671Y-1699436D01*
X2377176Y-1709121D01*
X2364849Y-1721448D01*
X2355163Y-1735943D01*
X2348492Y-1752049D01*
X2345091Y-1769147D01*
X707842Y-1769147D01*
X705491Y-1757330D01*
X681542Y-1699513D01*
X646774Y-1647478D01*
X602522Y-1603226D01*
X550487Y-1568458D01*
X509025Y-1551283D01*
X3011500Y-1551283D01*
X3011500Y-1568716D01*
X3014901Y-1585814D01*
X3021572Y-1601920D01*
X3031258Y-1616415D01*
X3043584Y-1628742D01*
X3058079Y-1638428D01*
X3074185Y-1645099D01*
X3091283Y-1648500D01*
X3108716Y-1648500D01*
X3125814Y-1645099D01*
X3141920Y-1638428D01*
X3156415Y-1628742D01*
X3168742Y-1616415D01*
X3170000Y-1614533D01*
X3171258Y-1616415D01*
X3183584Y-1628742D01*
X3198079Y-1638428D01*
X3214185Y-1645099D01*
X3231283Y-1648500D01*
X3248716Y-1648500D01*
X3265814Y-1645099D01*
X3281920Y-1638428D01*
X3296415Y-1628742D01*
X3308742Y-1616415D01*
X3318428Y-1601920D01*
X3325099Y-1585814D01*
X3328500Y-1568716D01*
X3328500Y-1551283D01*
X3325099Y-1534185D01*
X3318428Y-1518079D01*
X3308742Y-1503584D01*
X3296415Y-1491258D01*
X3281920Y-1481572D01*
X3265814Y-1474901D01*
X3248716Y-1471500D01*
X3231283Y-1471500D01*
X3214185Y-1474901D01*
X3198079Y-1481572D01*
X3183584Y-1491258D01*
X3171258Y-1503584D01*
X3170000Y-1505467D01*
X3168742Y-1503584D01*
X3156415Y-1491258D01*
X3141920Y-1481572D01*
X3125814Y-1474901D01*
X3108716Y-1471500D01*
X3091283Y-1471500D01*
X3074185Y-1474901D01*
X3058079Y-1481572D01*
X3043584Y-1491258D01*
X3031258Y-1503584D01*
X3021572Y-1518079D01*
X3014901Y-1534185D01*
X3011500Y-1551283D01*
X509025Y-1551283D01*
X492670Y-1544509D01*
X431291Y-1532300D01*
X368709Y-1532300D01*
X307330Y-1544509D01*
X249513Y-1568458D01*
X197478Y-1603226D01*
X153226Y-1647478D01*
X118458Y-1699513D01*
X94509Y-1757330D01*
X82300Y-1818709D01*
X73500Y-1818709D01*
X73500Y-1029341D01*
X815250Y-1029341D01*
X815250Y-1070659D01*
X823311Y-1111182D01*
X839122Y-1149354D01*
X862076Y-1183708D01*
X891292Y-1212924D01*
X925646Y-1235878D01*
X963818Y-1251689D01*
X1004341Y-1259750D01*
X1045659Y-1259750D01*
X1086182Y-1251689D01*
X1124354Y-1235878D01*
X1158708Y-1212924D01*
X1187924Y-1183708D01*
X1210878Y-1149354D01*
X1226689Y-1111182D01*
X1234750Y-1070659D01*
X1234750Y-1029341D01*
X1565250Y-1029341D01*
X1565250Y-1070659D01*
X1573311Y-1111182D01*
X1589122Y-1149354D01*
X1612076Y-1183708D01*
X1641292Y-1212924D01*
X1675646Y-1235878D01*
X1713818Y-1251689D01*
X1754341Y-1259750D01*
X1795659Y-1259750D01*
X1836182Y-1251689D01*
X1874354Y-1235878D01*
X1908708Y-1212924D01*
X1937923Y-1183708D01*
X1960878Y-1149354D01*
X1976689Y-1111182D01*
X1984750Y-1070659D01*
X1984750Y-1029341D01*
X1976689Y-988818D01*
X1960878Y-950646D01*
X1937923Y-916292D01*
X1908708Y-887076D01*
X1901738Y-882419D01*
X2571500Y-882419D01*
X2571500Y-917581D01*
X2578360Y-952066D01*
X2591815Y-984551D01*
X2611350Y-1013787D01*
X2636213Y-1038650D01*
X2665449Y-1058185D01*
X2697934Y-1071640D01*
X2732419Y-1078500D01*
X2767581Y-1078500D01*
X2802066Y-1071640D01*
X2834551Y-1058185D01*
X2863787Y-1038650D01*
X2878202Y-1024235D01*
X2993726Y-1024235D01*
X3005112Y-1052209D01*
X3036630Y-1067796D01*
X3070583Y-1076935D01*
X3105666Y-1079274D01*
X3140532Y-1074724D01*
X3173840Y-1063459D01*
X3194888Y-1052209D01*
X3206274Y-1024235D01*
X3100000Y-917960D01*
X2993726Y-1024235D01*
X2878202Y-1024235D01*
X2888650Y-1013787D01*
X2908185Y-984551D01*
X2921640Y-952066D01*
X2924745Y-936460D01*
X2925276Y-940532D01*
X2936541Y-973840D01*
X2947791Y-994888D01*
X2975765Y-1006274D01*
X3082039Y-900000D01*
X3117960Y-900000D01*
X3224235Y-1006274D01*
X3252209Y-994888D01*
X3267796Y-963370D01*
X3271193Y-950751D01*
X3271193Y-1015000D01*
X3272419Y-1027448D01*
X3276050Y-1039418D01*
X3281946Y-1050449D01*
X3289881Y-1060119D01*
X3299551Y-1068054D01*
X3310582Y-1073950D01*
X3322552Y-1077581D01*
X3335000Y-1078807D01*
X3565000Y-1078807D01*
X3577448Y-1077581D01*
X3589418Y-1073950D01*
X3600449Y-1068054D01*
X3610118Y-1060119D01*
X3618054Y-1050449D01*
X3623950Y-1039418D01*
X3627581Y-1027448D01*
X3627898Y-1024235D01*
X4243726Y-1024235D01*
X4255112Y-1052209D01*
X4286630Y-1067796D01*
X4320583Y-1076935D01*
X4355666Y-1079274D01*
X4390532Y-1074724D01*
X4423840Y-1063459D01*
X4444888Y-1052209D01*
X4456274Y-1024235D01*
X4350000Y-917960D01*
X4243726Y-1024235D01*
X3627898Y-1024235D01*
X3628807Y-1015000D01*
X3628807Y-905666D01*
X4170726Y-905666D01*
X4175276Y-940532D01*
X4186541Y-973840D01*
X4197791Y-994888D01*
X4225765Y-1006274D01*
X4332040Y-900000D01*
X4367961Y-900000D01*
X4474235Y-1006274D01*
X4502209Y-994888D01*
X4517796Y-963370D01*
X4525164Y-935999D01*
X4528360Y-952066D01*
X4541815Y-984551D01*
X4561350Y-1013787D01*
X4586213Y-1038650D01*
X4615449Y-1058185D01*
X4647934Y-1071640D01*
X4682419Y-1078500D01*
X4717581Y-1078500D01*
X4752067Y-1071640D01*
X4784552Y-1058185D01*
X4813787Y-1038650D01*
X4838650Y-1013787D01*
X4858185Y-984551D01*
X4871640Y-952066D01*
X4875000Y-935176D01*
X4878360Y-952066D01*
X4891815Y-984551D01*
X4911350Y-1013787D01*
X4936213Y-1038650D01*
X4965449Y-1058185D01*
X4997934Y-1071640D01*
X5032419Y-1078500D01*
X5067581Y-1078500D01*
X5102067Y-1071640D01*
X5134552Y-1058185D01*
X5163787Y-1038650D01*
X5188650Y-1013787D01*
X5208185Y-984551D01*
X5221193Y-953147D01*
X5221193Y-1015000D01*
X5222419Y-1027448D01*
X5226050Y-1039418D01*
X5231946Y-1050449D01*
X5239882Y-1060119D01*
X5249551Y-1068054D01*
X5260582Y-1073950D01*
X5272552Y-1077581D01*
X5285000Y-1078807D01*
X5515000Y-1078807D01*
X5527448Y-1077581D01*
X5539418Y-1073950D01*
X5550449Y-1068054D01*
X5560119Y-1060119D01*
X5568054Y-1050449D01*
X5573950Y-1039418D01*
X5577007Y-1029341D01*
X8475250Y-1029341D01*
X8475250Y-1070659D01*
X8483311Y-1111182D01*
X8499122Y-1149354D01*
X8522077Y-1183708D01*
X8551292Y-1212924D01*
X8585646Y-1235878D01*
X8623818Y-1251689D01*
X8664341Y-1259750D01*
X8705659Y-1259750D01*
X8746182Y-1251689D01*
X8784354Y-1235878D01*
X8818708Y-1212924D01*
X8847924Y-1183708D01*
X8870878Y-1149354D01*
X8886689Y-1111182D01*
X8894750Y-1070659D01*
X8894750Y-1029341D01*
X9225250Y-1029341D01*
X9225250Y-1070659D01*
X9233311Y-1111182D01*
X9249122Y-1149354D01*
X9272077Y-1183708D01*
X9301292Y-1212924D01*
X9335646Y-1235878D01*
X9373818Y-1251689D01*
X9414341Y-1259750D01*
X9455659Y-1259750D01*
X9496182Y-1251689D01*
X9534354Y-1235878D01*
X9568708Y-1212924D01*
X9597924Y-1183708D01*
X9620878Y-1149354D01*
X9636689Y-1111182D01*
X9644750Y-1070659D01*
X9644750Y-1029341D01*
X9636689Y-988818D01*
X9620878Y-950646D01*
X9597924Y-916292D01*
X9568708Y-887076D01*
X9534354Y-864122D01*
X9496182Y-848311D01*
X9455659Y-840250D01*
X9414341Y-840250D01*
X9373818Y-848311D01*
X9335646Y-864122D01*
X9301292Y-887076D01*
X9272077Y-916292D01*
X9249122Y-950646D01*
X9233311Y-988818D01*
X9225250Y-1029341D01*
X8894750Y-1029341D01*
X8886689Y-988818D01*
X8870878Y-950646D01*
X8847924Y-916292D01*
X8818708Y-887076D01*
X8784354Y-864122D01*
X8746182Y-848311D01*
X8705659Y-840250D01*
X8664341Y-840250D01*
X8623818Y-848311D01*
X8585646Y-864122D01*
X8551292Y-887076D01*
X8522077Y-916292D01*
X8499122Y-950646D01*
X8483311Y-988818D01*
X8475250Y-1029341D01*
X5577007Y-1029341D01*
X5577581Y-1027448D01*
X5578807Y-1015000D01*
X5578807Y-785000D01*
X5577581Y-772552D01*
X5573950Y-760582D01*
X5568054Y-749551D01*
X5560119Y-739881D01*
X5550449Y-731946D01*
X5539418Y-726050D01*
X5527448Y-722419D01*
X5515000Y-721193D01*
X5285000Y-721193D01*
X5272552Y-722419D01*
X5260582Y-726050D01*
X5249551Y-731946D01*
X5239882Y-739881D01*
X5231946Y-749551D01*
X5226050Y-760582D01*
X5222419Y-772552D01*
X5221193Y-785000D01*
X5221193Y-846853D01*
X5208185Y-815448D01*
X5188650Y-786213D01*
X5163787Y-761350D01*
X5134552Y-741815D01*
X5102067Y-728360D01*
X5067581Y-721500D01*
X5032419Y-721500D01*
X4997934Y-728360D01*
X4965449Y-741815D01*
X4936213Y-761350D01*
X4911350Y-786213D01*
X4891815Y-815448D01*
X4878360Y-847933D01*
X4875000Y-864823D01*
X4871640Y-847933D01*
X4858185Y-815448D01*
X4838650Y-786213D01*
X4813787Y-761350D01*
X4784552Y-741815D01*
X4752067Y-728360D01*
X4717581Y-721500D01*
X4682419Y-721500D01*
X4647934Y-728360D01*
X4615449Y-741815D01*
X4586213Y-761350D01*
X4561350Y-786213D01*
X4541815Y-815448D01*
X4528360Y-847933D01*
X4525255Y-863540D01*
X4524724Y-859468D01*
X4513459Y-826160D01*
X4502209Y-805112D01*
X4474235Y-793726D01*
X4367961Y-900000D01*
X4332040Y-900000D01*
X4225765Y-793726D01*
X4197791Y-805112D01*
X4182204Y-836630D01*
X4173065Y-870583D01*
X4170726Y-905666D01*
X3628807Y-905666D01*
X3628807Y-785000D01*
X3627898Y-775765D01*
X4243726Y-775765D01*
X4350000Y-882039D01*
X4456274Y-775765D01*
X4444888Y-747791D01*
X4413370Y-732204D01*
X4379417Y-723065D01*
X4344334Y-720726D01*
X4309468Y-725276D01*
X4276160Y-736541D01*
X4255112Y-747791D01*
X4243726Y-775765D01*
X3627898Y-775765D01*
X3627581Y-772552D01*
X3623950Y-760582D01*
X3618054Y-749551D01*
X3610118Y-739881D01*
X3600449Y-731946D01*
X3589418Y-726050D01*
X3577448Y-722419D01*
X3565000Y-721193D01*
X3335000Y-721193D01*
X3322552Y-722419D01*
X3310582Y-726050D01*
X3299551Y-731946D01*
X3289881Y-739881D01*
X3281946Y-749551D01*
X3276050Y-760582D01*
X3272419Y-772552D01*
X3271193Y-785000D01*
X3271193Y-849027D01*
X3263459Y-826160D01*
X3252209Y-805112D01*
X3224235Y-793726D01*
X3117960Y-900000D01*
X3082039Y-900000D01*
X2975765Y-793726D01*
X2947791Y-805112D01*
X2932204Y-836630D01*
X2924836Y-864001D01*
X2921640Y-847933D01*
X2908185Y-815448D01*
X2888650Y-786213D01*
X2878202Y-775765D01*
X2993726Y-775765D01*
X3100000Y-882039D01*
X3206274Y-775765D01*
X3194888Y-747791D01*
X3163370Y-732204D01*
X3129417Y-723065D01*
X3094334Y-720726D01*
X3059468Y-725276D01*
X3026160Y-736541D01*
X3005112Y-747791D01*
X2993726Y-775765D01*
X2878202Y-775765D01*
X2863787Y-761350D01*
X2834551Y-741815D01*
X2802066Y-728360D01*
X2767581Y-721500D01*
X2732419Y-721500D01*
X2697934Y-728360D01*
X2665449Y-741815D01*
X2636213Y-761350D01*
X2611350Y-786213D01*
X2591815Y-815448D01*
X2578360Y-847933D01*
X2571500Y-882419D01*
X1901738Y-882419D01*
X1874354Y-864122D01*
X1836182Y-848311D01*
X1795659Y-840250D01*
X1754341Y-840250D01*
X1713818Y-848311D01*
X1675646Y-864122D01*
X1641292Y-887076D01*
X1612076Y-916292D01*
X1589122Y-950646D01*
X1573311Y-988818D01*
X1565250Y-1029341D01*
X1234750Y-1029341D01*
X1226689Y-988818D01*
X1210878Y-950646D01*
X1187924Y-916292D01*
X1158708Y-887076D01*
X1124354Y-864122D01*
X1086182Y-848311D01*
X1045659Y-840250D01*
X1004341Y-840250D01*
X963818Y-848311D01*
X925646Y-864122D01*
X891292Y-887076D01*
X862076Y-916292D01*
X839122Y-950646D01*
X823311Y-988818D01*
X815250Y-1029341D01*
X73500Y-1029341D01*
X73500Y-529341D01*
X815250Y-529341D01*
X815250Y-570659D01*
X823311Y-611182D01*
X839122Y-649354D01*
X862076Y-683708D01*
X891292Y-712923D01*
X925646Y-735878D01*
X963818Y-751689D01*
X1004341Y-759750D01*
X1045659Y-759750D01*
X1086182Y-751689D01*
X1124354Y-735878D01*
X1158708Y-712923D01*
X1187924Y-683708D01*
X1210878Y-649354D01*
X1226689Y-611182D01*
X1234750Y-570659D01*
X1234750Y-529341D01*
X1565250Y-529341D01*
X1565250Y-570659D01*
X1573311Y-611182D01*
X1589122Y-649354D01*
X1612076Y-683708D01*
X1641292Y-712923D01*
X1675646Y-735878D01*
X1713818Y-751689D01*
X1754341Y-759750D01*
X1795659Y-759750D01*
X1836182Y-751689D01*
X1874354Y-735878D01*
X1908708Y-712923D01*
X1937923Y-683708D01*
X1960878Y-649354D01*
X1976689Y-611182D01*
X1984750Y-570659D01*
X1984750Y-529341D01*
X8475250Y-529341D01*
X8475250Y-570659D01*
X8483311Y-611182D01*
X8499122Y-649354D01*
X8522077Y-683708D01*
X8551292Y-712923D01*
X8585646Y-735878D01*
X8623818Y-751689D01*
X8664341Y-759750D01*
X8705659Y-759750D01*
X8746182Y-751689D01*
X8784354Y-735878D01*
X8818708Y-712923D01*
X8847924Y-683708D01*
X8870878Y-649354D01*
X8886689Y-611182D01*
X8894750Y-570659D01*
X8894750Y-529341D01*
X9225250Y-529341D01*
X9225250Y-570659D01*
X9233311Y-611182D01*
X9249122Y-649354D01*
X9272077Y-683708D01*
X9301292Y-712923D01*
X9335646Y-735878D01*
X9373818Y-751689D01*
X9414341Y-759750D01*
X9455659Y-759750D01*
X9496182Y-751689D01*
X9534354Y-735878D01*
X9568708Y-712923D01*
X9597924Y-683708D01*
X9620878Y-649354D01*
X9636689Y-611182D01*
X9644750Y-570659D01*
X9644750Y-529341D01*
X9636689Y-488818D01*
X9620878Y-450646D01*
X9597924Y-416292D01*
X9568708Y-387076D01*
X9534354Y-364122D01*
X9496182Y-348311D01*
X9455659Y-340250D01*
X9414341Y-340250D01*
X9373818Y-348311D01*
X9335646Y-364122D01*
X9301292Y-387076D01*
X9272077Y-416292D01*
X9249122Y-450646D01*
X9233311Y-488818D01*
X9225250Y-529341D01*
X8894750Y-529341D01*
X8886689Y-488818D01*
X8870878Y-450646D01*
X8847924Y-416292D01*
X8818708Y-387076D01*
X8784354Y-364122D01*
X8746182Y-348311D01*
X8705659Y-340250D01*
X8664341Y-340250D01*
X8623818Y-348311D01*
X8585646Y-364122D01*
X8551292Y-387076D01*
X8522077Y-416292D01*
X8499122Y-450646D01*
X8483311Y-488818D01*
X8475250Y-529341D01*
X1984750Y-529341D01*
X1976689Y-488818D01*
X1960878Y-450646D01*
X1937923Y-416292D01*
X1908708Y-387076D01*
X1874354Y-364122D01*
X1836182Y-348311D01*
X1795659Y-340250D01*
X1754341Y-340250D01*
X1713818Y-348311D01*
X1675646Y-364122D01*
X1641292Y-387076D01*
X1612076Y-416292D01*
X1589122Y-450646D01*
X1573311Y-488818D01*
X1565250Y-529341D01*
X1234750Y-529341D01*
X1226689Y-488818D01*
X1210878Y-450646D01*
X1187924Y-416292D01*
X1158708Y-387076D01*
X1124354Y-364122D01*
X1086182Y-348311D01*
X1045659Y-340250D01*
X1004341Y-340250D01*
X963818Y-348311D01*
X925646Y-364122D01*
X891292Y-387076D01*
X862076Y-416292D01*
X839122Y-450646D01*
X823311Y-488818D01*
X815250Y-529341D01*
X73500Y-529341D01*
X73500Y-303595D01*
X76011Y-277987D01*
X1176500Y-277987D01*
X1176500Y-322013D01*
X1185089Y-365192D01*
X1201937Y-405867D01*
X1226396Y-442473D01*
X1257527Y-473604D01*
X1294133Y-498063D01*
X1334808Y-514911D01*
X1377987Y-523500D01*
X1422013Y-523500D01*
X1465192Y-514911D01*
X1505867Y-498063D01*
X1542473Y-473604D01*
X1573604Y-442473D01*
X1598063Y-405867D01*
X1614911Y-365192D01*
X1623500Y-322013D01*
X1623500Y-277987D01*
X8836500Y-277987D01*
X8836500Y-322013D01*
X8845089Y-365192D01*
X8861937Y-405867D01*
X8886396Y-442473D01*
X8917527Y-473604D01*
X8954133Y-498063D01*
X8994808Y-514911D01*
X9037987Y-523500D01*
X9082013Y-523500D01*
X9125193Y-514911D01*
X9165867Y-498063D01*
X9202473Y-473604D01*
X9233604Y-442473D01*
X9258063Y-405867D01*
X9274911Y-365192D01*
X9283500Y-322013D01*
X9283500Y-277987D01*
X9274911Y-234807D01*
X9258063Y-194133D01*
X9233604Y-157527D01*
X9202473Y-126396D01*
X9165867Y-101937D01*
X9125193Y-85089D01*
X9082013Y-76500D01*
X9037987Y-76500D01*
X8994808Y-85089D01*
X8954133Y-101937D01*
X8917527Y-126396D01*
X8886396Y-157527D01*
X8861937Y-194133D01*
X8845089Y-234807D01*
X8836500Y-277987D01*
X1623500Y-277987D01*
X1614911Y-234807D01*
X1598063Y-194133D01*
X1573604Y-157527D01*
X1542473Y-126396D01*
X1505867Y-101937D01*
X1465192Y-85089D01*
X1422013Y-76500D01*
X1377987Y-76500D01*
X1334808Y-85089D01*
X1294133Y-101937D01*
X1257527Y-126396D01*
X1226396Y-157527D01*
X1201937Y-194133D01*
X1185089Y-234807D01*
X1176500Y-277987D01*
X76011Y-277987D01*
X78159Y-256074D01*
X90916Y-213822D01*
X111637Y-174852D01*
X139532Y-140649D01*
X173540Y-112515D01*
X212364Y-91523D01*
X254526Y-78472D01*
X301827Y-73500D01*
X9696405Y-73500D01*
X9743926Y-78159D01*
%TA.AperFunction,Conductor*%
D24*
G36*
X9743926Y-78159D02*
G01*
X9786178Y-90916D01*
X9825148Y-111637D01*
X9859351Y-139532D01*
X9887485Y-173540D01*
X9908477Y-212364D01*
X9921529Y-254526D01*
X9926500Y-301827D01*
X9926500Y-6646404D01*
X9921841Y-6693925D01*
X9909084Y-6736178D01*
X9888363Y-6775148D01*
X9860468Y-6809351D01*
X9826460Y-6837485D01*
X9787636Y-6858477D01*
X9745474Y-6871528D01*
X9698173Y-6876500D01*
X303595Y-6876500D01*
X256074Y-6871841D01*
X213822Y-6859084D01*
X174852Y-6838363D01*
X140649Y-6810468D01*
X112515Y-6776460D01*
X91523Y-6737636D01*
X78472Y-6695474D01*
X73500Y-6648173D01*
X73500Y-6627987D01*
X1176500Y-6627987D01*
X1176500Y-6672013D01*
X1185089Y-6715192D01*
X1201937Y-6755867D01*
X1226396Y-6792473D01*
X1257527Y-6823604D01*
X1294133Y-6848063D01*
X1334808Y-6864911D01*
X1377987Y-6873500D01*
X1422013Y-6873500D01*
X1465192Y-6864911D01*
X1505867Y-6848063D01*
X1542473Y-6823604D01*
X1573604Y-6792473D01*
X1598063Y-6755867D01*
X1614911Y-6715192D01*
X1623500Y-6672013D01*
X1623500Y-6627987D01*
X8836500Y-6627987D01*
X8836500Y-6672013D01*
X8845089Y-6715192D01*
X8861937Y-6755867D01*
X8886396Y-6792473D01*
X8917527Y-6823604D01*
X8954133Y-6848063D01*
X8994808Y-6864911D01*
X9037987Y-6873500D01*
X9082013Y-6873500D01*
X9125193Y-6864911D01*
X9165867Y-6848063D01*
X9202473Y-6823604D01*
X9233604Y-6792473D01*
X9258063Y-6755867D01*
X9274911Y-6715192D01*
X9283500Y-6672013D01*
X9283500Y-6627987D01*
X9274911Y-6584807D01*
X9258063Y-6544133D01*
X9233604Y-6507527D01*
X9202473Y-6476396D01*
X9165867Y-6451937D01*
X9125193Y-6435089D01*
X9082013Y-6426500D01*
X9037987Y-6426500D01*
X8994808Y-6435089D01*
X8954133Y-6451937D01*
X8917527Y-6476396D01*
X8886396Y-6507527D01*
X8861937Y-6544133D01*
X8845089Y-6584807D01*
X8836500Y-6627987D01*
X1623500Y-6627987D01*
X1614911Y-6584807D01*
X1598063Y-6544133D01*
X1573604Y-6507527D01*
X1542473Y-6476396D01*
X1505867Y-6451937D01*
X1465192Y-6435089D01*
X1422013Y-6426500D01*
X1377987Y-6426500D01*
X1334808Y-6435089D01*
X1294133Y-6451937D01*
X1257527Y-6476396D01*
X1226396Y-6507527D01*
X1201937Y-6544133D01*
X1185089Y-6584807D01*
X1176500Y-6627987D01*
X73500Y-6627987D01*
X73500Y-6379341D01*
X815250Y-6379341D01*
X815250Y-6420659D01*
X823311Y-6461182D01*
X839122Y-6499354D01*
X862076Y-6533708D01*
X891292Y-6562923D01*
X925646Y-6585878D01*
X963818Y-6601689D01*
X1004341Y-6609750D01*
X1045659Y-6609750D01*
X1086182Y-6601689D01*
X1124354Y-6585878D01*
X1158708Y-6562923D01*
X1187924Y-6533708D01*
X1210878Y-6499354D01*
X1226689Y-6461182D01*
X1234750Y-6420659D01*
X1234750Y-6379341D01*
X1565250Y-6379341D01*
X1565250Y-6420659D01*
X1573311Y-6461182D01*
X1589122Y-6499354D01*
X1612076Y-6533708D01*
X1641292Y-6562923D01*
X1675646Y-6585878D01*
X1713818Y-6601689D01*
X1754341Y-6609750D01*
X1795659Y-6609750D01*
X1836182Y-6601689D01*
X1874354Y-6585878D01*
X1908708Y-6562923D01*
X1937923Y-6533708D01*
X1960878Y-6499354D01*
X1976689Y-6461182D01*
X1984750Y-6420659D01*
X1984750Y-6379341D01*
X1976689Y-6338818D01*
X1960878Y-6300646D01*
X1937923Y-6266292D01*
X1908708Y-6237076D01*
X1874354Y-6214122D01*
X1836182Y-6198311D01*
X1795659Y-6190250D01*
X1754341Y-6190250D01*
X1713818Y-6198311D01*
X1675646Y-6214122D01*
X1641292Y-6237076D01*
X1612076Y-6266292D01*
X1589122Y-6300646D01*
X1573311Y-6338818D01*
X1565250Y-6379341D01*
X1234750Y-6379341D01*
X1226689Y-6338818D01*
X1210878Y-6300646D01*
X1187924Y-6266292D01*
X1158708Y-6237076D01*
X1124354Y-6214122D01*
X1086182Y-6198311D01*
X1045659Y-6190250D01*
X1004341Y-6190250D01*
X963818Y-6198311D01*
X925646Y-6214122D01*
X891292Y-6237076D01*
X862076Y-6266292D01*
X839122Y-6300646D01*
X823311Y-6338818D01*
X815250Y-6379341D01*
X73500Y-6379341D01*
X73500Y-6165000D01*
X2451193Y-6165000D01*
X2451193Y-6335000D01*
X2452419Y-6347448D01*
X2456050Y-6359418D01*
X2461946Y-6370449D01*
X2469882Y-6380118D01*
X2479551Y-6388054D01*
X2490582Y-6393950D01*
X2502552Y-6397581D01*
X2515000Y-6398807D01*
X2685000Y-6398807D01*
X2697448Y-6397581D01*
X2709418Y-6393950D01*
X2720449Y-6388054D01*
X2730119Y-6380118D01*
X2738054Y-6370449D01*
X2743950Y-6359418D01*
X2746151Y-6352162D01*
X2759337Y-6365347D01*
X2783659Y-6381599D01*
X2810684Y-6392793D01*
X2839374Y-6398500D01*
X2868626Y-6398500D01*
X2897316Y-6392793D01*
X2924341Y-6381599D01*
X2948663Y-6365347D01*
X2969347Y-6344663D01*
X2981000Y-6327224D01*
X2992652Y-6344663D01*
X3013337Y-6365347D01*
X3037659Y-6381599D01*
X3064684Y-6392793D01*
X3093374Y-6398500D01*
X3122626Y-6398500D01*
X3151316Y-6392793D01*
X3178341Y-6381599D01*
X3202663Y-6365347D01*
X3223347Y-6344663D01*
X3235519Y-6326447D01*
X3242482Y-6338135D01*
X3261973Y-6359759D01*
X3285308Y-6377164D01*
X3311590Y-6389682D01*
X3326311Y-6394148D01*
X3349300Y-6382015D01*
X3349300Y-6262700D01*
X3347300Y-6262700D01*
X3347300Y-6237300D01*
X3349300Y-6237300D01*
X3349300Y-6008700D01*
X3347300Y-6008700D01*
X3347300Y-5983300D01*
X3349300Y-5983300D01*
X3349300Y-5863984D01*
X3374700Y-5863984D01*
X3374700Y-5983300D01*
X3376700Y-5983300D01*
X3376700Y-6008700D01*
X3374700Y-6008700D01*
X3374700Y-6237300D01*
X3376700Y-6237300D01*
X3376700Y-6262700D01*
X3374700Y-6262700D01*
X3374700Y-6382015D01*
X3397689Y-6394148D01*
X3412410Y-6389682D01*
X3438692Y-6377164D01*
X3462027Y-6359759D01*
X3481518Y-6338135D01*
X3488480Y-6326447D01*
X3500652Y-6344663D01*
X3521337Y-6365347D01*
X3545659Y-6381599D01*
X3572684Y-6392793D01*
X3601374Y-6398500D01*
X3630626Y-6398500D01*
X3659316Y-6392793D01*
X3686341Y-6381599D01*
X3689720Y-6379341D01*
X8475250Y-6379341D01*
X8475250Y-6420659D01*
X8483311Y-6461182D01*
X8499122Y-6499354D01*
X8522077Y-6533708D01*
X8551292Y-6562923D01*
X8585646Y-6585878D01*
X8623818Y-6601689D01*
X8664341Y-6609750D01*
X8705659Y-6609750D01*
X8746182Y-6601689D01*
X8784354Y-6585878D01*
X8818708Y-6562923D01*
X8847924Y-6533708D01*
X8870878Y-6499354D01*
X8886689Y-6461182D01*
X8894750Y-6420659D01*
X8894750Y-6379341D01*
X9225250Y-6379341D01*
X9225250Y-6420659D01*
X9233311Y-6461182D01*
X9249122Y-6499354D01*
X9272077Y-6533708D01*
X9301292Y-6562923D01*
X9335646Y-6585878D01*
X9373818Y-6601689D01*
X9414341Y-6609750D01*
X9455659Y-6609750D01*
X9496182Y-6601689D01*
X9534354Y-6585878D01*
X9568708Y-6562923D01*
X9597924Y-6533708D01*
X9620878Y-6499354D01*
X9636689Y-6461182D01*
X9644750Y-6420659D01*
X9644750Y-6379341D01*
X9636689Y-6338818D01*
X9620878Y-6300646D01*
X9597924Y-6266292D01*
X9568708Y-6237076D01*
X9534354Y-6214122D01*
X9496182Y-6198311D01*
X9455659Y-6190250D01*
X9414341Y-6190250D01*
X9373818Y-6198311D01*
X9335646Y-6214122D01*
X9301292Y-6237076D01*
X9272077Y-6266292D01*
X9249122Y-6300646D01*
X9233311Y-6338818D01*
X9225250Y-6379341D01*
X8894750Y-6379341D01*
X8886689Y-6338818D01*
X8870878Y-6300646D01*
X8847924Y-6266292D01*
X8818708Y-6237076D01*
X8784354Y-6214122D01*
X8746182Y-6198311D01*
X8705659Y-6190250D01*
X8664341Y-6190250D01*
X8623818Y-6198311D01*
X8585646Y-6214122D01*
X8551292Y-6237076D01*
X8522077Y-6266292D01*
X8499122Y-6300646D01*
X8483311Y-6338818D01*
X8475250Y-6379341D01*
X3689720Y-6379341D01*
X3710663Y-6365347D01*
X3731347Y-6344663D01*
X3747599Y-6320341D01*
X3758793Y-6293316D01*
X3764500Y-6264626D01*
X3764500Y-6235374D01*
X3758793Y-6206684D01*
X3747599Y-6179659D01*
X3731347Y-6155337D01*
X3710663Y-6134652D01*
X3693224Y-6123000D01*
X3710663Y-6111347D01*
X3731347Y-6090663D01*
X3747599Y-6066341D01*
X3758793Y-6039316D01*
X3764500Y-6010626D01*
X3764500Y-5981374D01*
X3758793Y-5952684D01*
X3751468Y-5935000D01*
X4271193Y-5935000D01*
X4271193Y-6165000D01*
X4272419Y-6177448D01*
X4276050Y-6189418D01*
X4281946Y-6200449D01*
X4289882Y-6210118D01*
X4299551Y-6218054D01*
X4310582Y-6223950D01*
X4322552Y-6227581D01*
X4335000Y-6228807D01*
X4565000Y-6228807D01*
X4577448Y-6227581D01*
X4589418Y-6223950D01*
X4600449Y-6218054D01*
X4610119Y-6210118D01*
X4618054Y-6200449D01*
X4623950Y-6189418D01*
X4627581Y-6177448D01*
X4628807Y-6165000D01*
X4628807Y-6103147D01*
X4641815Y-6134551D01*
X4661350Y-6163787D01*
X4686213Y-6188650D01*
X4715449Y-6208185D01*
X4747934Y-6221640D01*
X4782419Y-6228500D01*
X4817581Y-6228500D01*
X4852067Y-6221640D01*
X4884552Y-6208185D01*
X4913787Y-6188650D01*
X4938650Y-6163787D01*
X4958185Y-6134551D01*
X4971640Y-6102066D01*
X4975000Y-6085176D01*
X4978360Y-6102066D01*
X4991815Y-6134551D01*
X5011350Y-6163787D01*
X5036213Y-6188650D01*
X5065449Y-6208185D01*
X5097934Y-6221640D01*
X5132419Y-6228500D01*
X5167581Y-6228500D01*
X5202067Y-6221640D01*
X5234552Y-6208185D01*
X5263787Y-6188650D01*
X5278202Y-6174235D01*
X5393726Y-6174235D01*
X5405112Y-6202209D01*
X5436630Y-6217796D01*
X5470583Y-6226935D01*
X5505666Y-6229274D01*
X5540532Y-6224724D01*
X5573840Y-6213459D01*
X5594888Y-6202209D01*
X5606274Y-6174235D01*
X5500000Y-6067960D01*
X5393726Y-6174235D01*
X5278202Y-6174235D01*
X5288650Y-6163787D01*
X5308185Y-6134551D01*
X5321640Y-6102066D01*
X5324745Y-6086460D01*
X5325276Y-6090532D01*
X5336541Y-6123840D01*
X5347791Y-6144888D01*
X5375765Y-6156274D01*
X5482040Y-6050000D01*
X5517961Y-6050000D01*
X5624235Y-6156274D01*
X5652209Y-6144888D01*
X5667796Y-6113370D01*
X5676935Y-6079417D01*
X5679274Y-6044334D01*
X5674724Y-6009468D01*
X5663459Y-5976160D01*
X5652209Y-5955112D01*
X5624235Y-5943726D01*
X5517961Y-6050000D01*
X5482040Y-6050000D01*
X5375765Y-5943726D01*
X5347791Y-5955112D01*
X5332204Y-5986630D01*
X5324837Y-6014001D01*
X5321640Y-5997933D01*
X5308185Y-5965448D01*
X5288650Y-5936213D01*
X5278202Y-5925765D01*
X5393726Y-5925765D01*
X5500000Y-6032039D01*
X5606274Y-5925765D01*
X5594888Y-5897791D01*
X5563370Y-5882204D01*
X5552736Y-5879341D01*
X8475250Y-5879341D01*
X8475250Y-5920659D01*
X8483311Y-5961182D01*
X8499122Y-5999354D01*
X8522077Y-6033708D01*
X8551292Y-6062923D01*
X8585646Y-6085878D01*
X8623818Y-6101689D01*
X8664341Y-6109750D01*
X8705659Y-6109750D01*
X8746182Y-6101689D01*
X8784354Y-6085878D01*
X8818708Y-6062923D01*
X8847924Y-6033708D01*
X8870878Y-5999354D01*
X8886689Y-5961182D01*
X8894750Y-5920659D01*
X8894750Y-5879341D01*
X9225250Y-5879341D01*
X9225250Y-5920659D01*
X9233311Y-5961182D01*
X9249122Y-5999354D01*
X9272077Y-6033708D01*
X9301292Y-6062923D01*
X9335646Y-6085878D01*
X9373818Y-6101689D01*
X9414341Y-6109750D01*
X9455659Y-6109750D01*
X9496182Y-6101689D01*
X9534354Y-6085878D01*
X9568708Y-6062923D01*
X9597924Y-6033708D01*
X9620878Y-5999354D01*
X9636689Y-5961182D01*
X9644750Y-5920659D01*
X9644750Y-5879341D01*
X9636689Y-5838818D01*
X9620878Y-5800646D01*
X9597924Y-5766292D01*
X9568708Y-5737076D01*
X9534354Y-5714122D01*
X9496182Y-5698311D01*
X9455659Y-5690250D01*
X9414341Y-5690250D01*
X9373818Y-5698311D01*
X9335646Y-5714122D01*
X9301292Y-5737076D01*
X9272077Y-5766292D01*
X9249122Y-5800646D01*
X9233311Y-5838818D01*
X9225250Y-5879341D01*
X8894750Y-5879341D01*
X8886689Y-5838818D01*
X8870878Y-5800646D01*
X8847924Y-5766292D01*
X8818708Y-5737076D01*
X8784354Y-5714122D01*
X8746182Y-5698311D01*
X8705659Y-5690250D01*
X8664341Y-5690250D01*
X8623818Y-5698311D01*
X8585646Y-5714122D01*
X8551292Y-5737076D01*
X8522077Y-5766292D01*
X8499122Y-5800646D01*
X8483311Y-5838818D01*
X8475250Y-5879341D01*
X5552736Y-5879341D01*
X5529417Y-5873065D01*
X5494334Y-5870726D01*
X5459468Y-5875276D01*
X5426160Y-5886541D01*
X5405112Y-5897791D01*
X5393726Y-5925765D01*
X5278202Y-5925765D01*
X5263787Y-5911350D01*
X5234552Y-5891815D01*
X5202067Y-5878360D01*
X5167581Y-5871500D01*
X5132419Y-5871500D01*
X5097934Y-5878360D01*
X5065449Y-5891815D01*
X5036213Y-5911350D01*
X5011350Y-5936213D01*
X4991815Y-5965448D01*
X4978360Y-5997933D01*
X4975000Y-6014823D01*
X4971640Y-5997933D01*
X4958185Y-5965448D01*
X4938650Y-5936213D01*
X4913787Y-5911350D01*
X4884552Y-5891815D01*
X4852067Y-5878360D01*
X4817581Y-5871500D01*
X4782419Y-5871500D01*
X4747934Y-5878360D01*
X4715449Y-5891815D01*
X4686213Y-5911350D01*
X4661350Y-5936213D01*
X4641815Y-5965448D01*
X4628807Y-5996853D01*
X4628807Y-5935000D01*
X4627581Y-5922552D01*
X4623950Y-5910582D01*
X4618054Y-5899551D01*
X4610119Y-5889881D01*
X4600449Y-5881946D01*
X4589418Y-5876050D01*
X4577448Y-5872419D01*
X4565000Y-5871193D01*
X4335000Y-5871193D01*
X4322552Y-5872419D01*
X4310582Y-5876050D01*
X4299551Y-5881946D01*
X4289882Y-5889881D01*
X4281946Y-5899551D01*
X4276050Y-5910582D01*
X4272419Y-5922552D01*
X4271193Y-5935000D01*
X3751468Y-5935000D01*
X3747599Y-5925659D01*
X3731347Y-5901337D01*
X3710663Y-5880652D01*
X3686341Y-5864401D01*
X3659316Y-5853207D01*
X3630626Y-5847500D01*
X3601374Y-5847500D01*
X3572684Y-5853207D01*
X3545659Y-5864401D01*
X3521337Y-5880652D01*
X3500652Y-5901337D01*
X3488480Y-5919553D01*
X3481518Y-5907864D01*
X3462027Y-5886241D01*
X3438692Y-5868836D01*
X3412410Y-5856317D01*
X3397689Y-5851852D01*
X3374700Y-5863984D01*
X3349300Y-5863984D01*
X3326311Y-5851852D01*
X3311590Y-5856317D01*
X3285308Y-5868836D01*
X3261973Y-5886241D01*
X3242482Y-5907864D01*
X3235519Y-5919553D01*
X3223347Y-5901337D01*
X3202663Y-5880652D01*
X3178341Y-5864401D01*
X3151316Y-5853207D01*
X3122626Y-5847500D01*
X3093374Y-5847500D01*
X3064684Y-5853207D01*
X3037659Y-5864401D01*
X3013337Y-5880652D01*
X2992652Y-5901337D01*
X2981000Y-5918776D01*
X2969347Y-5901337D01*
X2948663Y-5880652D01*
X2924341Y-5864401D01*
X2897316Y-5853207D01*
X2868626Y-5847500D01*
X2839374Y-5847500D01*
X2810684Y-5853207D01*
X2783659Y-5864401D01*
X2759337Y-5880652D01*
X2738653Y-5901337D01*
X2727000Y-5918776D01*
X2715348Y-5901337D01*
X2694663Y-5880652D01*
X2670341Y-5864401D01*
X2643316Y-5853207D01*
X2614626Y-5847500D01*
X2585374Y-5847500D01*
X2556684Y-5853207D01*
X2529659Y-5864401D01*
X2505337Y-5880652D01*
X2484653Y-5901337D01*
X2468401Y-5925659D01*
X2457207Y-5952684D01*
X2451500Y-5981374D01*
X2451500Y-6010626D01*
X2457207Y-6039316D01*
X2468401Y-6066341D01*
X2484653Y-6090663D01*
X2497838Y-6103849D01*
X2490582Y-6106050D01*
X2479551Y-6111946D01*
X2469882Y-6119881D01*
X2461946Y-6129551D01*
X2456050Y-6140582D01*
X2452419Y-6152552D01*
X2451193Y-6165000D01*
X73500Y-6165000D01*
X73500Y-5879341D01*
X815250Y-5879341D01*
X815250Y-5920659D01*
X823311Y-5961182D01*
X839122Y-5999354D01*
X862076Y-6033708D01*
X891292Y-6062923D01*
X925646Y-6085878D01*
X963818Y-6101689D01*
X1004341Y-6109750D01*
X1045659Y-6109750D01*
X1086182Y-6101689D01*
X1124354Y-6085878D01*
X1158708Y-6062923D01*
X1187924Y-6033708D01*
X1210878Y-5999354D01*
X1226689Y-5961182D01*
X1234750Y-5920659D01*
X1234750Y-5879341D01*
X1565250Y-5879341D01*
X1565250Y-5920659D01*
X1573311Y-5961182D01*
X1589122Y-5999354D01*
X1612076Y-6033708D01*
X1641292Y-6062923D01*
X1675646Y-6085878D01*
X1713818Y-6101689D01*
X1754341Y-6109750D01*
X1795659Y-6109750D01*
X1836182Y-6101689D01*
X1874354Y-6085878D01*
X1908708Y-6062923D01*
X1937923Y-6033708D01*
X1960878Y-5999354D01*
X1976689Y-5961182D01*
X1984750Y-5920659D01*
X1984750Y-5879341D01*
X1976689Y-5838818D01*
X1960878Y-5800646D01*
X1937923Y-5766292D01*
X1908708Y-5737076D01*
X1874354Y-5714122D01*
X1836182Y-5698311D01*
X1795659Y-5690250D01*
X1754341Y-5690250D01*
X1713818Y-5698311D01*
X1675646Y-5714122D01*
X1641292Y-5737076D01*
X1612076Y-5766292D01*
X1589122Y-5800646D01*
X1573311Y-5838818D01*
X1565250Y-5879341D01*
X1234750Y-5879341D01*
X1226689Y-5838818D01*
X1210878Y-5800646D01*
X1187924Y-5766292D01*
X1158708Y-5737076D01*
X1124354Y-5714122D01*
X1086182Y-5698311D01*
X1045659Y-5690250D01*
X1004341Y-5690250D01*
X963818Y-5698311D01*
X925646Y-5714122D01*
X891292Y-5737076D01*
X862076Y-5766292D01*
X839122Y-5800646D01*
X823311Y-5838818D01*
X815250Y-5879341D01*
X73500Y-5879341D01*
X73500Y-5118709D01*
X82300Y-5118709D01*
X82300Y-5181291D01*
X94509Y-5242670D01*
X118458Y-5300487D01*
X153226Y-5352522D01*
X197478Y-5396774D01*
X249513Y-5431542D01*
X307330Y-5455491D01*
X368709Y-5467700D01*
X431291Y-5467700D01*
X492670Y-5455491D01*
X550487Y-5431542D01*
X602522Y-5396774D01*
X646774Y-5352522D01*
X681542Y-5300487D01*
X705491Y-5242670D01*
X717700Y-5181291D01*
X717700Y-5118709D01*
X4882300Y-5118709D01*
X4882300Y-5181291D01*
X4894509Y-5242670D01*
X4918458Y-5300487D01*
X4953226Y-5352522D01*
X4997478Y-5396774D01*
X5049513Y-5431542D01*
X5107330Y-5455491D01*
X5168709Y-5467700D01*
X5231291Y-5467700D01*
X5292670Y-5455491D01*
X5350487Y-5431542D01*
X5402522Y-5396774D01*
X5446774Y-5352522D01*
X5481542Y-5300487D01*
X5505491Y-5242670D01*
X5517700Y-5181291D01*
X5517700Y-5118709D01*
X5505491Y-5057330D01*
X5481542Y-4999513D01*
X5446774Y-4947478D01*
X5402522Y-4903226D01*
X5350487Y-4868458D01*
X5292670Y-4844509D01*
X5231291Y-4832300D01*
X5168709Y-4832300D01*
X5107330Y-4844509D01*
X5049513Y-4868458D01*
X4997478Y-4903226D01*
X4953226Y-4947478D01*
X4918458Y-4999513D01*
X4894509Y-5057330D01*
X4882300Y-5118709D01*
X717700Y-5118709D01*
X705491Y-5057330D01*
X681542Y-4999513D01*
X646774Y-4947478D01*
X602522Y-4903226D01*
X550487Y-4868458D01*
X492670Y-4844509D01*
X431291Y-4832300D01*
X368709Y-4832300D01*
X307330Y-4844509D01*
X249513Y-4868458D01*
X197478Y-4903226D01*
X153226Y-4947478D01*
X118458Y-4999513D01*
X94509Y-5057330D01*
X82300Y-5118709D01*
X73500Y-5118709D01*
X73500Y-4407901D01*
X9209009Y-4407901D01*
X9220770Y-4436193D01*
X9252818Y-4452091D01*
X9287351Y-4461431D01*
X9323043Y-4463855D01*
X9358522Y-4459268D01*
X9392424Y-4447849D01*
X9414230Y-4436193D01*
X9425991Y-4407901D01*
X9317500Y-4299411D01*
X9209009Y-4407901D01*
X73500Y-4407901D01*
X73500Y-3791283D01*
X6271500Y-3791283D01*
X6271500Y-3808716D01*
X6274901Y-3825814D01*
X6281572Y-3841920D01*
X6291258Y-3856415D01*
X6303584Y-3868742D01*
X6318079Y-3878428D01*
X6334185Y-3885099D01*
X6351283Y-3888500D01*
X6368716Y-3888500D01*
X6385814Y-3885099D01*
X6401920Y-3878428D01*
X6416415Y-3868742D01*
X6428742Y-3856415D01*
X6438428Y-3841920D01*
X6445099Y-3825814D01*
X6448500Y-3808716D01*
X6448500Y-3791283D01*
X6445099Y-3774185D01*
X6438428Y-3758079D01*
X6428742Y-3743584D01*
X6416415Y-3731258D01*
X6401920Y-3721572D01*
X6385814Y-3714901D01*
X6368716Y-3711500D01*
X6351283Y-3711500D01*
X6334185Y-3714901D01*
X6318079Y-3721572D01*
X6303584Y-3731258D01*
X6291258Y-3743584D01*
X6281572Y-3758079D01*
X6274901Y-3774185D01*
X6271500Y-3791283D01*
X73500Y-3791283D01*
X73500Y-2850703D01*
X6818775Y-2850703D01*
X6818775Y-2880097D01*
X6824510Y-2908927D01*
X6835759Y-2936084D01*
X6852089Y-2960525D01*
X6872875Y-2981311D01*
X6889471Y-2992400D01*
X6872875Y-3003489D01*
X6852089Y-3024275D01*
X6835759Y-3048715D01*
X6824510Y-3075873D01*
X6818775Y-3104703D01*
X6818775Y-3134097D01*
X6824510Y-3162927D01*
X6835759Y-3190084D01*
X6852089Y-3214525D01*
X6872875Y-3235311D01*
X6897315Y-3251641D01*
X6924473Y-3262890D01*
X6953303Y-3268625D01*
X6982697Y-3268625D01*
X7011527Y-3262890D01*
X7038684Y-3251641D01*
X7063125Y-3235311D01*
X7083911Y-3214525D01*
X7100241Y-3190084D01*
X7111490Y-3162927D01*
X7112757Y-3156559D01*
X7113488Y-3157653D01*
X7126034Y-3170200D01*
X7113488Y-3182746D01*
X7098199Y-3205627D01*
X7087669Y-3231051D01*
X7082300Y-3258041D01*
X7082300Y-3285559D01*
X7087669Y-3312549D01*
X7098199Y-3337973D01*
X7113488Y-3360853D01*
X7132946Y-3380312D01*
X7155827Y-3395600D01*
X7181251Y-3406131D01*
X7208241Y-3411500D01*
X7235759Y-3411500D01*
X7262749Y-3406131D01*
X7288173Y-3395600D01*
X7311053Y-3380312D01*
X7330512Y-3360853D01*
X7338410Y-3349033D01*
X7336300Y-3359641D01*
X7336300Y-3387159D01*
X7341669Y-3414149D01*
X7352199Y-3439573D01*
X7367488Y-3462453D01*
X7380034Y-3475000D01*
X7367488Y-3487546D01*
X7352199Y-3510427D01*
X7341669Y-3535851D01*
X7336300Y-3562841D01*
X7336300Y-3590359D01*
X7338410Y-3600967D01*
X7330512Y-3589146D01*
X7311053Y-3569688D01*
X7288173Y-3554399D01*
X7262749Y-3543869D01*
X7235759Y-3538500D01*
X7208241Y-3538500D01*
X7181251Y-3543869D01*
X7155827Y-3554399D01*
X7132946Y-3569688D01*
X7113488Y-3589146D01*
X7098199Y-3612027D01*
X7087669Y-3637451D01*
X7082300Y-3664441D01*
X7082300Y-3691959D01*
X7087669Y-3718949D01*
X7098199Y-3744373D01*
X7113488Y-3767253D01*
X7126034Y-3779800D01*
X7113488Y-3792346D01*
X7112757Y-3793441D01*
X7111490Y-3787073D01*
X7100241Y-3759915D01*
X7083911Y-3735475D01*
X7063125Y-3714689D01*
X7038684Y-3698359D01*
X7011527Y-3687110D01*
X6982697Y-3681375D01*
X6953303Y-3681375D01*
X6924473Y-3687110D01*
X6897315Y-3698359D01*
X6872875Y-3714689D01*
X6852089Y-3735475D01*
X6835759Y-3759915D01*
X6824510Y-3787073D01*
X6818775Y-3815903D01*
X6818775Y-3845297D01*
X6824510Y-3874127D01*
X6835759Y-3901284D01*
X6852089Y-3925725D01*
X6872875Y-3946511D01*
X6889471Y-3957600D01*
X6872875Y-3968689D01*
X6852089Y-3989475D01*
X6835759Y-4013915D01*
X6824510Y-4041073D01*
X6818775Y-4069903D01*
X6818775Y-4099297D01*
X6824510Y-4128127D01*
X6835759Y-4155284D01*
X6852089Y-4179725D01*
X6872875Y-4200511D01*
X6897315Y-4216841D01*
X6924473Y-4228090D01*
X6953303Y-4233825D01*
X6982697Y-4233825D01*
X7011527Y-4228090D01*
X7038684Y-4216841D01*
X7063125Y-4200511D01*
X7083911Y-4179725D01*
X7100241Y-4155284D01*
X7100614Y-4154386D01*
X7113488Y-4173653D01*
X7132946Y-4193112D01*
X7155827Y-4208401D01*
X7181251Y-4218931D01*
X7208241Y-4224300D01*
X7235759Y-4224300D01*
X7262749Y-4218931D01*
X7288173Y-4208401D01*
X7311053Y-4193112D01*
X7330512Y-4173653D01*
X7345800Y-4150773D01*
X7356331Y-4125349D01*
X7361700Y-4098359D01*
X7361700Y-4070841D01*
X7359590Y-4060233D01*
X7367488Y-4072053D01*
X7386946Y-4091512D01*
X7409827Y-4106800D01*
X7435251Y-4117331D01*
X7462241Y-4122700D01*
X7489759Y-4122700D01*
X7516749Y-4117331D01*
X7542173Y-4106800D01*
X7565053Y-4091512D01*
X7584512Y-4072053D01*
X7599800Y-4049173D01*
X7610331Y-4023749D01*
X7610920Y-4020791D01*
X8055120Y-4020791D01*
X8055120Y-4046809D01*
X8060196Y-4072326D01*
X8070152Y-4096363D01*
X8084607Y-4117996D01*
X8103004Y-4136393D01*
X8124637Y-4150848D01*
X8148674Y-4160804D01*
X8174191Y-4165880D01*
X8200209Y-4165880D01*
X8225726Y-4160804D01*
X8249763Y-4150848D01*
X8263400Y-4141736D01*
X8277037Y-4150848D01*
X8301074Y-4160804D01*
X8326591Y-4165880D01*
X8352609Y-4165880D01*
X8378126Y-4160804D01*
X8402163Y-4150848D01*
X8423796Y-4136393D01*
X8442193Y-4117996D01*
X8456648Y-4096363D01*
X8460222Y-4087735D01*
X8773940Y-4087735D01*
X8773940Y-4132265D01*
X8782627Y-4175939D01*
X8799668Y-4217080D01*
X8824408Y-4254105D01*
X8855895Y-4285592D01*
X8892920Y-4310332D01*
X8934061Y-4327373D01*
X8977735Y-4336060D01*
X9022265Y-4336060D01*
X9065939Y-4327373D01*
X9107080Y-4310332D01*
X9135645Y-4291245D01*
X9139682Y-4322472D01*
X9151101Y-4356374D01*
X9162757Y-4378180D01*
X9191049Y-4389941D01*
X9299540Y-4281450D01*
X9335461Y-4281450D01*
X9443951Y-4389941D01*
X9472243Y-4378180D01*
X9488141Y-4346132D01*
X9497481Y-4311599D01*
X9499905Y-4275907D01*
X9495318Y-4240428D01*
X9483899Y-4206526D01*
X9472243Y-4184720D01*
X9443951Y-4172959D01*
X9335461Y-4281450D01*
X9299540Y-4281450D01*
X9298125Y-4280036D01*
X9316086Y-4262075D01*
X9317500Y-4263490D01*
X9425991Y-4154999D01*
X9414230Y-4126707D01*
X9382182Y-4110809D01*
X9347649Y-4101469D01*
X9311957Y-4099045D01*
X9276478Y-4103632D01*
X9242576Y-4115051D01*
X9226060Y-4123879D01*
X9226060Y-4087735D01*
X9217373Y-4044061D01*
X9200332Y-4002920D01*
X9175592Y-3965895D01*
X9144105Y-3934408D01*
X9107080Y-3909668D01*
X9065939Y-3892627D01*
X9022265Y-3883940D01*
X8977735Y-3883940D01*
X8934061Y-3892627D01*
X8892920Y-3909668D01*
X8855895Y-3934408D01*
X8824408Y-3965895D01*
X8799668Y-4002920D01*
X8782627Y-4044061D01*
X8773940Y-4087735D01*
X8460222Y-4087735D01*
X8466604Y-4072326D01*
X8471680Y-4046809D01*
X8471680Y-4020791D01*
X8466604Y-3995274D01*
X8456648Y-3971237D01*
X8442193Y-3949604D01*
X8423796Y-3931207D01*
X8402163Y-3916752D01*
X8378126Y-3906796D01*
X8352609Y-3901720D01*
X8326591Y-3901720D01*
X8301074Y-3906796D01*
X8277037Y-3916752D01*
X8263400Y-3925864D01*
X8249763Y-3916752D01*
X8225726Y-3906796D01*
X8200209Y-3901720D01*
X8174191Y-3901720D01*
X8148674Y-3906796D01*
X8124637Y-3916752D01*
X8103004Y-3931207D01*
X8084607Y-3949604D01*
X8070152Y-3971237D01*
X8060196Y-3995274D01*
X8055120Y-4020791D01*
X7610920Y-4020791D01*
X7615700Y-3996759D01*
X7615700Y-3969241D01*
X7610331Y-3942251D01*
X7599800Y-3916827D01*
X7584512Y-3893946D01*
X7571965Y-3881400D01*
X7584512Y-3868853D01*
X7599800Y-3845973D01*
X7610331Y-3820549D01*
X7615700Y-3793559D01*
X7615700Y-3766041D01*
X7610331Y-3739051D01*
X7599800Y-3713627D01*
X7584512Y-3690746D01*
X7571965Y-3678200D01*
X7584512Y-3665653D01*
X7599800Y-3642773D01*
X7610331Y-3617349D01*
X7615700Y-3590359D01*
X7615700Y-3562841D01*
X7610331Y-3535851D01*
X7599800Y-3510427D01*
X7584512Y-3487546D01*
X7571965Y-3475000D01*
X7584512Y-3462453D01*
X7599800Y-3439573D01*
X7610331Y-3414149D01*
X7615700Y-3387159D01*
X7615700Y-3359641D01*
X7610331Y-3332651D01*
X7599800Y-3307227D01*
X7584512Y-3284346D01*
X7571965Y-3271800D01*
X7584512Y-3259253D01*
X7599800Y-3236373D01*
X7610331Y-3210949D01*
X7615700Y-3183959D01*
X7615700Y-3156441D01*
X7610331Y-3129451D01*
X7599800Y-3104027D01*
X7592142Y-3092566D01*
X7597318Y-3088318D01*
X7605254Y-3078649D01*
X7611150Y-3067618D01*
X7614781Y-3055648D01*
X7616007Y-3043200D01*
X7616007Y-2903191D01*
X8055120Y-2903191D01*
X8055120Y-2929209D01*
X8060196Y-2954726D01*
X8070152Y-2978763D01*
X8084607Y-3000396D01*
X8103004Y-3018793D01*
X8124637Y-3033248D01*
X8148674Y-3043204D01*
X8174191Y-3048280D01*
X8200209Y-3048280D01*
X8225726Y-3043204D01*
X8249763Y-3033248D01*
X8263400Y-3024136D01*
X8277037Y-3033248D01*
X8301074Y-3043204D01*
X8326591Y-3048280D01*
X8352609Y-3048280D01*
X8378126Y-3043204D01*
X8402163Y-3033248D01*
X8423796Y-3018793D01*
X8442193Y-3000396D01*
X8456648Y-2978763D01*
X8466604Y-2954726D01*
X8471680Y-2929209D01*
X8471680Y-2903191D01*
X8466604Y-2877674D01*
X8456648Y-2853637D01*
X8442193Y-2832004D01*
X8427924Y-2817735D01*
X8773940Y-2817735D01*
X8773940Y-2862265D01*
X8782627Y-2905939D01*
X8799668Y-2947080D01*
X8824408Y-2984105D01*
X8855895Y-3015592D01*
X8892920Y-3040332D01*
X8934061Y-3057373D01*
X8977735Y-3066060D01*
X9022265Y-3066060D01*
X9065939Y-3057373D01*
X9107080Y-3040332D01*
X9144105Y-3015592D01*
X9175592Y-2984105D01*
X9200332Y-2947080D01*
X9217373Y-2905939D01*
X9226060Y-2862265D01*
X9226060Y-2825917D01*
X9252818Y-2839191D01*
X9287351Y-2848531D01*
X9323043Y-2850954D01*
X9358522Y-2846368D01*
X9392424Y-2834949D01*
X9414230Y-2823293D01*
X9425991Y-2795001D01*
X9317500Y-2686511D01*
X9316086Y-2687925D01*
X9298125Y-2669964D01*
X9299540Y-2668550D01*
X9335461Y-2668550D01*
X9443951Y-2777041D01*
X9472243Y-2765280D01*
X9488141Y-2733232D01*
X9497481Y-2698699D01*
X9499905Y-2663007D01*
X9495318Y-2627528D01*
X9483899Y-2593626D01*
X9472243Y-2571820D01*
X9443951Y-2560059D01*
X9335461Y-2668550D01*
X9299540Y-2668550D01*
X9191049Y-2560059D01*
X9162757Y-2571820D01*
X9146859Y-2603868D01*
X9137519Y-2638401D01*
X9136116Y-2659070D01*
X9107080Y-2639668D01*
X9065939Y-2622627D01*
X9022265Y-2613940D01*
X8977735Y-2613940D01*
X8934061Y-2622627D01*
X8892920Y-2639668D01*
X8855895Y-2664408D01*
X8824408Y-2695895D01*
X8799668Y-2732920D01*
X8782627Y-2774061D01*
X8773940Y-2817735D01*
X8427924Y-2817735D01*
X8423796Y-2813607D01*
X8402163Y-2799152D01*
X8378126Y-2789196D01*
X8352609Y-2784120D01*
X8326591Y-2784120D01*
X8301074Y-2789196D01*
X8277037Y-2799152D01*
X8263400Y-2808264D01*
X8249763Y-2799152D01*
X8225726Y-2789196D01*
X8200209Y-2784120D01*
X8174191Y-2784120D01*
X8148674Y-2789196D01*
X8124637Y-2799152D01*
X8103004Y-2813607D01*
X8084607Y-2832004D01*
X8070152Y-2853637D01*
X8060196Y-2877674D01*
X8055120Y-2903191D01*
X7616007Y-2903191D01*
X7616007Y-2890800D01*
X7614781Y-2878352D01*
X7611150Y-2866382D01*
X7605254Y-2855351D01*
X7597318Y-2845681D01*
X7587649Y-2837746D01*
X7576618Y-2831850D01*
X7564648Y-2828219D01*
X7552200Y-2826993D01*
X7399800Y-2826993D01*
X7387352Y-2828219D01*
X7375382Y-2831850D01*
X7364351Y-2837746D01*
X7359696Y-2841566D01*
X7356331Y-2824651D01*
X7345800Y-2799227D01*
X7330512Y-2776347D01*
X7311053Y-2756888D01*
X7288173Y-2741600D01*
X7262749Y-2731069D01*
X7235759Y-2725700D01*
X7208241Y-2725700D01*
X7181251Y-2731069D01*
X7155827Y-2741600D01*
X7132946Y-2756888D01*
X7113488Y-2776347D01*
X7100614Y-2795614D01*
X7100241Y-2794716D01*
X7083911Y-2770275D01*
X7063125Y-2749489D01*
X7038684Y-2733159D01*
X7011527Y-2721910D01*
X6982697Y-2716175D01*
X6953303Y-2716175D01*
X6924473Y-2721910D01*
X6897315Y-2733159D01*
X6872875Y-2749489D01*
X6852089Y-2770275D01*
X6835759Y-2794716D01*
X6824510Y-2821873D01*
X6818775Y-2850703D01*
X73500Y-2850703D01*
X73500Y-2751284D01*
X6111500Y-2751284D01*
X6111500Y-2768717D01*
X6114901Y-2785815D01*
X6121572Y-2801920D01*
X6131258Y-2816415D01*
X6143584Y-2828742D01*
X6158079Y-2838428D01*
X6174185Y-2845099D01*
X6191283Y-2848500D01*
X6208716Y-2848500D01*
X6225814Y-2845099D01*
X6241920Y-2838428D01*
X6256415Y-2828742D01*
X6268742Y-2816415D01*
X6278428Y-2801920D01*
X6285099Y-2785815D01*
X6288500Y-2768717D01*
X6288500Y-2751284D01*
X6285099Y-2734186D01*
X6278428Y-2718080D01*
X6268742Y-2703585D01*
X6256415Y-2691258D01*
X6241920Y-2681572D01*
X6225814Y-2674901D01*
X6208716Y-2671500D01*
X6191283Y-2671500D01*
X6174185Y-2674901D01*
X6158079Y-2681572D01*
X6143584Y-2691258D01*
X6131258Y-2703585D01*
X6121572Y-2718080D01*
X6114901Y-2734186D01*
X6111500Y-2751284D01*
X73500Y-2751284D01*
X73500Y-2542099D01*
X9209009Y-2542099D01*
X9317500Y-2650590D01*
X9425991Y-2542099D01*
X9414230Y-2513807D01*
X9382182Y-2497909D01*
X9347649Y-2488569D01*
X9311957Y-2486146D01*
X9276478Y-2490732D01*
X9242576Y-2502151D01*
X9220770Y-2513807D01*
X9209009Y-2542099D01*
X73500Y-2542099D01*
X73500Y-2169806D01*
X1836500Y-2169806D01*
X1836500Y-2190194D01*
X1840477Y-2210190D01*
X1848279Y-2229026D01*
X1859606Y-2245977D01*
X1874023Y-2260394D01*
X1890974Y-2271721D01*
X1909810Y-2279523D01*
X1929806Y-2283500D01*
X1950194Y-2283500D01*
X1970190Y-2279523D01*
X1989026Y-2271721D01*
X2005977Y-2260394D01*
X2006565Y-2259806D01*
X5426500Y-2259806D01*
X5426500Y-2280194D01*
X5430477Y-2300190D01*
X5438280Y-2319026D01*
X5449606Y-2335977D01*
X5464023Y-2350394D01*
X5480974Y-2361721D01*
X5499810Y-2369523D01*
X5519806Y-2373500D01*
X5540194Y-2373500D01*
X5560190Y-2369523D01*
X5579026Y-2361721D01*
X5595977Y-2350394D01*
X5610394Y-2335977D01*
X5621720Y-2319026D01*
X5629523Y-2300190D01*
X5633500Y-2280194D01*
X5633500Y-2259806D01*
X5629523Y-2239810D01*
X5621720Y-2220974D01*
X5610394Y-2204023D01*
X5595977Y-2189606D01*
X5579026Y-2178280D01*
X5560190Y-2170477D01*
X5540194Y-2166500D01*
X5519806Y-2166500D01*
X5499810Y-2170477D01*
X5480974Y-2178280D01*
X5464023Y-2189606D01*
X5449606Y-2204023D01*
X5438280Y-2220974D01*
X5430477Y-2239810D01*
X5426500Y-2259806D01*
X2006565Y-2259806D01*
X2020394Y-2245977D01*
X2031720Y-2229026D01*
X2039523Y-2210190D01*
X2043500Y-2190194D01*
X2043500Y-2169806D01*
X2039523Y-2149810D01*
X2031720Y-2130974D01*
X2020394Y-2114023D01*
X2005977Y-2099606D01*
X1989026Y-2088279D01*
X1970190Y-2080477D01*
X1950194Y-2076500D01*
X1929806Y-2076500D01*
X1909810Y-2080477D01*
X1890974Y-2088279D01*
X1874023Y-2099606D01*
X1859606Y-2114023D01*
X1848279Y-2130974D01*
X1840477Y-2149810D01*
X1836500Y-2169806D01*
X73500Y-2169806D01*
X73500Y-1818709D01*
X82300Y-1818709D01*
X82300Y-1881291D01*
X94509Y-1942670D01*
X118458Y-2000487D01*
X153226Y-2052522D01*
X197478Y-2096774D01*
X249513Y-2131542D01*
X307330Y-2155491D01*
X368709Y-2167700D01*
X431291Y-2167700D01*
X492670Y-2155491D01*
X550487Y-2131542D01*
X602522Y-2096774D01*
X646774Y-2052522D01*
X647601Y-2051283D01*
X3151500Y-2051283D01*
X3151500Y-2068716D01*
X3154901Y-2085814D01*
X3161572Y-2101921D01*
X3171258Y-2116416D01*
X3183584Y-2128742D01*
X3198079Y-2138428D01*
X3214185Y-2145099D01*
X3231283Y-2148500D01*
X3248716Y-2148500D01*
X3265814Y-2145099D01*
X3281920Y-2138428D01*
X3296415Y-2128742D01*
X3308742Y-2116416D01*
X3318428Y-2101921D01*
X3325099Y-2085814D01*
X3328500Y-2068716D01*
X3328500Y-2051283D01*
X3325099Y-2034185D01*
X3318428Y-2018079D01*
X3308742Y-2003584D01*
X3296415Y-1991258D01*
X3281920Y-1981572D01*
X3265814Y-1974901D01*
X3248716Y-1971500D01*
X3231283Y-1971500D01*
X3214185Y-1974901D01*
X3198079Y-1981572D01*
X3183584Y-1991258D01*
X3171258Y-2003584D01*
X3161572Y-2018079D01*
X3154901Y-2034185D01*
X3151500Y-2051283D01*
X647601Y-2051283D01*
X681542Y-2000487D01*
X705491Y-1942670D01*
X717700Y-1881291D01*
X717700Y-1818709D01*
X707842Y-1769147D01*
X2345091Y-1769147D01*
X2345091Y-1786580D01*
X2348492Y-1803678D01*
X2355163Y-1819784D01*
X2364849Y-1834279D01*
X2377176Y-1846606D01*
X2391671Y-1856291D01*
X2407777Y-1862963D01*
X2424875Y-1866364D01*
X2442308Y-1866364D01*
X2459406Y-1862963D01*
X2475512Y-1856291D01*
X2490007Y-1846606D01*
X2499557Y-1837055D01*
X2501572Y-1841920D01*
X2511258Y-1856415D01*
X2523585Y-1868742D01*
X2538080Y-1878428D01*
X2554186Y-1885099D01*
X2571284Y-1888500D01*
X2588717Y-1888500D01*
X2605815Y-1885099D01*
X2621921Y-1878428D01*
X2636416Y-1868742D01*
X2648742Y-1856415D01*
X2658428Y-1841920D01*
X2665099Y-1825814D01*
X2668500Y-1808716D01*
X2668500Y-1791283D01*
X2951500Y-1791283D01*
X2951500Y-1808716D01*
X2954901Y-1825814D01*
X2961572Y-1841920D01*
X2971258Y-1856415D01*
X2983584Y-1868742D01*
X2998079Y-1878428D01*
X3014185Y-1885099D01*
X3031283Y-1888500D01*
X3048716Y-1888500D01*
X3065814Y-1885099D01*
X3081920Y-1878428D01*
X3096415Y-1868742D01*
X3108742Y-1856415D01*
X3118428Y-1841920D01*
X3125099Y-1825814D01*
X3126512Y-1818709D01*
X4882300Y-1818709D01*
X4882300Y-1881291D01*
X4894509Y-1942670D01*
X4918458Y-2000487D01*
X4953226Y-2052522D01*
X4997478Y-2096774D01*
X5049513Y-2131542D01*
X5107330Y-2155491D01*
X5168709Y-2167700D01*
X5231291Y-2167700D01*
X5292670Y-2155491D01*
X5350487Y-2131542D01*
X5402522Y-2096774D01*
X5446774Y-2052522D01*
X5447601Y-2051283D01*
X5891500Y-2051283D01*
X5891500Y-2068716D01*
X5894901Y-2085814D01*
X5901572Y-2101921D01*
X5911258Y-2116416D01*
X5923584Y-2128742D01*
X5938079Y-2138428D01*
X5954185Y-2145099D01*
X5971283Y-2148500D01*
X5988716Y-2148500D01*
X6005814Y-2145099D01*
X6021920Y-2138428D01*
X6036415Y-2128742D01*
X6048742Y-2116416D01*
X6058428Y-2101921D01*
X6065099Y-2085814D01*
X6068500Y-2068716D01*
X6068500Y-2051283D01*
X9211500Y-2051283D01*
X9211500Y-2068716D01*
X9214901Y-2085814D01*
X9221572Y-2101921D01*
X9231258Y-2116416D01*
X9243585Y-2128742D01*
X9258080Y-2138428D01*
X9274186Y-2145099D01*
X9291284Y-2148500D01*
X9308717Y-2148500D01*
X9325815Y-2145099D01*
X9341921Y-2138428D01*
X9356416Y-2128742D01*
X9368742Y-2116416D01*
X9378428Y-2101921D01*
X9385099Y-2085814D01*
X9388500Y-2068716D01*
X9388500Y-2051283D01*
X9385099Y-2034185D01*
X9378428Y-2018079D01*
X9368742Y-2003584D01*
X9356416Y-1991258D01*
X9341921Y-1981572D01*
X9325815Y-1974901D01*
X9308717Y-1971500D01*
X9291284Y-1971500D01*
X9274186Y-1974901D01*
X9258080Y-1981572D01*
X9243585Y-1991258D01*
X9231258Y-2003584D01*
X9221572Y-2018079D01*
X9214901Y-2034185D01*
X9211500Y-2051283D01*
X6068500Y-2051283D01*
X6065099Y-2034185D01*
X6058428Y-2018079D01*
X6048742Y-2003584D01*
X6036415Y-1991258D01*
X6021920Y-1981572D01*
X6005814Y-1974901D01*
X5988716Y-1971500D01*
X5971283Y-1971500D01*
X5954185Y-1974901D01*
X5938079Y-1981572D01*
X5923584Y-1991258D01*
X5911258Y-2003584D01*
X5901572Y-2018079D01*
X5894901Y-2034185D01*
X5891500Y-2051283D01*
X5447601Y-2051283D01*
X5481542Y-2000487D01*
X5505491Y-1942670D01*
X5517700Y-1881291D01*
X5517700Y-1818709D01*
X5505491Y-1757330D01*
X5481542Y-1699513D01*
X5446774Y-1647478D01*
X5402522Y-1603226D01*
X5350487Y-1568458D01*
X5292670Y-1544509D01*
X5231291Y-1532300D01*
X5168709Y-1532300D01*
X5107330Y-1544509D01*
X5049513Y-1568458D01*
X4997478Y-1603226D01*
X4953226Y-1647478D01*
X4918458Y-1699513D01*
X4894509Y-1757330D01*
X4882300Y-1818709D01*
X3126512Y-1818709D01*
X3128500Y-1808716D01*
X3128500Y-1791283D01*
X3125099Y-1774185D01*
X3118428Y-1758079D01*
X3108742Y-1743584D01*
X3096415Y-1731258D01*
X3081920Y-1721572D01*
X3065814Y-1714901D01*
X3048716Y-1711500D01*
X3031283Y-1711500D01*
X3014185Y-1714901D01*
X2998079Y-1721572D01*
X2983584Y-1731258D01*
X2971258Y-1743584D01*
X2961572Y-1758079D01*
X2954901Y-1774185D01*
X2951500Y-1791283D01*
X2668500Y-1791283D01*
X2665099Y-1774185D01*
X2658428Y-1758079D01*
X2648742Y-1743584D01*
X2636416Y-1731258D01*
X2621921Y-1721572D01*
X2605815Y-1714901D01*
X2588717Y-1711500D01*
X2571284Y-1711500D01*
X2554186Y-1714901D01*
X2538080Y-1721572D01*
X2523585Y-1731258D01*
X2514034Y-1740808D01*
X2512019Y-1735943D01*
X2502333Y-1721448D01*
X2490007Y-1709121D01*
X2475512Y-1699436D01*
X2459406Y-1692765D01*
X2442308Y-1689364D01*
X2424875Y-1689364D01*
X2407777Y-1692765D01*
X2391671Y-1699436D01*
X2377176Y-1709121D01*
X2364849Y-1721448D01*
X2355163Y-1735943D01*
X2348492Y-1752049D01*
X2345091Y-1769147D01*
X707842Y-1769147D01*
X705491Y-1757330D01*
X681542Y-1699513D01*
X646774Y-1647478D01*
X602522Y-1603226D01*
X550487Y-1568458D01*
X509025Y-1551283D01*
X3011500Y-1551283D01*
X3011500Y-1568716D01*
X3014901Y-1585814D01*
X3021572Y-1601920D01*
X3031258Y-1616415D01*
X3043584Y-1628742D01*
X3058079Y-1638428D01*
X3074185Y-1645099D01*
X3091283Y-1648500D01*
X3108716Y-1648500D01*
X3125814Y-1645099D01*
X3141920Y-1638428D01*
X3156415Y-1628742D01*
X3168742Y-1616415D01*
X3170000Y-1614533D01*
X3171258Y-1616415D01*
X3183584Y-1628742D01*
X3198079Y-1638428D01*
X3214185Y-1645099D01*
X3231283Y-1648500D01*
X3248716Y-1648500D01*
X3265814Y-1645099D01*
X3281920Y-1638428D01*
X3296415Y-1628742D01*
X3308742Y-1616415D01*
X3318428Y-1601920D01*
X3325099Y-1585814D01*
X3328500Y-1568716D01*
X3328500Y-1551283D01*
X3325099Y-1534185D01*
X3318428Y-1518079D01*
X3308742Y-1503584D01*
X3296415Y-1491258D01*
X3281920Y-1481572D01*
X3265814Y-1474901D01*
X3248716Y-1471500D01*
X3231283Y-1471500D01*
X3214185Y-1474901D01*
X3198079Y-1481572D01*
X3183584Y-1491258D01*
X3171258Y-1503584D01*
X3170000Y-1505467D01*
X3168742Y-1503584D01*
X3156415Y-1491258D01*
X3141920Y-1481572D01*
X3125814Y-1474901D01*
X3108716Y-1471500D01*
X3091283Y-1471500D01*
X3074185Y-1474901D01*
X3058079Y-1481572D01*
X3043584Y-1491258D01*
X3031258Y-1503584D01*
X3021572Y-1518079D01*
X3014901Y-1534185D01*
X3011500Y-1551283D01*
X509025Y-1551283D01*
X492670Y-1544509D01*
X431291Y-1532300D01*
X368709Y-1532300D01*
X307330Y-1544509D01*
X249513Y-1568458D01*
X197478Y-1603226D01*
X153226Y-1647478D01*
X118458Y-1699513D01*
X94509Y-1757330D01*
X82300Y-1818709D01*
X73500Y-1818709D01*
X73500Y-1029341D01*
X815250Y-1029341D01*
X815250Y-1070659D01*
X823311Y-1111182D01*
X839122Y-1149354D01*
X862076Y-1183708D01*
X891292Y-1212924D01*
X925646Y-1235878D01*
X963818Y-1251689D01*
X1004341Y-1259750D01*
X1045659Y-1259750D01*
X1086182Y-1251689D01*
X1124354Y-1235878D01*
X1158708Y-1212924D01*
X1187924Y-1183708D01*
X1210878Y-1149354D01*
X1226689Y-1111182D01*
X1234750Y-1070659D01*
X1234750Y-1029341D01*
X1565250Y-1029341D01*
X1565250Y-1070659D01*
X1573311Y-1111182D01*
X1589122Y-1149354D01*
X1612076Y-1183708D01*
X1641292Y-1212924D01*
X1675646Y-1235878D01*
X1713818Y-1251689D01*
X1754341Y-1259750D01*
X1795659Y-1259750D01*
X1836182Y-1251689D01*
X1874354Y-1235878D01*
X1908708Y-1212924D01*
X1937923Y-1183708D01*
X1960878Y-1149354D01*
X1976689Y-1111182D01*
X1984750Y-1070659D01*
X1984750Y-1029341D01*
X1976689Y-988818D01*
X1960878Y-950646D01*
X1937923Y-916292D01*
X1908708Y-887076D01*
X1901738Y-882419D01*
X2571500Y-882419D01*
X2571500Y-917581D01*
X2578360Y-952066D01*
X2591815Y-984551D01*
X2611350Y-1013787D01*
X2636213Y-1038650D01*
X2665449Y-1058185D01*
X2697934Y-1071640D01*
X2732419Y-1078500D01*
X2767581Y-1078500D01*
X2802066Y-1071640D01*
X2834551Y-1058185D01*
X2863787Y-1038650D01*
X2878202Y-1024235D01*
X2993726Y-1024235D01*
X3005112Y-1052209D01*
X3036630Y-1067796D01*
X3070583Y-1076935D01*
X3105666Y-1079274D01*
X3140532Y-1074724D01*
X3173840Y-1063459D01*
X3194888Y-1052209D01*
X3206274Y-1024235D01*
X3100000Y-917960D01*
X2993726Y-1024235D01*
X2878202Y-1024235D01*
X2888650Y-1013787D01*
X2908185Y-984551D01*
X2921640Y-952066D01*
X2924745Y-936460D01*
X2925276Y-940532D01*
X2936541Y-973840D01*
X2947791Y-994888D01*
X2975765Y-1006274D01*
X3082039Y-900000D01*
X3117960Y-900000D01*
X3224235Y-1006274D01*
X3252209Y-994888D01*
X3267796Y-963370D01*
X3271193Y-950751D01*
X3271193Y-1015000D01*
X3272419Y-1027448D01*
X3276050Y-1039418D01*
X3281946Y-1050449D01*
X3289881Y-1060119D01*
X3299551Y-1068054D01*
X3310582Y-1073950D01*
X3322552Y-1077581D01*
X3335000Y-1078807D01*
X3565000Y-1078807D01*
X3577448Y-1077581D01*
X3589418Y-1073950D01*
X3600449Y-1068054D01*
X3610118Y-1060119D01*
X3618054Y-1050449D01*
X3623950Y-1039418D01*
X3627581Y-1027448D01*
X3627898Y-1024235D01*
X4243726Y-1024235D01*
X4255112Y-1052209D01*
X4286630Y-1067796D01*
X4320583Y-1076935D01*
X4355666Y-1079274D01*
X4390532Y-1074724D01*
X4423840Y-1063459D01*
X4444888Y-1052209D01*
X4456274Y-1024235D01*
X4350000Y-917960D01*
X4243726Y-1024235D01*
X3627898Y-1024235D01*
X3628807Y-1015000D01*
X3628807Y-905666D01*
X4170726Y-905666D01*
X4175276Y-940532D01*
X4186541Y-973840D01*
X4197791Y-994888D01*
X4225765Y-1006274D01*
X4332040Y-900000D01*
X4367961Y-900000D01*
X4474235Y-1006274D01*
X4502209Y-994888D01*
X4517796Y-963370D01*
X4525164Y-935999D01*
X4528360Y-952066D01*
X4541815Y-984551D01*
X4561350Y-1013787D01*
X4586213Y-1038650D01*
X4615449Y-1058185D01*
X4647934Y-1071640D01*
X4682419Y-1078500D01*
X4717581Y-1078500D01*
X4752067Y-1071640D01*
X4784552Y-1058185D01*
X4813787Y-1038650D01*
X4838650Y-1013787D01*
X4858185Y-984551D01*
X4871640Y-952066D01*
X4875000Y-935176D01*
X4878360Y-952066D01*
X4891815Y-984551D01*
X4911350Y-1013787D01*
X4936213Y-1038650D01*
X4965449Y-1058185D01*
X4997934Y-1071640D01*
X5032419Y-1078500D01*
X5067581Y-1078500D01*
X5102067Y-1071640D01*
X5134552Y-1058185D01*
X5163787Y-1038650D01*
X5188650Y-1013787D01*
X5208185Y-984551D01*
X5221193Y-953147D01*
X5221193Y-1015000D01*
X5222419Y-1027448D01*
X5226050Y-1039418D01*
X5231946Y-1050449D01*
X5239882Y-1060119D01*
X5249551Y-1068054D01*
X5260582Y-1073950D01*
X5272552Y-1077581D01*
X5285000Y-1078807D01*
X5515000Y-1078807D01*
X5527448Y-1077581D01*
X5539418Y-1073950D01*
X5550449Y-1068054D01*
X5560119Y-1060119D01*
X5568054Y-1050449D01*
X5573950Y-1039418D01*
X5577007Y-1029341D01*
X8475250Y-1029341D01*
X8475250Y-1070659D01*
X8483311Y-1111182D01*
X8499122Y-1149354D01*
X8522077Y-1183708D01*
X8551292Y-1212924D01*
X8585646Y-1235878D01*
X8623818Y-1251689D01*
X8664341Y-1259750D01*
X8705659Y-1259750D01*
X8746182Y-1251689D01*
X8784354Y-1235878D01*
X8818708Y-1212924D01*
X8847924Y-1183708D01*
X8870878Y-1149354D01*
X8886689Y-1111182D01*
X8894750Y-1070659D01*
X8894750Y-1029341D01*
X9225250Y-1029341D01*
X9225250Y-1070659D01*
X9233311Y-1111182D01*
X9249122Y-1149354D01*
X9272077Y-1183708D01*
X9301292Y-1212924D01*
X9335646Y-1235878D01*
X9373818Y-1251689D01*
X9414341Y-1259750D01*
X9455659Y-1259750D01*
X9496182Y-1251689D01*
X9534354Y-1235878D01*
X9568708Y-1212924D01*
X9597924Y-1183708D01*
X9620878Y-1149354D01*
X9636689Y-1111182D01*
X9644750Y-1070659D01*
X9644750Y-1029341D01*
X9636689Y-988818D01*
X9620878Y-950646D01*
X9597924Y-916292D01*
X9568708Y-887076D01*
X9534354Y-864122D01*
X9496182Y-848311D01*
X9455659Y-840250D01*
X9414341Y-840250D01*
X9373818Y-848311D01*
X9335646Y-864122D01*
X9301292Y-887076D01*
X9272077Y-916292D01*
X9249122Y-950646D01*
X9233311Y-988818D01*
X9225250Y-1029341D01*
X8894750Y-1029341D01*
X8886689Y-988818D01*
X8870878Y-950646D01*
X8847924Y-916292D01*
X8818708Y-887076D01*
X8784354Y-864122D01*
X8746182Y-848311D01*
X8705659Y-840250D01*
X8664341Y-840250D01*
X8623818Y-848311D01*
X8585646Y-864122D01*
X8551292Y-887076D01*
X8522077Y-916292D01*
X8499122Y-950646D01*
X8483311Y-988818D01*
X8475250Y-1029341D01*
X5577007Y-1029341D01*
X5577581Y-1027448D01*
X5578807Y-1015000D01*
X5578807Y-785000D01*
X5577581Y-772552D01*
X5573950Y-760582D01*
X5568054Y-749551D01*
X5560119Y-739881D01*
X5550449Y-731946D01*
X5539418Y-726050D01*
X5527448Y-722419D01*
X5515000Y-721193D01*
X5285000Y-721193D01*
X5272552Y-722419D01*
X5260582Y-726050D01*
X5249551Y-731946D01*
X5239882Y-739881D01*
X5231946Y-749551D01*
X5226050Y-760582D01*
X5222419Y-772552D01*
X5221193Y-785000D01*
X5221193Y-846853D01*
X5208185Y-815448D01*
X5188650Y-786213D01*
X5163787Y-761350D01*
X5134552Y-741815D01*
X5102067Y-728360D01*
X5067581Y-721500D01*
X5032419Y-721500D01*
X4997934Y-728360D01*
X4965449Y-741815D01*
X4936213Y-761350D01*
X4911350Y-786213D01*
X4891815Y-815448D01*
X4878360Y-847933D01*
X4875000Y-864823D01*
X4871640Y-847933D01*
X4858185Y-815448D01*
X4838650Y-786213D01*
X4813787Y-761350D01*
X4784552Y-741815D01*
X4752067Y-728360D01*
X4717581Y-721500D01*
X4682419Y-721500D01*
X4647934Y-728360D01*
X4615449Y-741815D01*
X4586213Y-761350D01*
X4561350Y-786213D01*
X4541815Y-815448D01*
X4528360Y-847933D01*
X4525255Y-863540D01*
X4524724Y-859468D01*
X4513459Y-826160D01*
X4502209Y-805112D01*
X4474235Y-793726D01*
X4367961Y-900000D01*
X4332040Y-900000D01*
X4225765Y-793726D01*
X4197791Y-805112D01*
X4182204Y-836630D01*
X4173065Y-870583D01*
X4170726Y-905666D01*
X3628807Y-905666D01*
X3628807Y-785000D01*
X3627898Y-775765D01*
X4243726Y-775765D01*
X4350000Y-882039D01*
X4456274Y-775765D01*
X4444888Y-747791D01*
X4413370Y-732204D01*
X4379417Y-723065D01*
X4344334Y-720726D01*
X4309468Y-725276D01*
X4276160Y-736541D01*
X4255112Y-747791D01*
X4243726Y-775765D01*
X3627898Y-775765D01*
X3627581Y-772552D01*
X3623950Y-760582D01*
X3618054Y-749551D01*
X3610118Y-739881D01*
X3600449Y-731946D01*
X3589418Y-726050D01*
X3577448Y-722419D01*
X3565000Y-721193D01*
X3335000Y-721193D01*
X3322552Y-722419D01*
X3310582Y-726050D01*
X3299551Y-731946D01*
X3289881Y-739881D01*
X3281946Y-749551D01*
X3276050Y-760582D01*
X3272419Y-772552D01*
X3271193Y-785000D01*
X3271193Y-849027D01*
X3263459Y-826160D01*
X3252209Y-805112D01*
X3224235Y-793726D01*
X3117960Y-900000D01*
X3082039Y-900000D01*
X2975765Y-793726D01*
X2947791Y-805112D01*
X2932204Y-836630D01*
X2924836Y-864001D01*
X2921640Y-847933D01*
X2908185Y-815448D01*
X2888650Y-786213D01*
X2878202Y-775765D01*
X2993726Y-775765D01*
X3100000Y-882039D01*
X3206274Y-775765D01*
X3194888Y-747791D01*
X3163370Y-732204D01*
X3129417Y-723065D01*
X3094334Y-720726D01*
X3059468Y-725276D01*
X3026160Y-736541D01*
X3005112Y-747791D01*
X2993726Y-775765D01*
X2878202Y-775765D01*
X2863787Y-761350D01*
X2834551Y-741815D01*
X2802066Y-728360D01*
X2767581Y-721500D01*
X2732419Y-721500D01*
X2697934Y-728360D01*
X2665449Y-741815D01*
X2636213Y-761350D01*
X2611350Y-786213D01*
X2591815Y-815448D01*
X2578360Y-847933D01*
X2571500Y-882419D01*
X1901738Y-882419D01*
X1874354Y-864122D01*
X1836182Y-848311D01*
X1795659Y-840250D01*
X1754341Y-840250D01*
X1713818Y-848311D01*
X1675646Y-864122D01*
X1641292Y-887076D01*
X1612076Y-916292D01*
X1589122Y-950646D01*
X1573311Y-988818D01*
X1565250Y-1029341D01*
X1234750Y-1029341D01*
X1226689Y-988818D01*
X1210878Y-950646D01*
X1187924Y-916292D01*
X1158708Y-887076D01*
X1124354Y-864122D01*
X1086182Y-848311D01*
X1045659Y-840250D01*
X1004341Y-840250D01*
X963818Y-848311D01*
X925646Y-864122D01*
X891292Y-887076D01*
X862076Y-916292D01*
X839122Y-950646D01*
X823311Y-988818D01*
X815250Y-1029341D01*
X73500Y-1029341D01*
X73500Y-529341D01*
X815250Y-529341D01*
X815250Y-570659D01*
X823311Y-611182D01*
X839122Y-649354D01*
X862076Y-683708D01*
X891292Y-712923D01*
X925646Y-735878D01*
X963818Y-751689D01*
X1004341Y-759750D01*
X1045659Y-759750D01*
X1086182Y-751689D01*
X1124354Y-735878D01*
X1158708Y-712923D01*
X1187924Y-683708D01*
X1210878Y-649354D01*
X1226689Y-611182D01*
X1234750Y-570659D01*
X1234750Y-529341D01*
X1565250Y-529341D01*
X1565250Y-570659D01*
X1573311Y-611182D01*
X1589122Y-649354D01*
X1612076Y-683708D01*
X1641292Y-712923D01*
X1675646Y-735878D01*
X1713818Y-751689D01*
X1754341Y-759750D01*
X1795659Y-759750D01*
X1836182Y-751689D01*
X1874354Y-735878D01*
X1908708Y-712923D01*
X1937923Y-683708D01*
X1960878Y-649354D01*
X1976689Y-611182D01*
X1984750Y-570659D01*
X1984750Y-529341D01*
X8475250Y-529341D01*
X8475250Y-570659D01*
X8483311Y-611182D01*
X8499122Y-649354D01*
X8522077Y-683708D01*
X8551292Y-712923D01*
X8585646Y-735878D01*
X8623818Y-751689D01*
X8664341Y-759750D01*
X8705659Y-759750D01*
X8746182Y-751689D01*
X8784354Y-735878D01*
X8818708Y-712923D01*
X8847924Y-683708D01*
X8870878Y-649354D01*
X8886689Y-611182D01*
X8894750Y-570659D01*
X8894750Y-529341D01*
X9225250Y-529341D01*
X9225250Y-570659D01*
X9233311Y-611182D01*
X9249122Y-649354D01*
X9272077Y-683708D01*
X9301292Y-712923D01*
X9335646Y-735878D01*
X9373818Y-751689D01*
X9414341Y-759750D01*
X9455659Y-759750D01*
X9496182Y-751689D01*
X9534354Y-735878D01*
X9568708Y-712923D01*
X9597924Y-683708D01*
X9620878Y-649354D01*
X9636689Y-611182D01*
X9644750Y-570659D01*
X9644750Y-529341D01*
X9636689Y-488818D01*
X9620878Y-450646D01*
X9597924Y-416292D01*
X9568708Y-387076D01*
X9534354Y-364122D01*
X9496182Y-348311D01*
X9455659Y-340250D01*
X9414341Y-340250D01*
X9373818Y-348311D01*
X9335646Y-364122D01*
X9301292Y-387076D01*
X9272077Y-416292D01*
X9249122Y-450646D01*
X9233311Y-488818D01*
X9225250Y-529341D01*
X8894750Y-529341D01*
X8886689Y-488818D01*
X8870878Y-450646D01*
X8847924Y-416292D01*
X8818708Y-387076D01*
X8784354Y-364122D01*
X8746182Y-348311D01*
X8705659Y-340250D01*
X8664341Y-340250D01*
X8623818Y-348311D01*
X8585646Y-364122D01*
X8551292Y-387076D01*
X8522077Y-416292D01*
X8499122Y-450646D01*
X8483311Y-488818D01*
X8475250Y-529341D01*
X1984750Y-529341D01*
X1976689Y-488818D01*
X1960878Y-450646D01*
X1937923Y-416292D01*
X1908708Y-387076D01*
X1874354Y-364122D01*
X1836182Y-348311D01*
X1795659Y-340250D01*
X1754341Y-340250D01*
X1713818Y-348311D01*
X1675646Y-364122D01*
X1641292Y-387076D01*
X1612076Y-416292D01*
X1589122Y-450646D01*
X1573311Y-488818D01*
X1565250Y-529341D01*
X1234750Y-529341D01*
X1226689Y-488818D01*
X1210878Y-450646D01*
X1187924Y-416292D01*
X1158708Y-387076D01*
X1124354Y-364122D01*
X1086182Y-348311D01*
X1045659Y-340250D01*
X1004341Y-340250D01*
X963818Y-348311D01*
X925646Y-364122D01*
X891292Y-387076D01*
X862076Y-416292D01*
X839122Y-450646D01*
X823311Y-488818D01*
X815250Y-529341D01*
X73500Y-529341D01*
X73500Y-303595D01*
X76011Y-277987D01*
X1176500Y-277987D01*
X1176500Y-322013D01*
X1185089Y-365192D01*
X1201937Y-405867D01*
X1226396Y-442473D01*
X1257527Y-473604D01*
X1294133Y-498063D01*
X1334808Y-514911D01*
X1377987Y-523500D01*
X1422013Y-523500D01*
X1465192Y-514911D01*
X1505867Y-498063D01*
X1542473Y-473604D01*
X1573604Y-442473D01*
X1598063Y-405867D01*
X1614911Y-365192D01*
X1623500Y-322013D01*
X1623500Y-277987D01*
X8836500Y-277987D01*
X8836500Y-322013D01*
X8845089Y-365192D01*
X8861937Y-405867D01*
X8886396Y-442473D01*
X8917527Y-473604D01*
X8954133Y-498063D01*
X8994808Y-514911D01*
X9037987Y-523500D01*
X9082013Y-523500D01*
X9125193Y-514911D01*
X9165867Y-498063D01*
X9202473Y-473604D01*
X9233604Y-442473D01*
X9258063Y-405867D01*
X9274911Y-365192D01*
X9283500Y-322013D01*
X9283500Y-277987D01*
X9274911Y-234807D01*
X9258063Y-194133D01*
X9233604Y-157527D01*
X9202473Y-126396D01*
X9165867Y-101937D01*
X9125193Y-85089D01*
X9082013Y-76500D01*
X9037987Y-76500D01*
X8994808Y-85089D01*
X8954133Y-101937D01*
X8917527Y-126396D01*
X8886396Y-157527D01*
X8861937Y-194133D01*
X8845089Y-234807D01*
X8836500Y-277987D01*
X1623500Y-277987D01*
X1614911Y-234807D01*
X1598063Y-194133D01*
X1573604Y-157527D01*
X1542473Y-126396D01*
X1505867Y-101937D01*
X1465192Y-85089D01*
X1422013Y-76500D01*
X1377987Y-76500D01*
X1334808Y-85089D01*
X1294133Y-101937D01*
X1257527Y-126396D01*
X1226396Y-157527D01*
X1201937Y-194133D01*
X1185089Y-234807D01*
X1176500Y-277987D01*
X76011Y-277987D01*
X78159Y-256074D01*
X90916Y-213822D01*
X111637Y-174852D01*
X139532Y-140649D01*
X173540Y-112515D01*
X212364Y-91523D01*
X254526Y-78472D01*
X301827Y-73500D01*
X9696405Y-73500D01*
X9743926Y-78159D01*
G37*
%TD.AperFunction*%
M02*
